<?xml version="1.0" encoding="utf-8"?>
<svg version="1.1" xmlns="http://www.w3.org/2000/svg" xmlns:xlink="http://www.w3.org/1999/xlink" x="0px" y="0px" width="465px"
	 height="883px" viewBox="0 0 465 883" enable-background="new 0 0 465 883" xml:space="preserve">
<g id="wing_top">
	<path id="rear_line" fill="#00BF00" stroke="#000000" stroke-width="0.25" stroke-miterlimit="10" d="M37.34,56.04l-24.1-30.82
		l1.26-2.07l37.68,1.66l60.13,21.49l58.46,26.15l88.45,40.97l65.13,30.16l56.21,23.57l33.9-29.19l12.99-11.56l5.69-5.17
		c0,0,5.38-1.19,7.05-0.94c1.68,0.24,7.86,5.74,7.86,5.74s1.28,3.36,2.17,7.7l-52.36,56.86L37.34,56.04z"/>
	<path id="middle_line" opacity="0" fill="#FFFF00" d="M30.22,46.94l365.38,137.3l53.53-54.92l0,0c0.36,1.24,0.76,2.75,1.1,4.41l-52.36,56.86
		L37.34,56.04L30.22,46.94L30.22,46.94z"/>
	<path id="bottom_surface" stroke="#231F20" stroke-width="0.25" stroke-miterlimit="10" d="M37.34,56.04
		c0,0,13.35,15.11,18.72,19.92c5.19,4.65,19.41,18.46,29.09,23.26l78.73,39.09c0,0,170.63,84.32,284.84,124.71c0,0,1.98,0.59,2.93,0
		c0.95-0.59,1.29-1.26,1.29-1.26l2.16-97.72c0,0,1.1-10.97-4.88-30.3l-52.36,56.86L37.34,56.04z"/>
	<path id="xbs" fill-opacity="0.32" fill="#414042" stroke="#231F20" stroke-width="0.25" stroke-miterlimit="10" d="M450.23,133.74
		c5.97,19.33,4.88,30.3,4.88,30.3l-2.16,97.72c0,0-0.34,0.68-1.29,1.26c-0.95,0.59-2.93,0-2.93,0
		c-114.2-40.39-284.84-124.71-284.84-124.71L85.16,99.22c-9.68-4.8-23.9-18.61-29.09-23.26c-5.38-4.81-18.72-19.92-18.72-19.92
		l-24.1-30.82l1.26-2.07l37.68,1.66l60.13,21.49l58.46,26.15l88.45,40.97l65.13,30.16l56.21,23.57l33.9-29.19l12.99-11.56l5.69-5.17
		c0,0,5.38-1.19,7.05-0.94c1.68,0.24,7.86,5.74,7.86,5.74S449.33,129.4,450.23,133.74"/>
	
		<path id="ribs" fill="#FFFF00" stroke="#414042" stroke-width="0.25" stroke-linecap="round" stroke-linejoin="round" stroke-miterlimit="10" d="
		M145.61,106.03l-7.3,8.31l-22.24-53.35l2.46-2.34L145.61,106.03z M179.01,87.25l-1.82,2.18l23.66,53.61l6.67-7.67l-4.82-9.23
		L179.01,87.25z M233.25,116.01l-3.08,2.47l26.05,47.83l6.09-8.41L233.25,116.01z M439.28,129.02l-0.91,0.83l11.11,19.39l1.93-2.99
		L439.28,129.02z M435.62,136.38l-0.66,0.77l11.95,19.17l1.75-3.01L435.62,136.38z M430.89,143.7l-0.99,1.29l15.91,22.44l2.31-3.24
		L430.89,143.7z"/>
	<path id="battens_top" stroke="#414042" stroke-width="0.15" stroke-miterlimit="10" d="M46.45,13.28l2.82,1.08l33.79,61.28
		c0,0,6.15,10.45,5.37,24.64l-3.5-1.74c0,0,2.52-9.71-5.77-24.46C69.66,57.17,46.45,13.28,46.45,13.28z M102.24,29.66l26.45,47.1
		c0,0,12.55,20.5,17.85,31.09s2.71,19.56,1.87,22.21l2.59,1.28c0,0,4.32-10.53-0.28-21.13c-4.6-10.6-19.52-33.46-25.65-44.62
		s-19.29-34.12-19.29-34.12L102.24,29.66z M210.24,160.09l2.72,1.29c0,0,2.38-5.78,0.36-17.28c-2.03-11.61-50.42-85.7-50.42-85.7
		l-2.31-1.32l40.88,66.95c0,0,9.2,15.2,9.76,22.45C211.79,153.72,210.24,160.09,210.24,160.09z M266.43,186.3l2.26,1.04
		c0,0,3.2-5.3,1.1-16.74c-2.11-11.48-23.28-37.36-25.65-41.06c-2.37-3.7-32.06-46.56-32.06-46.56l-2.54-1.32l33.77,48.93
		c0,0,18.26,25.38,19.8,28.72C264.63,162.64,271.59,172.35,266.43,186.3z M417.31,250.79l1.58,0.61c0,0,2.83-6.97-0.71-15.41
		c-2.1-5-3.71-6.33-42.81-50.45c0,0-23.75-27.54-30.22-39.35l-1.24-0.56c0,0,12.28,19.6,30.5,39.92c0,0,23.8,26.83,31.76,35.75
		c2.48,2.78,8.09,9.47,9.83,12.5C417.59,236.53,419.96,242.67,417.31,250.79z M305.41,177.36c5.97,8.17,7.23,13.49,7.68,17.14
		c0.82,6.61-1.64,12.08-1.64,12.08l2.34,1.03c2.2-7.65,2.41-15.38-2.82-23.65c-5.24-8.27-15.82-22.73-21.99-30.9
		c-6.18-8.17-36.57-51.03-36.57-51.03l-0.99-0.53C251.4,101.5,300.41,170.53,305.41,177.36z M351.61,224.03l1.81,0.77
		c0,0,3.12-6.11,1.21-13.25c-2.16-8.08-9.17-16.82-13.79-22.3c0,0-18.95-22.93-25.39-31.49c-6.44-8.57-27.62-38.63-27.62-38.63
		l-1.23-0.64l27.95,39.47c0,0,28.91,35.7,32.1,40.43c4.61,6.84,5.82,9.71,6.53,13.26C353.89,215.18,354.18,216.2,351.61,224.03z
		 M389.08,239.62c0,0,0.87-1.24,1.32-3.55c1.27-6.49-1.1-12.52-5.81-19.9s-13.3-16.13-20.11-23.46
		c-6.81-7.33-21.64-25.63-21.64-25.63c-4.89-5.87-9.99-12.15-14.08-17.83c-6.15-8.54-10.22-15.49-10.22-15.49l-0.85-0.37
		c0,0,5.48,9.31,11.39,17.43c6.02,8.27,30.95,38.44,30.95,38.44c7.92,9.49,22.06,21.63,27.81,35.87c3.62,8.98-0.13,13.94-0.13,13.94
		L389.08,239.62z M445.31,261.15h0.76c0,0,1.47-5.45,0-10.68c-1.47-5.24-4.61-8.91-6.07-10.85c-1.47-1.93-41.27-47.15-43.16-49.14
		c-1.89-1.99-14.22-13.51-27.88-35.17l-0.66-0.17c13.66,21.65,26.04,33.59,27.93,35.58c1.89,1.99,41.68,46.82,43.15,48.75
		s4.61,5.61,6.07,10.85C446.92,255.55,445.31,261.15,445.31,261.15 M448.95,238.85l0.05-0.67c-1.47-1.93-41.54-45.71-43.42-47.7
		c-1.89-1.99-14.44-13.84-28.09-35.49l-0.41,0.16c13.66,21.65,26.02,33.59,27.9,35.58C406.85,192.71,447.48,236.91,448.95,238.85
		 M450.05,224l0.05-0.71c-1.47-1.93-36.38-39.33-38.24-41.34c-6.18-6.66-11.5-11.21-26-31.88l-0.33,0.27
		c13.98,20.26,21.24,26.61,25.73,31.86C413.03,184.29,450.05,224,450.05,224z M451.1,209.84l0.05-0.71
		c-1.47-1.93-26.28-27.92-28.17-29.91c-1.89-1.99-13.57-13.94-29.36-35.96l-0.32,0.38c15.05,21.16,27.48,34.07,29.36,36.06
		C424.55,181.69,451.1,209.84,451.1,209.84z M452.21,195.07c0,0-22.35-24.46-23.82-26.26c-1.47-1.8-26.94-32.72-26.94-32.72
		l-0.2,0.29l28.61,34.8l22.29,24.55L452.21,195.07z M453.39,182.33c0,0-16.31-18.57-17.78-20.37c-1.47-1.8-26.99-32.11-26.99-32.11
		l-0.21,0.12l28.67,34.36l16.24,18.74L453.39,182.33z M454.43,171.04c0,0-11.14-12.72-12.61-14.52
		c-1.47-1.8-26.91-32.53-26.91-32.53l-0.12,0.2l28.07,33.98l11.54,13.19L454.43,171.04z M454.94,160.03c0,0-6.63-7.7-7.1-8.31
		c-1.42-1.87-26.18-33.63-26.18-33.63l-0.1,0.15l26.82,34.62l6.57,7.54L454.94,160.03z M453.89,149.25l-25.31-35.77l-0.15,0.13
		l25.57,36.32L453.89,149.25z M449.98,134.91l-12.18-19.97l-0.13,0.01l12.14,20.17L449.98,134.91z"/>
	
		<path id="leading_edge" onmouseover="parent.PanelMouseOver(this.id)" onmouseout="parent.PanelMouseOut(this.id)" fill-opacity="0.97" fill="#919191" stroke="#000000" stroke-width="0.25" stroke-miterlimit="10" d="
		M448.06,126.04c0.42,1.97,4.57,11.19,7.12,26.81c1.86,11.34,2.09,26.92,1.68,52.58c-0.42,25.71-2.78,56.35-2.78,56.35
		s-0.31,2.14-1.54,3.05c-0.4,0.3-2.07,1.12-2.07,1.12s-15.45-3.54-35.14-11.29c-19.03-7.49-18.13-7.19-66.28-26.89
		c-48.72-19.93-125.18-55.28-125.18-55.28s-77.01-36.29-95.73-45.56c-18.95-9.38-29.33-14.4-43.31-23.51
		c-9.29-6.05-27.55-22.09-37.65-32.21S31.4,54.08,11.94,27.38l2.57-4.23c0,0,15.25,16.3,26.47,26.37S63.5,69.23,69.5,74
		s12.29,9.96,13.85,10.7c1.56,0.74,65.43,28.66,65.43,28.66l61.58,27.18l56.09,24.72l43.41,19.01l39.01,17.49l34.77,14.92
		l29.22,12.36l26.92,11.57l8.8,3.19l3.51-47.39l2.41-26.08l0.45-8.04c0,0,0.18-2.99-0.63-10
		C453.12,141.86,448.06,126.04,448.06,126.04z"/>
	
		<path id="top_surface" onmouseover="parent.PanelMouseOver(this.id)" onmouseout="parent.PanelMouseOut(this.id)" fill-opacity="0.84" fill="#919191" stroke="#919191" stroke-width="0.0" stroke-miterlimit="10" d="
		M451.15,136.83l-6-9.82l-55.97,50.74L63.26,44.85l0,0c5.91,11.03,12.04,22.36,15.9,29.23c2.25,4.01,3.71,7.66,4.63,10.83l0,0
		c5.86,2.62,64.99,28.46,64.99,28.46l61.58,27.18l56.09,24.72l43.41,19.01l39.01,17.49l34.77,14.92l29.22,12.36l26.92,11.57
		l8.8,3.19l3.51-47.39l2.41-26.08l0.45-8.04c0,0,0.18-2.99-0.63-10C453.78,147.59,452.45,141.78,451.15,136.83z"/>
	
		<path id="trailing_edge" onmouseover="parent.PanelMouseOver('trailing_edge')" onmouseout="parent.PanelMouseOut('trailing_edge')" fill-opacity="0.84" fill="#919191" stroke="#000000" stroke-width="0.25" stroke-linejoin="round" stroke-miterlimit="1" d="
		M14.51,23.15c0,0,15.25,16.3,26.47,26.37S63.5,69.23,69.5,74s12.29,9.96,13.85,10.7c0.06,0.03,0.21,0.1,0.44,0.2l0,0
		c-0.92-3.17-2.38-6.82-4.63-10.83c-3.86-6.87-9.98-18.2-15.9-29.23l0,0l325.93,132.9l55.97-50.74l6,9.82l0,0
		c-1.57-6.03-3.1-10.79-3.1-10.79s-0.16-2.83-10.26-11.1c0,0-4.37,0.46-9.22-1.47c0,0-4.73,4.06-6.91,4.61c0,0-2.3,3.88-6.76,5.92
		c0,0-1.73,3.3-6.49,5.97c0,0-3.51,4.72-6.96,6.13c0,0-3.11,4.67-7.83,7.16c0,0-4.36,5.31-7.77,6.81c0,0-5.96,5.04-12.88,6.2
		c-0.26,0.04-4.98-1.21-4.98-1.21s-3.72-0.13-24.07-9.44c0,0-10.7-4.15-25.38-11.86c0,0-15.52-6.7-31.93-15.27
		c0,0-22.68-10.18-35.2-16.98c0,0-23.25-10.07-41.87-19.86c0,0-30.97-14.13-48.94-24.57c0,0-38.38-16.94-58.35-27.42
		c0,0-39.21-9.76-55.8-16.38c0,0-24.47-2.43-31.7,9.48L14.51,23.15"/>
	
		<path id="nose" onmouseover="parent.PanelMouseOver('leading_edge')" onmouseout="parent.PanelMouseOut('leading_edge')" fill="#919191" stroke="#000000" stroke-width="0.25" stroke-linecap="round" stroke-linejoin="round" stroke-miterlimit="10" d="
		M447.7,240.4c5.71,4.17,7.04,11.34,7.04,11.34l-0.51,7.98c0,0,0.02,3.87-1.69,5.11l-2.07,1.12l-6.94-1.81c0,0,4.63-1.09,4.52-9.53
		s-4.83-13.38-4.83-13.38l3.22,0.17L447.7,240.4z"/>
	<path fill="#C9C9C9" stroke="#000000" stroke-width="0.5" stroke-miterlimit="10" d="M459.67,134.21l-62.39,52.12l-3.65-3.72
		l61.99-52.52c0,0,0.59-0.81,1.41,0S459.67,134.21,459.67,134.21z M351.21,129.61c0,0-0.55-0.6-2.99,1.57l18.59,23.67l1.17,0.22
		l4.98,1.21L351.21,129.61 M336.3,222.47l-38.56,37.49c0,0,0.13,2.2,0.97,2.01c0.84-0.19,51.62-13.28,51.62-13.28l9.41-16.55
		l-2.49-1.02l-8.98,16.6l-45.02,11.72l36.62-35.48L336.3,222.47z"/>
</g>
<g id="wing_bottom">
	<path stroke="#000000" stroke-width="0.25" stroke-miterlimit="10" d="M52.3,135.01l-6.07,4.5c0,0,62.31,31.27,113.37,87.05
		l-17.1-27.44C142.5,199.12,111.68,166.5,52.3,135.01z"/>
	
		<path id="LE" onmouseover="parent.PanelMouseOver('leading_edge')" onmouseout="parent.PanelMouseOut('leading_edge')" fill="#919191" stroke="#000000" stroke-width="0.25" stroke-miterlimit="10" d="
		M142.5,199.12c0,0,83.66,70.44,285.1,421.71c0,0,1.74,2.34-1.83,4.96L249.15,753.5c42.31-30.59,159.31-122.61,159.31-122.61
		l-8.67-3.2l1.89-5.88l11.56-3.35c-6.82-22.52-253.65-391.88-253.65-391.88L142.5,199.12z"/>
	
		<path id="BS" onmouseover="parent.PanelMouseOver('bottom_surface')" onmouseout="parent.PanelMouseOut('bottom_surface')" stroke="#000000" stroke-width="0.25" stroke-miterlimit="10" d="
		M249.15,753.5c42.31-30.59,159.31-122.61,159.31-122.61l-8.67-3.2l1.89-5.88l11.56-3.35c-6.82-22.52-253.65-391.88-253.65-391.88
		c-22.38-24.45-46.92-44.19-67.42-58.65c0,0,207.25,439.04,210.12,451.94c0,0-59.05,82.38-124.64,164.84c0,0,21.06,1.41,32.24-4.72
		C221.06,773.85,249.15,753.5,249.15,753.5z"/>
	
		<path id="RL" onmouseover="parent.PanelMouseOver('rear_line')" onmouseout="parent.PanelMouseOut('rear_line')" fill="#00BF00" stroke="#000000" stroke-width="0.25" stroke-miterlimit="10" d="
		M177.65,784.69c-4.26-0.13-12.18-1.15-12.18-1.15l-8.61-11.11l4.37-14.72l95.33-136.17l3.09-8.42L79.12,283.4l-33.38-82.86
		l0.48-61.03c0,0,19.66,9.87,45.95,28.4c0,0,207.25,439.04,210.12,451.94C302.29,619.85,243.24,702.23,177.65,784.69"/>
		<path id="ML" opacity="0.0" onmouseover="parent.PanelMouseOver('middle_line')" onmouseout="parent.PanelMouseOut('middle_line')" d="
		M177.65,784.69c-2.26-0.07-5.54-0.39-8.12-0.67l0,0c65.59-82.46,122.28-161.87,122.28-161.87
		c-2.87-12.9-216.56-465.63-216.56-465.63c5.18,3.33,10.88,7.13,16.92,11.39c0,0,207.25,439.04,210.12,451.94
		C302.29,619.85,243.24,702.23,177.65,784.69"/>
	<path id="letters_ml" opacity="0.0" onmouseover="parent.PanelMouseOver('letters')" onmouseout="parent.PanelMouseOut('letters')" d="M143.01,378.2
		c6.88,12.22,16.11,20.61,26,24.05c9.86,3.41,11.84-0.88,6.88-11.73L143.01,378.2z M140.94,374.33L174,386.88l-8.22-16.35
		l-33.97-13.39L140.94,374.33z M164.18,418.13l22.21,7.16l-6.23-12l-22.93-7.77L164.18,418.13z M191.87,427.46
		c2.08,0.79,2.43-1.42,0.45-5.18c-1.72-3.7-5.1-7.2-7.03-7.75c-2.22-0.64-2.5,1.38-0.47,5.22
		C186.58,423.48,189.97,426.95,191.87,427.46z M175.82,440.6l3.08-9.73l-9.93-3.02L175.82,440.6z M193.1,453.33l8.93,2.45
		l-6.08-12.02L193.1,453.33z M195.24,442.65l-0.27-0.76c-2.26-4.5-6.55-8.6-9.78-9.67c-1.95-0.5-2.61-0.43-2.89,0.91l-3.04,8.99
		c-0.29,0.65-0.29,1.36-1.15,1.16c-0.29-0.07-0.96-0.7-1.63-1.34c0.1,0.5,0.58,0.85,0.68,1.35c3.03,5.96,6.43,9.58,9.79,10.32
		c1.57,0.58,2.77-0.1,3.13-1.67l2.63-9.68c0.27-0.63,0.18-1.12,0.99-0.92C193.98,441.42,194.7,441.83,195.24,442.65z M195.68,474.78
		l18.32,4.3c-4.41-8.39-10.96-14.55-17.27-16.08c-6.91-1.9-7.93,2.64-3.41,11.81c2.83,5.25,5.63,9.04,10.28,13.11l3.86,0.87
		c-5.02-3.64-8.6-7.55-10.96-12.44C196.14,475.8,195.78,475.26,195.68,474.78z M212.48,490.06l7.93,1.75l-5.8-11.48L212.48,490.06z
		 M211.85,509.49l-0.08,0.22c4.61,8.49,7.84,11.18,13.18,12.21l12.12,1.98l-5.4-10.76L211.85,509.49z M210.02,506.44l19.93,3.77
		l-5.57-10.74l-12.36-2.54c-5.56-1.31-6.6,0.65-1.91,9.28L210.02,506.44z M228.29,540.43l2.56-10.13l-8.48-1.25L228.29,540.43z
		 M243.26,549.64l7.44,0.87l-5.44-10.4L243.26,549.64z M244.7,538.95l-0.31-0.47c-2-3.97-5.71-7.23-8.24-7.68
		c-1.67-0.16-2.23,0.02-2.61,1.12l-2.29,9.42c-0.23,0.67-0.15,1.14-0.87,1.09c-0.49-0.03-0.9-0.29-1.65-1.04
		c0.34,0.49,0.42,0.95,0.83,1.21c2.67,5.24,5.6,8.18,8.16,8.54c1.66,0.09,2.36-0.56,2.73-2.35l2.03-9.57
		c0.22-0.66,0.21-1.33,0.91-1.27C243.83,537.99,244.15,538.46,244.7,538.95z"/>
	<path id="letters_bs" opacity="0.0" onmouseover="parent.PanelMouseOver('letters')" onmouseout="parent.PanelMouseOut('letters')" d="M196.9,370.33
		c6.29,12.54,15.1,21.36,24.82,25.27c9.68,3.88,11.87-0.31,7.43-11.39L196.9,370.33z M195.01,366.36l32.43,14.12l-7.43-16.72
		l-33.3-15L195.01,366.36z M216.14,411.23l21.85,8.22l-5.65-12.28l-22.53-8.85L216.14,411.23z M243.35,421.87
		c2.04,0.88,2.49-1.3,0.69-5.15c-1.54-3.78-4.75-7.43-6.65-8.08c-2.19-0.74-2.57,1.26-0.71,5.19
		C238.25,417.64,241.47,421.27,243.35,421.87z M226.69,434.22l3.54-9.58l-9.77-3.49L226.69,434.22z M243.34,447.77l8.81,2.87
		l-5.49-12.3L243.34,447.77z M245.99,437.2l-0.23-0.77c-2.05-4.6-6.13-8.91-9.31-10.12c-1.93-0.59-2.59-0.55-2.93,0.77l-3.46,8.83
		c-0.32,0.64-0.35,1.35-1.2,1.11c-0.29-0.08-0.92-0.75-1.56-1.41c0.07,0.51,0.53,0.88,0.61,1.38c2.74,6.1,5.96,9.87,9.29,10.77
		c1.54,0.66,2.77,0.04,3.21-1.52l3.09-9.54c0.3-0.62,0.23-1.11,1.03-0.88C244.79,435.91,245.49,436.36,245.99,437.2z M244.9,469.31
		l18.1,5.17c-4.01-8.59-10.26-15.06-16.49-16.89c-6.82-2.23-8.04,2.26-3.97,11.63c2.57,5.38,5.2,9.3,9.64,13.58l3.82,1.05
		c-4.85-3.88-8.23-7.95-10.35-12.95C245.31,470.36,244.97,469.8,244.9,469.31z M260.94,485.38l7.84,2.13l-5.25-11.75L260.94,485.38z
		 M259.39,504.75l-0.1,0.22c4.2,8.7,7.3,11.54,12.59,12.83l12.01,2.56l-4.88-11.01L259.39,504.75z M257.7,501.62l19.73,4.72
		l-5.06-10.99l-12.22-3.12c-5.49-1.57-6.62,0.33-2.36,9.18L257.7,501.62z M274.34,536.45l3.04-9.99l-8.41-1.65L274.34,536.45z
		 M288.84,546.36l7.39,1.23l-4.94-10.65L288.84,546.36z M290.79,535.76l-0.29-0.49c-1.8-4.06-5.36-7.49-7.86-8.07
		c-1.66-0.23-2.23-0.09-2.67,1l-2.74,9.3c-0.27,0.66-0.2,1.13-0.93,1.04c-0.49-0.06-0.89-0.34-1.6-1.12
		c0.31,0.5,0.37,0.97,0.77,1.25c2.42,5.36,5.21,8.43,7.75,8.92c1.66,0.17,2.38-0.44,2.83-2.22l2.48-9.46
		c0.25-0.64,0.27-1.32,0.97-1.23C289.98,534.75,290.27,535.24,290.79,535.76z"/>
	<path id="letters" onmouseover="parent.PanelMouseOver('letters')" onmouseout="parent.PanelMouseOut('letters')" d="M150.03,379.04
		c6.88,12.22,16.11,20.61,26,24.05c9.86,3.41,11.84-0.88,6.88-11.73L150.03,379.04z M147.96,375.16l33.07,12.55l-8.22-16.35
		l-33.97-13.39L147.96,375.16z M171.21,418.97l22.21,7.16l-6.23-12l-22.93-7.77L171.21,418.97z M198.9,428.3
		c2.08,0.79,2.43-1.42,0.45-5.18c-1.72-3.7-5.1-7.2-7.03-7.75c-2.22-0.64-2.5,1.38-0.47,5.22
		C193.6,424.32,196.99,427.79,198.9,428.3z M182.84,441.43l3.08-9.73l-9.93-3.02L182.84,441.43z M200.13,454.17l8.93,2.45
		l-6.08-12.02L200.13,454.17z M202.26,443.49l-0.27-0.76c-2.26-4.5-6.55-8.6-9.78-9.67c-1.95-0.5-2.61-0.43-2.89,0.91l-3.04,8.99
		c-0.29,0.65-0.29,1.36-1.15,1.16c-0.29-0.07-0.96-0.7-1.63-1.34c0.1,0.5,0.58,0.85,0.68,1.35c3.03,5.96,6.43,9.58,9.79,10.32
		c1.57,0.58,2.77-0.1,3.13-1.67l2.63-9.68c0.27-0.63,0.18-1.12,0.99-0.92C201,442.26,201.72,442.67,202.26,443.49z M202.71,475.61
		l18.32,4.3c-4.41-8.39-10.96-14.55-17.27-16.08c-6.91-1.9-7.93,2.64-3.41,11.81c2.83,5.25,5.63,9.04,10.28,13.11l3.86,0.87
		c-5.02-3.64-8.6-7.55-10.96-12.44C203.16,476.64,202.8,476.1,202.71,475.61z M219.5,490.9l7.93,1.75l-5.8-11.48L219.5,490.9z
		 M218.88,510.32l-0.08,0.22c4.61,8.49,7.84,11.18,13.18,12.21l12.12,1.98l-5.4-10.76L218.88,510.32z M217.04,507.28l19.93,3.77
		l-5.57-10.74l-12.36-2.54c-5.56-1.31-6.6,0.65-1.91,9.28L217.04,507.28z M235.32,541.27l2.56-10.13l-8.48-1.25L235.32,541.27z
		 M250.28,550.48l7.44,0.87l-5.44-10.4L250.28,550.48z M251.72,539.79l-0.31-0.47c-2-3.97-5.71-7.23-8.24-7.68
		c-1.67-0.16-2.23,0.02-2.61,1.12l-2.29,9.42c-0.23,0.67-0.15,1.14-0.87,1.09c-0.49-0.03-0.9-0.29-1.65-1.04
		c0.34,0.49,0.42,0.95,0.83,1.21c2.67,5.24,5.6,8.18,8.16,8.54c1.66,0.09,2.36-0.56,2.73-2.35l2.03-9.57
		c0.22-0.66,0.21-1.33,0.91-1.27C250.86,538.83,251.17,539.3,251.72,539.79z"/>
	
		<path id="TE" onmouseover="parent.PanelMouseOver('trailing_edge')" onmouseout="parent.PanelMouseOut('trailing_edge')" opacity="0.84" fill="#919191" stroke="#000000" stroke-width="0.25" stroke-miterlimit="10" d="
		M165.47,783.54l-8.61-11.11l4.37-14.72l95.33-136.17l3.09-8.42L79.12,283.4l-33.38-82.86l0.48-61.03c0,0-20.2,14.31-20.2,56.61
		c0,0,16.73,39.37,22.57,81.94c0,0,32.63,50.63,43.58,77.89c0,0,17.9,23.37,37.93,64.26c0,0,9.46,6.95,30.04,48.96
		c0,0,11.96,13.91,25.32,42.84c0,0,11.41,12.1,23.53,39.34c0,0,9.67,12.94,17.99,31.32c0,0,13.01,17.45,15.51,31.44l-1.28,6.46
		c0,0-4.47,11.13-14.23,25.81c0,0-7.43,12.5-14.82,20.65c0,0-4.55,9.01-15.08,21.05c0,0-5.11,9.21-13.36,18.72
		c0,0-3.04,6.93-12.5,18.07c0,0-5.52,8.91-12.4,16.29c0,0-2.88,7.29-10.12,15.89c0,0,2.68,9.51,0.76,14.52
		C149.47,771.57,153.12,777.21,165.47,783.54z"/>
	<polygon fill="#FFFFFF" stroke="#000000" stroke-width="0.25" stroke-miterlimit="10" points="243.66,613.33 271.28,613.33 
		273.2,620.05 243.66,621.43 	"/>
	<polygon fill="#C9C9C9" stroke="#000000" stroke-width="0.25" stroke-miterlimit="10" points="243.66,614.4 191.83,615.25 
		191.83,620.47 243.66,619.41 	"/>
	<path fill="#C9C9C9" stroke="#000000" stroke-width="0.25" stroke-miterlimit="10" d="M272.77,618.55l28.37,0.53
		c0,0-0.32-2.56-3.95-3.2c-3.63-0.64-25.61-1.49-25.61-1.49L272.77,618.55z"/>
	<path fill="#FFFFFF" stroke="#000000" stroke-width="0.25" stroke-miterlimit="10" d="M292.77,623.91c2.93,4.54,4.64,0,4.64,0
		v-8.18l-4.64-0.5V623.91z"/>
	<path fill="#C9C9C9" stroke="#000000" stroke-width="0.25" stroke-miterlimit="10" d="M281.76,658.67l19.66,122.5
		c0,0,0.64,6.26,2.13,9.6c1.49,3.34,3.06,2.49,3.06,2.49l15.78-54.46v-5.05l-40.81-116.02l-4.69,1.28h-1.49l4.72,29.4l3.49-7.17
		l-1.1-6.38l35.05,100.88c0,0,0.61,0.85,1.25,0.4l-12.29,48.23l-21.25-132.89L281.76,658.67z"/>
	<path id="battens_bottom" onmouseover="parent.PanelMouseOver('battens')" onmouseout="parent.PanelMouseOut('battens')" d="
		M45.74,200.54l0.48,1.2l-10.75-1.6l-1.83-4.17l12.1,1.67V200.54z M79.12,283.4l-1.36-3.37l-20.6-1.25l1.61,3.93l20.65,1.26
		L79.12,283.4z M118.22,354.82H98.58l1.71,3.16h19.66L118.22,354.82z M153.39,419.05h-16.31l0.43,2.37h17.17L153.39,419.05z
		 M179.79,467.26h-15.82l1.56,2.13h15.43L179.79,467.26z M190.68,513.17h14.25l-1.21-2.21h-13.99L190.68,513.17z M214.71,553.41
		h12.25l-1.26-2.3l-12.29-0.3L214.71,553.41z M231.39,581.24l1.04,1.9h10.81l-1.04-1.9H231.39z M245.48,608.47h11.63l-1.01-1.85
		h-11.22L245.48,608.47z M245.23,622.72l10.21,0.43l1.13-1.61l-11.68-0.16L245.23,622.72z M230.33,647.2h8.27l1.15-1.64
		c0,0-8.82,0-8.94,0L230.33,647.2z M215.49,668.36h8.3l1.26-1.79h-8.83L215.49,668.36z M201.02,688.43h8.71l1.29-1.84h-9.62
		L201.02,688.43z M197.84,705.41h-10.29l-0.97,1.71h10.06L197.84,705.41z M174.18,725.14h9.86l1.19-1.7h-10.64L174.18,725.14z
		 M161.46,741.76h10.94l1.19-1.7h-11.44L161.46,741.76z M151.47,757.54l9.76,0.17l1.11-1.59h-11.32L151.47,757.54z M157.27,771.04
		c-0.03,0.1-6.7-0.2-6.7-0.2s-0.3,0.72-0.12,0.79s6.52,0.4,6.52,0.4L157.27,771.04z"/>
</g>
<g id="trike">
	<ellipse stroke="#000000" stroke-width="0.25" stroke-miterlimit="10" cx="237.57" cy="832.29" rx="12.5" ry="12.64"/>
	
		<path id="trike_frame" onmouseover="parent.PanelMouseOver(this.id)" onmouseout="parent.PanelMouseOut(this.id)" fill="#FFFF00" stroke="#000000" stroke-width="0.25" stroke-miterlimit="10" d="
		M243.15,725.32l41.11-85.41l2.76,7.96l-39.35,80.86l0.5-2.34c0,0,0.17-1.9-1.56-2.18c-1.73-0.28-2.23,0.22-3.74,2.79L243.15,725.32
		z M292.77,623.91v-1.48l-5.54,11.37l2.78,7.92l7.4-15.19v-2.62C297.42,623.91,295.7,628.45,292.77,623.91z M245.9,799.73l4.2,11.23
		l27.45,10.11l2.62-0.08l-17.91-32.7l-16.35-2.49V799.73z M395.38,813.64l-55.4,11.88l-11.04-1.61l-1.4,2.65l-10.2-8.31l-2.31,2.79
		l10.9,8.85l-1.82,6.03l26.2-5.24c16.56,2.65,22.91,13.34,23.68,14.04c0.77,0.7,1.19,0,1.19,0c-2.38-13.69,11.04-19.49,11.04-19.49
		v-1.82l12.02-2.86l-1.26-5.8L395.38,813.64z M297.36,836.07v-7.42l-63.35-22.95l-2.47,6.48l2.67,0.97l-0.04-1.94l4.02,1.64
		l0.04,1.76l46.45,16.86l3.56-1.22l-0.65,2.28L297.36,836.07z M288.23,830.23L257,840.96v1.68l-11.71,4.29l2.02,1.89l16.76-5.53
		v-2.08l23.51-8.69L288.23,830.23z M277.15,828.73l-20.25-0.18l-0.54,0.7l-16.3,0.07v1.9h22.04l0.93-0.74c0,0,19.34,0.15,19.65,0.26
		L277.15,828.73z M234.86,843.89h3.95l-0.62-31.04l-4.02-1.64L234.86,843.89z M245.36,809.81l-1.54-60.99h-5.46l0.76,58.73
		L245.36,809.81z M275.12,782.47l-18.33-16.12l-2.83,2.09l15.75,14.27l3.81,2.46L275.12,782.47z M248.18,758.11l-4.23-4.31
		c0,0,0.08,3.2,0.09,3.57c0.01,0.37,2.42,2.34,2.42,2.34L248.18,758.11z M391.67,814.43l2.59-0.56l-97.3-186.41l-1.34,2.76
		L391.67,814.43z"/>
	<circle stroke="#000000" stroke-width="0.25" stroke-miterlimit="10" cx="253.43" cy="778.54" r="8.46"/>
	<ellipse stroke="#000000" stroke-width="0.25" stroke-miterlimit="10" cx="389.1" cy="841.03" rx="12.64" ry="13.41"/>
	<ellipse stroke="#000000" stroke-width="0.25" stroke-miterlimit="10" cx="236.45" cy="859.47" rx="14.88" ry="15.58"/>
	<path stroke="#000000" stroke-width="0.25" stroke-miterlimit="10" d="M288.23,830.23c0,0,0.3-2.72,0.6-2.8s5.82,1.4,5.82,1.4
		l-0.45,3.45l-6.62,0.23"/>
	<rect x="232.96" y="794.47" stroke="#000000" stroke-width="0.25" stroke-miterlimit="10" width="5.47" height="10.2"/>
	<path stroke="#000000" stroke-width="0.25" stroke-miterlimit="10" d="M234.56,806.05l3.63,1.46v3.45c0,0-1.35,2.49-2.84-0.39
		L234.56,806.05z"/>
	<path stroke="#000000" stroke-width="0.25" stroke-miterlimit="10" d="M247.67,728.73l0.5-2.34c0,0,0.17-1.9-1.56-2.18
		c-1.73-0.28-2.23,0.22-3.74,2.79l-3.94,8.96c0,0-0.64,12.65-0.57,12.87s0,2.84,2.13,2.91c2.13,0.07,2.77-2.35,2.77-2.35
		L247.67,728.73z"/>
	<path stroke="#000000" stroke-width="0.25" stroke-miterlimit="10" d="M240.06,800.15v14.64l6.48,2.64c0,0,3.2,0.59,2.69-2.43
		l-0.24-2.72l-4.19-12.13H240.06z"/>
	<path fill="#414042" stroke="#000000" stroke-width="0.25" stroke-miterlimit="10" d="M299.12,849.65c0,0,17.29,1.09,25.01-13.73
		l1.82-6.03l-10.9-8.85l2.31-2.79l10.2,8.31l1.4-2.65l2.16-6.43l-0.62-3.04l-4.43-6.25c0,0-1.72-0.69-5.41,0.82l-6.15,0.81
		l-51.47-44.08l-12.39-7.63h-2.46l-1.73,1.6l7.51,8.74l2.83-2.09l18.33,16.12l-1.6,2.71l-3.81-2.46c0,0,4.05,20.94,10.45,28.49
		s9.6,9.28,17.72,13.34l-0.53,4.1v7.42v4.97L299.12,849.65z"/>
	<path stroke="#000000" stroke-width="0.25" stroke-miterlimit="10" d="M392.6,828.14c0,0,2.96-0.72,0.88-3.98
		c-1.93-3.03-1.73-2.49-1.73-2.49l-1.17-0.25l-0.41-4.02l-0.56-2.97l-3.05-3.84h-1.68l0.76,4.27l3,3.41l0.1,9.36L392.6,828.14z"/>
	<path stroke="#000000" stroke-width="0.25" stroke-miterlimit="10" d="M211.21,728.73c0,0-2.87,17.04-2.87,18.47
		c0,1.43,1.43,4.55,1.43,4.55l-0.44,8.69l-2.32,5.91l-0.44,22.11c0,0,2.98-1.21,4.63-26.26l1.99-21.63
		C213.2,740.58,213.31,731,211.21,728.73z"/>
	<path stroke="#000000" stroke-width="0.25" stroke-miterlimit="10" d="M243.27,758.6v6.81h-2.37v13.14h2.37v4.62h-6.78v-4.62h-4.95
		l-1.13,5.62c0,0-0.87,7.61-5.34,6.07c0,0-5.36,1.1-5.58,0.66c-0.22-0.44-4.63-0.66-4.08-9.05c0.55-8.39-0.77-10.92-0.77-10.92
		l-2.1-0.22v-8.94l-1.27-0.13l1.07-11.68h4.28l1.88-10.93c0,0,0-6.07,5.85-6.07s5.85,4.98,5.85,4.98l1.88,2.41l0.89,17.75
		L243.27,758.6z"/>
</g>
</svg>
