<?xml version="1.0" encoding="UTF-8" standalone="no"?>
<!DOCTYPE svg PUBLIC "-//W3C//DTD SVG 1.1//EN" "http://www.w3.org/Graphics/SVG/1.1/DTD/svg11.dtd">
<svg viewBox="0 0 910 430" version="1.1" xmlns="http://www.w3.org/2000/svg" xmlns:xlink="http://www.w3.org/1999/xlink" xml:space="preserve" preserveAspectRatio="xMinYMid meet">
    <g id="bottom_view">
        <path id="lein_bv" d="M823.886,385.191c0.087,-1.44 0.564,-3.154 1.789,-3.509c-1.496,-0.759 -7.743,-3.63 -12.979,-5.345c-9.821,-3.221 -47.755,-15.7 -54.771,-17.884c-8.211,-2.875 -79.394,-25.289 -89.805,-28.368c-81.311,-24.047 -157.286,-47.184 -184.545,-54.885c-25.795,-7.29 -41.158,-11.241 -92.451,-26.32c-32.108,-8.624 -51.862,-13.891 -92.942,-25.715c-19.825,-5.706 -39.724,-11.151 -59.586,-16.726c-17.732,-5.063 -35.384,-10.401 -53.113,-15.462l-0.172,-0.392c-3.384,-1.085 -6.383,-2.065 -10.557,-2.948c-3.863,-0.817 -6.122,-1.434 -10.781,-1.84c-0.622,-0.056 -3.23,-0.191 -4.715,0.613c-1.358,0.734 -2.328,1.908 -2.733,2.382c-2.287,2.679 -5.316,6.552 -8.106,10.407c-30.815,30.055 -61.556,58.393 -86.998,83.937c-11.654,11.701 -43.805,43.993 -54.273,66.776c-0.056,0.122 -0.077,0.235 -0.091,0.303c-0.141,0.631 6.486,4.004 6.485,4.004c8.575,-9.376 15.903,-17.25 21.603,-23.328c7.114,-7.583 11.312,-11.963 16.491,-17.072c1.117,-1.101 4.948,-4.872 10.087,-9.7c2.77,-2.602 5.855,-5.5 9.506,-8.73c4.084,-3.612 5.879,-4.988 13.774,-11.446c11.674,-9.548 10.434,-8.737 16.491,-13.58c7.473,-5.977 8.769,-6.741 14.743,-11.639c5.168,-4.239 9.296,-7.848 12.028,-10.283c6.907,-5.291 13.896,-10.785 20.953,-16.49c5.297,-4.284 10.441,-8.589 15.519,-12.804c5.112,-4.242 14.314,-11.695 21.761,-16.305c0,0 40.179,10.826 53.543,14.538c22.035,6.121 40.264,11.434 87.941,25.177c75.766,21.839 100.7,28.819 160.986,46.453c57.083,16.695 132.285,38.232 213.468,63.472c60.297,18.747 121.935,38.072 121.935,38.072c0,0 -0.626,-3.046 -0.485,-5.363" style="fill:#808080;fill-rule:nonzero;"/>
        <path id="winglets_bv" d="M31.211,362.511c0,0 -5.821,-0.933 -7.548,-1.694c-2.461,-1.084 -4.803,-2.192 -7.026,-3.308c-1.263,-0.658 -2.594,-1.414 -3.966,-2.28c-1.887,-1.19 -3.556,-2.403 -5.017,-3.569c-0.403,-0.489 -0.733,-0.906 -0.599,-1.427c-0.004,0.012 0,0.103 0.13,0.227c1.229,1.174 6.354,3.758 6.354,3.758l17.672,8.293Zm798.202,43.353c0,0 3.3,0.008 3.522,0c11.238,-0.402 11.156,-2.028 10.636,-4.908c-0.25,-1.374 -3.067,-9.696 -6.904,-12.743c-3.672,-2.915 -8.18,-5.181 -10.992,-6.531c-5.046,2.152 1.192,17.129 3.738,24.182Z" style="fill-rule:nonzero;stroke:#000;stroke-width:0.5px;"/>
        <path id="top_surface_bv" onmouseover="parent.PanelMouseOver('top_surface')" onmouseout="parent.PanelMouseOut('top_surface')" onmousedown="parent.PanelClick('top_surface', evt)" d="M78.375,289.129l-2.675,2.416c-0.544,0.453 -1.142,0.958 -1.797,1.516c-0.837,0.714 -1.69,1.456 -2.677,2.329c-3.651,3.23 -6.736,6.126 -9.506,8.73c-5.14,4.828 -8.971,8.598 -10.088,9.699c-4.458,4.398 -8.189,8.256 -13.679,14.082c-0.887,0.942 -1.821,1.935 -2.811,2.991c-5.701,6.078 -21.603,23.326 -21.603,23.326l16.939,7.949l0.733,0.344l26.316,0.696l21.106,-3.839c0,0 125.137,-43.301 159.129,-53.556c7.554,-2.279 8.072,-2.504 15.873,-3.687c3.343,-0.507 10.822,-0.103 15.513,-0.12c5.25,-0.02 9.175,0.049 12.174,0.437c7.862,1.018 8.811,1.004 17.081,2.532c3.724,0.687 9.221,1.834 13.265,2.676c5.505,1.148 396.396,83.82 396.396,83.82c0,0 16.046,2.365 33.592,5.417c13.196,2.295 23.972,4.373 31.063,5.779c9.275,0.312 18.728,0.729 28.354,1.264c9.715,0.541 19.018,1.207 28.351,1.935c-0.288,-0.416 -5.293,-15.193 -5.053,-15.311c-33.931,-10.773 -61.641,-19.325 -121.938,-38.072c-81.183,-25.24 -156.385,-46.776 -213.468,-63.472c-1.929,-0.565 -7.129,-2.071 -14.728,-4.267c0.166,0.048 -72.971,-20.997 -146.481,-42.186c-47.676,-13.742 -65.905,-19.055 -87.94,-25.177c-13.365,-3.711 -53.544,-14.537 -53.544,-14.537c-7.445,4.608 -16.648,12.062 -21.76,16.303c-5.078,4.216 -10.223,8.521 -15.521,12.804c-7.055,5.707 -14.044,11.2 -20.951,16.492c-2.731,2.434 -6.86,6.043 -12.028,10.28c-5.973,4.899 -7.271,5.665 -14.744,11.642c-6.056,4.843 -4.817,4.032 -16.489,13.58c-2.619,2.14 -4.563,3.722 -6.146,5.012" style="fill-opacity:0.45; fill:#000;"/>
        <path id="rf1_bv" d="M186.498,202.842c10.873,2.96 20.793,5.623 31.666,8.583c8.289,10.053 17.058,21.396 27.321,35.654c13.506,18.764 25.912,37.495 37.684,55.6c-4.626,-0.752 -9.533,-0.713 -14.901,-0.81c-5.611,-0.1 -12.218,-0.269 -16.056,0.39c-10.47,-15.747 -22.128,-31.961 -34.584,-48.811c-13.333,-18.035 -22.976,-29.94 -37.202,-46.428c2.024,-1.392 4.048,-2.785 6.072,-4.178" style="fill:#f00;fill-rule:nonzero;"/>
        <path id="te_rf_bv" d="M579.852,364.354c70.977,15.011 128.212,27.116 128.212,27.116c0,0 16.046,2.365 33.592,5.417c13.196,2.295 23.972,4.373 31.063,5.779c9.275,0.312 18.728,0.729 28.354,1.264c9.715,0.541 19.018,1.207 28.351,1.935l0,-0.001l-1.49,-4.004l-55.776,-5.59l-63.309,-8.85l-125.746,-25.718l-3.369,2.628l0.118,0.024Zm-457.304,-20.094c-25.062,8.584 -43.915,15.108 -43.915,15.108l-21.106,3.839l-26.316,-0.696l-0.733,-0.344l0.113,0.053c-1.273,-0.602 -3.842,-1.803 -3.842,-1.803l24.959,-0.827l21.704,-3.221l42.883,-14.111l6.253,2.002Zm397.356,7.417c2.482,0.524 4.961,1.049 7.437,1.572l0.02,0.005l-4.611,-5.209l-2.986,3.602l0.14,0.03Zm-397.356,-7.417l0,0l0,0l0,0Zm353.637,-1.829l0.109,0.023l-0.109,-0.023c0,0 -6.315,-1.335 -6.315,-1.335l2.354,-3.661l3.961,4.996Zm-6.315,-1.335l0,0l-0.011,-0.003l0.011,0.003Zm-326.873,-3.824c-1.879,0.64 -3.743,1.277 -5.59,1.907l0.08,-0.027l-0.782,-4.975l6.203,3.125l0.089,-0.03Zm11.524,-3.923c1.812,-0.616 3.628,-1.233 5.446,-1.85l-0.066,0.023l-6.476,-3.138l1.173,4.939l-0.077,0.026Zm274.057,-0.985l0.076,0.016l-0.076,-0.016l0,0l-5.966,-1.261l-0.013,-0.003l2.091,-3.633l3.888,4.897Zm-250.511,-6.987c-1.913,0.645 -3.838,1.294 -5.77,1.947l-0.03,0.01l-0.808,-5.171l6.641,3.203l-0.033,0.011Zm208.199,-1.96l0.103,0.022l-0.103,-0.022l0,0l-5.79,-1.224l-0.059,-0.012l1.982,-3.564l3.867,4.8Zm-195.286,-2.379c1.888,-0.632 3.754,-1.256 5.593,-1.87l0.027,-0.009l-6.659,-3.33l1.008,5.219l0.031,-0.01Zm155.786,-5.972l0.082,0.018l-0.082,-0.018l0,0l-5.361,-1.133l-0.074,-0.016l1.699,-3.514l3.736,4.663Zm-130.451,-2.428c-2.155,0.705 -4.393,1.44 -6.702,2.202l-0.005,0.002l-0.222,-5.596l6.921,3.395l0.008,-0.003Zm5.635,-13.382l31.152,-7.07l55.271,7.98l6.851,8.234l0.095,0.02c-2.125,-0.448 -3.375,-0.712 -3.651,-0.77c-4.044,-0.842 -9.541,-1.989 -13.265,-2.676c-8.27,-1.528 -9.219,-1.514 -17.081,-2.532c-2.999,-0.388 -6.924,-0.457 -12.174,-0.437c-4.691,0.017 -12.17,-0.387 -15.513,0.12c-7.801,1.183 -8.319,1.408 -15.873,3.687c-4.074,1.23 -9.459,2.934 -15.78,4.981l-0.026,0.009l-0.006,-11.546Zm0,0l0,-0.001l0,0.001Z" style="fill:#fff;fill-opacity:0.701961;"/>
        <path id="ribs_bv" d="M760.188,373.584c2.788,5.231 5.577,10.463 8.366,15.696c0.235,-0.089 0.469,-0.177 0.703,-0.265c-0.663,-3.121 -1.327,-6.243 -1.99,-9.364c-2.36,-2.023 -4.72,-4.045 -7.079,-6.067Zm-70.137,-19.244c4.166,7.451 8.332,14.903 12.497,22.354c0.562,-0.166 1.124,-0.332 1.686,-0.497c-0.779,-2.501 -1.613,-5.055 -2.508,-7.656c-0.77,-2.238 -1.554,-4.42 -2.347,-6.545c-3.109,-2.551 -6.219,-5.103 -9.328,-7.656Zm-75.78,-21.244c7.745,9.462 15.489,18.922 23.233,28.382c0.66,-0.242 1.32,-0.484 1.981,-0.726c-2.509,-6.05 -5.017,-12.101 -7.525,-18.151c-5.896,-3.168 -11.793,-6.336 -17.689,-9.505Zm-594.124,11.074c4.187,1.945 8.413,3.946 12.679,6.007c4.324,2.087 8.576,4.182 12.757,6.279c0.301,-0.484 0.601,-0.967 0.902,-1.451c-2.58,-2.14 -5.455,-4.351 -8.635,-6.556c-2.779,-1.928 -5.477,-3.634 -8.046,-5.142c-3.219,0.287 -6.438,0.576 -9.657,0.863Zm8.063,-9.081c11.318,4.637 22.638,9.273 33.956,13.91c0.324,-0.567 0.648,-1.133 0.973,-1.701c-3.798,-2.836 -7.786,-5.699 -11.968,-8.565c-3.456,-2.369 -6.862,-4.614 -10.205,-6.742c-4.252,1.032 -8.504,2.065 -12.756,3.098Zm513.86,-24.944c10.151,11.562 20.301,23.122 30.453,34.684c0.815,-0.221 1.629,-0.439 2.444,-0.658c-1.288,-3.364 -7.478,-17.814 -9.143,-21.305c-7.917,-4.24 -15.837,-8.48 -23.754,-12.721Zm-503.048,11.944c14.802,6.622 29.604,13.243 44.405,19.864l1.094,-1.944c-5.373,-4.479 -11.299,-9.078 -17.798,-13.667c-4.91,-3.466 -9.705,-6.616 -14.336,-9.476c-4.456,1.741 -8.91,3.482 -13.365,5.223Zm12.514,-13.971c14.599,7.33 29.198,14.66 43.797,21.99c0.85,-1.701 1.7,-3.402 2.551,-5.103c-4.314,-3.835 -9.027,-7.77 -14.153,-11.724c-4.17,-3.215 -8.254,-6.165 -12.21,-8.868c-6.662,1.234 -13.323,2.47 -19.985,3.705Zm432.763,-4.699c7.29,7.956 14.58,15.913 21.871,23.869c1.11,-0.814 2.221,-1.628 3.33,-2.442c-2.51,-5.345 -5.207,-10.829 -8.104,-16.431c-3.023,-5.841 -6.066,-11.429 -9.104,-16.764c-2.664,3.923 -5.328,7.845 -7.993,11.768Zm-400.629,1.54c9.963,5.245 19.924,10.489 29.887,15.733c1.174,-1.842 2.348,-3.685 3.523,-5.528c-4.405,-4.065 -9.02,-8.182 -13.85,-12.331c-5.308,-4.559 -10.541,-8.868 -15.672,-12.939c-1.296,5.022 -2.592,10.043 -3.888,15.065Zm299.663,-25.42c8.453,9.481 16.905,18.963 25.358,28.446c1.336,-0.976 2.673,-1.952 4.009,-2.927c-2.803,-5.931 -5.847,-12.047 -9.156,-18.314c-3.383,-6.402 -6.793,-12.489 -10.187,-18.259c-3.341,3.685 -6.682,7.369 -10.024,11.054Zm-261.515,5.253c10.063,7.552 20.126,15.105 30.19,22.657c1.175,-1.478 2.349,-2.955 3.523,-4.433c-3.57,-4.219 -7.313,-8.497 -11.237,-12.817c-5.754,-6.336 -11.463,-12.285 -17.069,-17.86c-1.803,4.152 -3.605,8.302 -5.407,12.453Z" style="fill:#f00;"/>
        <path id="battens_top_bv" d="M762.695,365.056c0.095,-0.109 0.216,-0.201 0.355,-0.266c0.576,-0.271 1.264,0.007 1.487,0.605c2.279,6.169 8.591,35.277 8.705,35.818l-2.333,-0.523c-1.448,-6.599 -6.573,-29.591 -8.419,-34.534c-0.144,-0.388 -0.053,-0.808 0.205,-1.1Zm-70.775,-24.718c-0.092,-0.159 -0.183,-0.311 -0.273,-0.458c-0.324,-0.531 -1.028,-0.678 -1.535,-0.319c-0.137,0.097 -0.243,0.22 -0.319,0.358c-0.18,0.327 -0.18,0.739 0.028,1.078c5.329,8.671 14.713,39.512 17.364,48.41l2.452,0.668c-1.861,-6.334 -11.76,-39.472 -17.717,-49.737Zm-69.7,-20.282c-0.153,-0.238 -0.304,-0.468 -0.454,-0.689c-0.33,-0.491 -1.006,-0.604 -1.483,-0.256c-0.459,0.333 -0.568,0.968 -0.25,1.439c7.388,10.938 20.217,46.022 23.643,55.397l2.641,0.559c-2.285,-6.337 -15.909,-43.732 -24.097,-56.45Zm-71.449,-22.405c0.011,-0.012 0.021,-0.023 0.032,-0.034c0.417,-0.418 1.098,-0.397 1.493,0.042c10.568,11.734 28.709,58.545 31.402,65.592l-3.047,-0.774c-4.083,-10.485 -20.322,-52.851 -29.88,-63.441c-0.357,-0.396 -0.357,-0.995 0,-1.385Zm-495.219,63.459l-1.956,0c-20.276,-16.433 -28.638,-19.901 -32.101,-21.415c-0.304,-0.133 -0.448,-0.484 -0.322,-0.792c0.131,-0.319 0.494,-0.468 0.807,-0.333c2.42,1.048 6.509,3.157 12.893,7.381c6.746,4.462 12.217,8.247 20.679,15.159Zm19.354,-3.525c-3.223,-2.641 -30.148,-24.538 -44.741,-30.346c-0.348,-0.139 -0.52,-0.522 -0.388,-0.872c0.134,-0.359 0.532,-0.545 0.887,-0.404c14.798,5.893 42.388,28.385 45.627,31.04l-1.385,0.582Zm408.319,-79.468c0.019,-0.024 0.039,-0.05 0.06,-0.073c0.404,-0.448 1.106,-0.44 1.502,0.015c7.815,9.019 35.446,64.818 39.213,72.528l-2.944,-0.658c-5.577,-11.351 -30.812,-62.679 -37.779,-70.555c-0.316,-0.356 -0.332,-0.881 -0.052,-1.257Zm-385.954,71.647c0,0 -10.515,-8.97 -20.433,-16.633c-15.935,-12.314 -27.293,-19.405 -33.781,-21.095c-0.364,-0.094 -0.732,0.131 -0.81,0.498c-0.074,0.346 0.14,0.684 0.483,0.772c13.536,3.521 45.377,30.523 53.058,37.105l1.483,-0.647Zm21.903,-6.696c-2.953,-2.738 -13.724,-12.611 -25.312,-22.256c-17.739,-14.766 -30.116,-23.052 -36.814,-24.646c-0.379,-0.091 -0.755,0.157 -0.823,0.542c-0.063,0.351 0.158,0.692 0.505,0.775c14.208,3.355 53.525,39.187 61.073,46.163l1.371,-0.578Zm354.19,-3.274c-3.79,-7.884 -30.929,-63.719 -38.771,-73.813c-0.352,-0.454 -1.016,-0.509 -1.439,-0.12c-0.376,0.346 -0.426,0.924 -0.111,1.326c7.147,9.114 32.048,60.704 37.452,71.905l2.869,0.702Zm-401.678,-59.884c-0.074,0.313 0.07,0.647 0.367,0.803c19.074,10.003 59.069,48.072 66.624,55.356l1.483,-0.535c-2.444,-2.368 -13.172,-12.656 -25.812,-23.909c-18.797,-16.739 -32.796,-27.563 -41.626,-32.191c-0.356,-0.188 -0.796,-0.044 -0.978,0.315c-0.026,0.052 -0.045,0.106 -0.058,0.161Zm85.221,50.075c-5.26,-5.56 -49.203,-51.842 -68.782,-66.944c-0.327,-0.252 -0.797,-0.188 -1.046,0.141c-0.246,0.326 -0.185,0.788 0.138,1.037c18.835,14.525 60.7,58.348 68.193,66.252l1.497,-0.486Zm223.449,-79.802c-0.254,0.36 -0.232,0.858 0.075,1.197c12.387,13.695 37.883,66.914 43.044,77.808l2.269,0.503c-1.511,-3.187 -8.802,-18.664 -16.802,-34.241c-12.145,-23.647 -21.251,-38.896 -27.086,-45.362c-0.365,-0.403 -0.99,-0.421 -1.381,-0.044c-0.045,0.044 -0.084,0.089 -0.119,0.139Zm-205.268,73.84c-2.627,-3.061 -14.806,-17.163 -29.167,-32.856c-21.032,-22.982 -35.81,-37.388 -43.948,-42.844c-0.359,-0.241 -0.842,-0.141 -1.074,0.222c-0.222,0.35 -0.128,0.814 0.216,1.045c17.865,11.98 64.754,66.071 72.382,74.934l1.591,-0.501Zm208.294,-3.577c-4.354,-8.119 -36.845,-68.416 -47.643,-81.658c-0.353,-0.432 -0.995,-0.483 -1.415,-0.114c-0.359,0.317 -0.404,0.86 -0.1,1.23c9.997,12.175 40.491,68.415 46.787,80.104l2.371,0.438Zm-189.675,-2.37l-1.604,0.5c-7.528,-9.599 -55.466,-70.311 -73.821,-84.007c-0.343,-0.254 -0.415,-0.737 -0.168,-1.085c0.257,-0.36 0.759,-0.437 1.114,-0.173c8.333,6.218 23.414,22.4 44.852,48.132c14.669,17.606 27.004,33.279 29.627,36.633Zm92.186,-94.501c0.041,-0.064 0.084,-0.12 0.124,-0.164c0.225,-0.245 0.706,-0.516 1.244,-0.058c6.237,5.308 17.788,22.243 34.528,50.3c11.148,18.684 20.57,35.527 22.509,39.025l-2.277,-0.34c-6.659,-11.973 -42.736,-76.167 -55.942,-87.581c-0.497,-0.43 -0.37,-0.896 -0.186,-1.182Zm-72.458,88.355c-6.471,-8.433 -64.505,-83.887 -77.357,-93.349c-0.382,-0.28 -0.922,-0.175 -1.169,0.229c-0.219,0.361 -0.124,0.828 0.217,1.076c12.054,8.771 68.583,81.968 76.68,92.497l1.629,-0.453Zm-59.923,-106.706c-0.063,-0.045 -0.126,-0.089 -0.187,-0.13c-0.42,-0.283 -0.994,-0.132 -1.213,0.326c-0.178,0.375 -0.051,0.821 0.296,1.049c3.661,2.418 14.33,13.76 43.524,51.939c16.162,21.136 35.666,47.865 35.666,47.865l1.707,-0.536c0,0 -19.142,-26.222 -36.051,-48.336c-23.5,-30.731 -38.195,-48.259 -43.742,-52.177Zm92.002,6.567c-0.229,-0.182 -0.455,-0.357 -0.677,-0.522c-0.405,-0.303 -0.983,-0.206 -1.271,0.211c-0.274,0.397 -0.184,0.938 0.202,1.228c8.11,6.077 22.175,24.262 40.774,52.733c11.706,17.919 21.736,34.672 25.02,40.216l2.364,0.475c-2.137,-3.632 -13.034,-22.003 -25.879,-41.666c-18.47,-28.273 -32.091,-45.973 -40.533,-52.675Zm-41.785,-11.743c0.091,-0.179 0.178,-0.354 0.178,-0.354c0.117,-0.232 0.403,-0.323 0.63,-0.197c7.42,4.14 22.553,22.466 44.998,54.491c15.389,21.959 29.293,43.363 31.584,46.921l-2.168,-0.134c-8.056,-12.435 -59.255,-90.807 -75.231,-99.73c-0.216,-0.121 -0.298,-0.388 -0.187,-0.608c0,0 0.099,-0.198 0.196,-0.389Zm50.314,100.608c-2.888,-4.232 -18.155,-26.377 -35.251,-49.484c-24.531,-33.155 -40.978,-52.136 -48.927,-56.466c-0.437,-0.238 -0.983,-0.054 -1.186,0.401c-0.183,0.409 -0.015,0.886 0.38,1.1c17.331,9.355 74.804,92.601 83.067,104.667l1.917,-0.218Z" style="fill:#f00;"/>
        <path id="cb_bv" d="M55.333,298.184c12.114,-4.167 158.833,-52.8 158.833,-52.8c0,0 5.014,-0.861 5.057,-0.864c1.108,-0.053 278.844,46.231 285.049,47.256c3.01,0.497 4.305,-4.11 1.271,-4.612c-51.417,-8.485 -286.419,-51.123 -287.865,-50.708c-0.281,0.081 -8.751,1.03 -8.751,1.03c0,0 -151.277,54.853 -154.865,56.087c-2.892,0.995 -1.65,5.616 1.271,4.611" style="fill-rule:nonzero;"/>
        <path id="keel_tube_bv" d="M159.837,196.947c0.281,0.294 190.422,199.908 190.457,199.945c2.057,2.163 5.337,-1.101 3.284,-3.26c-0.055,-0.058 -189.602,-199.561 -189.95,-199.926c-0.104,-0.109 -0.209,-0.22 -0.314,-0.328c-0.448,-0.472 -0.965,-0.671 -1.476,-0.671c-1.833,-0.001 -3.605,2.551 -2.001,4.24Z" style="fill:#EDEDED; stroke-width:0.4px; stroke:#000;"/>
        <path id="battens_bottom_bv" d="M419.046,275.439c-0.748,-0.887 -1.159,-1.373 -1.159,-1.373l-1.336,1.129l50.548,59.79l2.866,0.708c0,0 -43.238,-51.166 -50.919,-60.254Zm-269.889,52.531l-73.184,-44.448l0.612,-1.009l74.067,44.969l-1.495,0.488Zm227.996,-11.499l-61.184,-70.689l1.257,-1.088l62.58,72.387l-2.653,-0.61Zm-191.12,-0.976l-80.618,-61.096l0.766,-1.01l81.256,61.588l-1.404,0.518Zm120.296,-13.481l-77.937,-81.478l1.137,-1.088l79.393,83.175l-2.593,-0.609Zm-80.706,0.457l-88.217,-77.23l0.979,-1.12l88.886,77.801l-1.648,0.549Z" style="fill:#ff1900;"/>
        <path id="te_stroke_bv" d="M829.424,405.794l-120.641,-18.669c0,0 -416.704,-87.861 -430.291,-90.014c-8.928,-1.621 -14.236,1.992 -14.122,4.041c-2.832,-1.505 -17.232,-4.001 -37.992,2.461c-27.701,8.625 -153.068,52.6 -153.068,52.6c0,0 -35.737,5.707 -42.719,5.933" style="fill:none;stroke:#000;stroke-width:0.5px;"/>
        <g id="group_bottom_surface_odl_bv">
        <path id="line_rear_2_bv" onmouseover="parent.PanelMouseOver('line_rear_2')" onmouseout="parent.PanelMouseOut('line_rear_2')" onmousedown="parent.PanelClick('line_rear_2', evt)" d="M260.015,295.155l-5.868,-6.176c0,0 390.403,80.695 453.205,93.497l120.939,20.298l1.097,3.02l-120.605,-18.595c0,0 -416.704,-87.861 -430.291,-90.014c-8.928,-1.621 -14.236,1.993 -14.122,4.041c-2.832,-1.505 -17.232,-4.001 -37.992,2.461c-27.701,8.625 -153.068,52.6 -153.068,52.6c0,0 -35.737,5.707 -42.719,5.933c-1.273,-0.602 -3.842,-1.803 -3.842,-1.803l42.264,-7.553l179.037,-62.757l8.065,7.913l3.9,-2.865" style="fill:#ff4500;fill-rule:nonzero;"/>
        <path id="line_rear_1_bv" onmouseover="parent.PanelMouseOver('line_rear_1')" onmouseout="parent.PanelMouseOut('line_rear_1')" onmousedown="parent.PanelClick('line_rear_1', evt)" d="M828.271,402.771l-120.919,-20.295l-240.026,-49.518l-213.18,-43.979c0,0 -3.82,-3.556 -5.773,-3.309c-4.309,0.544 0,4.324 0,4.324l-179.361,62.87l-42.263,7.553l38.042,-10.786c0,0 177.322,-62.838 183.582,-65.182c13.131,2.301 457.708,93.919 457.708,93.919l122.19,24.403Z" style="fill:#fff;fill-rule:nonzero;"/>
        <path id="line_front_bv" onmouseover="parent.PanelMouseOver('line_front')" onmouseout="parent.PanelMouseOut('line_front')" onmousedown="parent.PanelClick('line_front', evt)" d="M695.62,354.799c-70.135,-19.977 -90.257,-26.258 -185.535,-54.619c-45.504,-13.545 -50.548,-14.719 -183.631,-53.199c-66.809,-19.318 -147.88,-42.863 -147.88,-42.863c0,0 -0.413,3.005 -0.579,4.217c13.735,4.001 116.382,33.399 149.729,43.616c32.352,9.913 153.366,43.947 362.007,104.433c58.266,16.892 105.905,29.394 135.491,37.479c-0.227,-0.88 -0.507,-1.838 -0.851,-3.309c-16.226,-4.506 -71.934,-19.571 -128.751,-35.755m-652.701,-29.147c-10.991,12.566 -19.605,23.557 -24.888,30.674c-1.512,-0.714 -2.978,-1.392 -4.489,-2.108c4.907,-6.516 13.233,-17.187 23.859,-29.584c22.575,-26.332 40.737,-42.877 83.362,-83.178c9.166,-8.666 37.729,-34.642 37.729,-34.642l6.187,3.227c0,0 -38.253,35.99 -51.258,47.725c-29.088,26.245 -47.38,41.445 -70.502,67.886" style="fill:#ff4500;fill-rule:nonzero;"/>
        <path id="bottom_surface_odl_bv" onmouseover="parent.PanelMouseOver('bottom_surface_odl')" onmouseout="parent.PanelMouseOut('bottom_surface_odl')" onmousedown="parent.PanelClick('bottom_surface_odl', evt)" d="M168.702,206.295c0.505,-1.54 123.333,34.721 159.022,45.656c32.351,9.913 153.366,43.948 362.008,104.433c58.264,16.891 105.904,29.394 135.49,37.478l3.049,8.909l-122.191,-24.403l-457.707,-93.919l-183.582,65.182l-38.042,10.786c0,0 -4.464,-2.079 -8.718,-4.091c5.284,-7.118 13.897,-18.109 24.887,-30.675c23.123,-26.439 41.488,-41.705 70.576,-67.95l55.208,-51.406Z" style="fill-opacity:0.39;fill-rule:nonzero;"/>
        </g>
        <g id="group_bottom_surface_standard_bv" display="none">
        <path id="rear_line_bv" onmouseover="parent.PanelMouseOver('rear_line')" onmouseout="parent.PanelMouseOut('rear_line')" onmousedown="parent.PanelClick('rear_line', evt)" d="M829.424,405.794l-120.641,-18.669c0,0 -416.704,-87.861 -430.291,-90.014c-8.928,-1.621 -14.236,1.992 -14.122,4.041c-2.832,-1.505 -17.232,-4.001 -37.992,2.461c-27.701,8.625 -153.068,52.6 -153.068,52.6c0,0 -35.737,5.707 -42.719,5.933c0,0 215.488,-78.324 215.488,-78.324l583.345,121.972Zm-572.516,-115.11l-7.154,-5.483c0,0 -1.9,-0.716 -3.36,0c-1.459,0.716 0,2.615 0,2.615l7.425,9.931c0,0 2.546,1.338 4.363,0c1.818,-1.337 -1.274,-7.063 -1.274,-7.063Z" style="fill:#ff4500;"/>
        <path id="middle_line_bv" onmouseover="parent.PanelMouseOver('middle_line')" onmouseout="parent.PanelMouseOut('middle_line')" onmousedown="parent.PanelClick('middle_line', evt)" d="M26.749,360.343l3.842,1.803l215.488,-78.324l583.345,121.972l-1.49,-4.009l-584.508,-120.937l-216.677,79.495" style="fill:#000;"/>
        <path id="bottom_surface_standard_bv" onmouseover="parent.PanelMouseOver('bottom_surface_standard')" onmouseout="parent.PanelMouseOut('bottom_surface_standard')" onmousedown="parent.PanelClick('bottom_surface_standard', evt)" d="M827.934,401.785l-584.508,-120.937l-216.677,79.495l-13.207,-6.198c8.543,-11.363 16.933,-21.605 23.799,-29.587c3.694,-4.295 10.764,-12.383 20.17,-22.234c6.766,-7.086 11.587,-11.78 19.672,-19.655c6.59,-6.415 9.664,-9.274 43.496,-41.266l0.025,-0.025c4.582,-4.332 34.072,-31.095 37.787,-34.638c4.144,2.436 8.278,4.215 8.278,4.215l5.951,-0.5l5.001,-0.201l0.853,-6.21c0,0 100.144,29.118 147.821,42.86c75.765,21.838 97.679,27.944 157.958,45.609c7.799,2.286 15.78,4.645 25.673,7.591c95.277,28.36 115.399,34.641 185.535,54.617c56.816,16.184 128.81,35.759 128.81,35.759c0.801,3.803 2.217,7.663 3.563,11.305" style="fill:#fff;"/>
        </g>
        <path id="keel_pocket_1_bv" d="M268.634,302.286c3.11,8.105 -0.215,9.837 -1.565,9.133c-4.785,-5.184 -8.464,-8.488 -13.25,-13.672c1.551,0.258 4.286,-2.158 3.089,-7.063l11.726,11.602Z" style="fill:#fff;fill-rule:nonzero;stroke:#000;stroke-width:0.28px;stroke-linejoin:miter;stroke-miterlimit:10;"/>
        <path id="keel_pocket_2_bv" d="M295.478,331.622c3.135,4.813 0.546,7.841 -2.193,6.397c-5.174,-5.157 -21.074,-21.567 -26.216,-26.6c2.443,0.182 3.974,-1.678 1.565,-9.133l26.844,29.336Z" style="fill:#fff;fill-rule:nonzero;stroke:#000;stroke-width:0.28px;stroke-linejoin:miter;stroke-miterlimit:10;"/>
        <path id="uprights_bv" onmouseover="parent.PanelMouseOver('uprights')" onmouseout="parent.PanelMouseOut('uprights')" d="M247.765,289.395l0.482,-3.731c1.034,-0.54 3.935,1.639 5.517,3.253l-15.837,126.364l-6.117,-2.414l15.279,-118.24l-122.437,112.512l-4.874,-4.622l126.282,-114.987l1.705,1.865Z" style="stroke:#000;stroke-width:0.4px;"/>
        <path id="l_corner_bv" d="M231.81,412.867c-0.239,1.502 -0.529,4.033 -1.717,4.596c-0.381,0.122 -0.401,0.139 -1.033,0.101c-2.769,-0.166 -2.013,3.524 0.093,3.775c0.569,0.069 4.191,0.087 5.061,0c2.082,-0.208 3.48,-4.181 3.731,-6.192c0.127,-1.012 -4.852,-3.045 -6.135,-2.28Z" style="fill:#EDEDED;stroke:#000;stroke-width:0.4px;"/>
        <path id="speedbar_bv" d="M164.991,409.423c-8.468,-0.59 -20.299,-1.294 -21.466,-1.264c-0.569,0.015 -1.091,0.174 -1.091,0.174c-0.286,0.085 -0.526,0.195 -0.72,0.298c-0.657,0.505 -1.313,1.009 -1.969,1.515c-0.064,0.069 -0.135,0.12 -0.209,0.152c-0.1,0.044 -0.19,0.042 -0.231,0.041c-2.838,-0.047 -4.393,-0.268 -4.393,-0.268c-0.659,-0.095 -11.503,-0.708 -11.694,-0.698c-3.369,0.204 -3.07,2.5 -1.059,2.626c7.437,0.466 10.654,0.704 20.574,0.878c0.074,0.002 0.151,-0.021 0.232,-0.041c0.349,-0.083 0.62,-0.242 0.809,-0.382c0.668,-0.547 1.214,-0.993 1.882,-1.539c0.065,-0.069 0.135,-0.119 0.209,-0.152c0,0 0.105,-0.044 0.23,-0.042c0.262,0.005 20.41,1.738 26.851,2.372c0.025,0.001 3.632,0.375 6.516,0.684c1.898,0.204 3.377,0.513 3.388,0.514c7.718,1.511 13.132,2.681 21.622,4.32c0.024,0.004 3.822,0.561 3.846,0.564c2.828,0.315 5.636,0.447 11.325,1.126c4.63,0.554 9.615,1.048 9.615,1.048c-2.388,-0.326 -2.626,-3.805 -0.366,-3.791c-8.874,-0.717 -13.189,-0.945 -21.318,-1.739c-0.019,-0.002 -3.357,-0.358 -3.375,-0.362l-19.557,-4.02c-0.03,-0.005 -4.421,-0.676 -4.488,-0.685c-3.484,-0.47 -5.941,-0.614 -6.487,-0.645c-0.587,-0.034 -7.367,-0.593 -8.676,-0.684" style="fill:#000;stroke:#000;stroke-width:0.4px;"/>
        <path id="r_corner_bv" d="M119.778,402.517c0,0 -2.204,1.675 -2.524,3.819c-0.692,4.634 2.595,5.663 4.904,5.663c-2.592,-0.571 -1.52,-2.421 0.857,-2.61c-0.092,-1.151 1.637,-2.25 1.637,-2.25l-4.874,-4.622Z" style="fill:#EDEDED;stroke:#000;stroke-width:0.4px;"/>
        <path id="tail_bv" d="M339.426,378.737l1.695,1.784c13.465,1.27 66.924,7.801 67.593,8.001c1.413,0.42 6.417,5.206 6.417,5.206l-65.752,-4.515l0.438,0.46c0,0 0.254,1.658 -0.995,2.105c-2.936,1.051 -5.843,-2.565 -5.843,-2.565l-48.413,-4.482l-3.455,-3.762c-0.54,-0.59 0.043,-1.469 0.943,-1.423l42.288,0.599c0,0 1.472,1.674 3.582,1.129c1.682,-0.434 1.772,-1.457 1.502,-2.537Z" style="fill:#fff;fill-rule:nonzero;stroke:#000;stroke-width:0.28px;stroke-linejoin:miter;stroke-miterlimit:10;"/>
        <path id="leading_edge_white_layer_bv" d="M823.886,385.191c0.087,-1.44 0.713,-3.073 1.789,-3.509c-1.496,-0.759 -7.743,-3.63 -12.979,-5.345c-9.821,-3.221 -47.755,-15.7 -54.771,-17.884c-8.211,-2.875 -79.394,-25.289 -89.805,-28.368c-81.311,-24.047 -157.286,-47.184 -184.545,-54.885c-25.795,-7.29 -41.158,-11.241 -92.451,-26.32c-32.108,-8.624 -51.862,-13.891 -92.942,-25.715c-19.825,-5.706 -39.724,-11.151 -59.586,-16.726c-17.732,-5.063 -35.384,-10.401 -53.113,-15.462l-0.172,-0.392c-3.384,-1.085 -6.383,-2.065 -10.557,-2.948c-3.863,-0.817 -6.122,-1.434 -10.781,-1.84c-0.622,-0.056 -3.23,-0.191 -4.715,0.613c-1.358,0.734 -2.328,1.908 -2.733,2.382c-2.287,2.679 -5.316,6.552 -8.106,10.407c-30.815,30.055 -61.556,58.393 -86.998,83.937c-11.654,11.701 -43.805,43.993 -54.273,66.776c-0.056,0.122 -0.077,0.235 -0.091,0.303c-0.141,0.631 6.486,4.004 6.485,4.004c8.543,-11.363 16.933,-21.605 23.8,-29.587c3.693,-4.295 10.763,-12.383 20.169,-22.234c6.766,-7.086 11.587,-11.78 19.672,-19.655c6.59,-6.415 9.664,-9.274 43.496,-41.266l0.025,-0.024c4.582,-4.333 34.072,-31.096 37.788,-34.639c4.143,2.437 8.278,4.215 8.278,4.215l5.95,-0.5l5.001,-0.201l0.853,-6.21c0,0 100.144,29.118 147.821,42.86c75.765,21.839 97.679,27.944 157.958,45.609c7.799,2.286 15.78,4.645 25.673,7.591c95.277,28.36 115.399,34.641 185.535,54.617c56.816,16.184 128.81,35.759 128.81,35.759c0,0 -0.626,-3.046 -0.485,-5.363" style="fill:#fff;fill-rule:nonzero;"/>
        <path id="leading_edge_bv" onmouseover="parent.PanelMouseOver('leading_edge')" onmouseout="parent.PanelMouseOut('leading_edge')" onmousedown="parent.PanelClick('leading_edge', evt)" d="M823.886,385.191c0.087,-1.44 0.713,-3.073 1.789,-3.509c-1.496,-0.759 -7.743,-3.63 -12.979,-5.345c-9.821,-3.221 -47.755,-15.7 -54.771,-17.884c-8.211,-2.875 -79.394,-25.289 -89.805,-28.368c-81.311,-24.047 -157.286,-47.184 -184.545,-54.885c-25.795,-7.29 -41.158,-11.241 -92.451,-26.32c-32.108,-8.624 -51.862,-13.891 -92.942,-25.715c-19.825,-5.706 -39.724,-11.151 -59.586,-16.726c-17.732,-5.063 -35.384,-10.401 -53.113,-15.462l-0.172,-0.392c-3.384,-1.085 -6.383,-2.065 -10.557,-2.948c-3.863,-0.817 -6.122,-1.434 -10.781,-1.84c-0.622,-0.056 -3.23,-0.191 -4.715,0.613c-1.358,0.734 -2.328,1.908 -2.733,2.382c-2.287,2.679 -5.316,6.552 -8.106,10.407c-30.815,30.055 -61.556,58.393 -86.998,83.937c-11.654,11.701 -43.805,43.993 -54.273,66.776c-0.056,0.122 -0.077,0.235 -0.091,0.303c-0.141,0.631 6.486,4.004 6.485,4.004c8.543,-11.363 16.933,-21.605 23.8,-29.587c3.693,-4.295 10.763,-12.383 20.169,-22.234c6.766,-7.086 11.587,-11.78 19.672,-19.655c6.59,-6.415 9.664,-9.274 43.496,-41.266l0.025,-0.024c4.582,-4.333 34.072,-31.096 37.788,-34.639c4.143,2.437 8.278,4.215 8.278,4.215l5.95,-0.5l5.001,-0.201l0.853,-6.21c0,0 100.144,29.118 147.821,42.86c75.765,21.839 97.679,27.944 157.958,45.609c7.799,2.286 15.78,4.645 25.673,7.591c95.277,28.36 115.399,34.641 185.535,54.617c56.816,16.184 128.81,35.759 128.81,35.759c0,0 -0.626,-3.046 -0.485,-5.363" style="fill-opacity:0.45;fill:#000;fill-rule:nonzero;stroke:#000;stroke-width:0.5px;"/>
    </g>
    <g id="top_view">
        <path id="le_in_tv" d="M477.011,20.597l-25.392,9.133l-183.681,69.153l-71.769,27.8l-54.3,23.662c150.083,-59.942 325.171,-117.622 325.171,-117.622l32.87,-11.649l81.182,21.845l171.851,52.047l68.009,21.987l72.504,26.077l2.362,-4.184l-56.915,-21.041l-55.313,-18.432l-99.112,-30.28l-147.372,-42.244l-35.411,-10.15l-10.948,-1.043l-13.736,4.941Z" style="fill:#fff;fill-rule:nonzero;stroke:#000;stroke-width:0.5px;stroke-linejoin:miter;stroke-miterlimit:10;"/>
        <g id="group_bottom_surface_standard_tv" display="none">
        <path id="middle_line_tv" d="M883.654,160.391l2.303,-4.081l-111.796,-25.93l-110.036,-24.224l-208.243,-38.598l-253.336,69.962l-75.389,22.278l-2.757,1.809l77.75,-22.535l251.156,-66.753l207.396,38.107l107.201,23.458l115.751,26.507" style="fill-rule:nonzero;fill:#000;"/>
        <path id="rear_line_tv" d="M161.501,153.789l31.019,-9.036l32.641,-8.861l213.28,-55.253l201.581,40.386l107.655,26.062l69.681,10.177l66.296,3.127l-115.751,-26.508l-107.201,-23.457l-207.396,-38.107l-251.156,66.753l-77.749,22.534l37.1,-7.817Z" style="fill:#ff4500;fill-rule:nonzero;stroke:#000;stroke-width:0.5px;stroke-linecap:square;stroke-linejoin:miter;stroke-miterlimit:1;"/>
        <path id="bottom_surface_standard_tv" d="M893.47,143.02l-72.504,-26.077l-68.009,-21.986l-171.851,-52.047l-81.182,-21.845l-32.871,11.649c0,0 -175.087,57.679 -325.17,117.621l-14.712,9.454l75.389,-22.279l253.336,-69.961l208.243,38.598l110.035,24.223l111.797,25.93l7.499,-13.28Z" style="fill:#fff;fill-rule:nonzero;stroke:#000;stroke-width:0.5px;stroke-linejoin:miter;stroke-miterlimit:10;"/>
        </g>
        <g id="group_bottom_surface_odl_tv">
        <path id="te_stroke_tv" d="M124.396,161.606l37.1,-7.817l31.018,-9.036l32.641,-8.861l213.28,-55.253l201.582,40.386l107.654,26.062l135.977,13.304" style="fill:none;stroke:#000;stroke-width:0.8px;stroke-linecap:square;stroke-linejoin:miter;stroke-miterlimit:1;"/>
        <path id="line_front_tv" d="M138.65,152.417c150.206,-59.631 323.753,-115.47 323.753,-115.47l32.895,-11.581l83.197,22.144l171.851,52.047l68.009,21.986l72.504,26.077l2.606,-4.6l-72.504,-26.077l-68.009,-21.986l-171.851,-52.047l-81.183,-21.845l-32.87,11.649c0,0 -175.087,57.679 -325.17,117.621l-3.228,2.082" style="fill:#ff4500;"/>
        <path id="line_rear_2_tv" d="M883.646,160.39l-126.681,-18.094l-106.45,-26.069l-208.837,-39.85l-246.585,66.245l-32.354,9.389l-38.343,9.595l37.1,-7.817l31.019,-9.036l32.641,-8.861l213.28,-55.253l201.581,40.386l107.655,26.062l135.977,13.304" style="fill:#ff4500;"/>
        <path id="line_rear_1_tv" d="M883.648,160.391l-123.918,-22.508l-106.202,-25.545l-207.793,-39.736l-248.919,68.599l-32.346,9.455l-40.074,10.95c0,0 38.343,-9.595 38.343,-9.595l32.354,-9.389l246.585,-66.245l208.837,39.85l106.45,26.069l126.681,18.094" style="fill:#fff;"/>
        <path id="bottom_surface_odl_tv" d="M883.648,160.391l-123.918,-22.508l-106.202,-25.545l-207.793,-39.736l-248.919,68.599l-32.346,9.455l-40.074,10.95l14.254,-9.189c150.206,-59.631 323.753,-115.47 323.753,-115.47l32.895,-11.581l83.197,22.144l171.851,52.047l68.009,21.986l72.504,26.077l-7.211,12.771" style="fill-opacity:0.39;stroke:#000;stroke-width:0.5px;stroke-linejoin:miter;stroke-miterlimit:1;"/>
        </g>
        <path id="keelin_tv" d="M500.516,16.587l-60.454,64.379l4.432,0.886l59.593,-64.467l-2.392,-0.686l-1.179,-0.112Z" style="fill:#EDEDED;fill-rule:nonzero;stroke:#000;stroke-width:0.5px;stroke-linecap:round;stroke-miterlimit:10;"/>
        <path id="battens_bottom_tv" d="M290.69,118.948l75.461,-51.788l-1.916,0.67l-71.498,49.123l-2.047,1.995Zm179.37,-31.948l63.233,-56.942l-0.509,-0.137l-63.825,56.857l1.101,0.222Zm-64.722,2.215l56.165,-54.656l-1.782,0.594l-50.228,49.117l-4.155,4.945Zm-55.593,14.384l65.579,-53.449l-1.519,0.528l-61.255,49.756l-2.805,3.165Zm164.506,-7.71l58.976,-55.086l-0.578,-0.155l-59.772,54.964l1.374,0.277Zm111.565,-39.678l0.69,0.343l-55.745,50.702l-1.101,-0.221l56.156,-50.824Z" style="fill:#ff1900;fill-rule:nonzero;"/>
        <path id="cb_tv" d="M659.534,61.943c-4.367,0.279 -179.567,-22.731 -179.567,-22.731l-6.289,0.435l-174.392,51.248l2.573,-3.665l171.266,-52.67l7.802,-1.095l162.373,23.824l16.234,4.654Z" style="fill-rule:nonzero;stroke:#c0c0c0;stroke-width:0.5px;stroke-linejoin:miter;stroke-miterlimit:10;"/>
        <path id="battens_top_tv" d="M397.378,50.151l-2.338,0.981c-7.625,8.301 -49.733,55.757 -49.733,55.757l2.101,-0.579c0,0 42.27,-47.783 49.97,-56.159m-234.566,91.068l-1.829,0.796c-11.376,7.404 -25.972,18.018 -25.972,18.018l1.044,-0.037c0,0 16.197,-11.462 26.757,-18.777m34.663,-15.112l-2.595,1.068c-12.534,9.433 -37.163,28.872 -37.163,28.872l2.073,-0.326c0,0 25.556,-20.336 37.685,-29.614m36.385,-14.023l-2.132,0.825c-10.312,7.919 -41.986,34.074 -41.986,34.074l2.117,-0.642c0,0 32.133,-26.331 42.001,-34.257m36.513,-14.118l-2.048,0.811c-10.537,8.232 -48.224,40.254 -48.224,40.254l2.016,-0.517c0,0 38.802,-32.66 48.256,-40.548m36.386,-13.699l-2.615,0.988c-10.019,8.505 -49.332,44.69 -49.332,44.69l2.018,-0.413c0,0 40.539,-37.162 49.929,-45.265m62.081,-23.372l-2.424,0.912c-19.339,18.832 -42.626,45.064 -48.431,51.836l1.827,-0.46c0,0 33.786,-37.639 49.028,-52.288m-30.695,11.556l-1.815,0.684c-7.682,7.751 -49.846,48.632 -49.846,48.632l1.829,-0.455c0,0 42.15,-41.109 49.832,-48.861m59.448,2.24c8.492,-11.957 21.577,-27.886 29.26,-35.637l-2.458,0.925c-7.682,7.752 -21.805,25.758 -29.834,36.532c-7.865,10.552 -17.943,22.266 -17.943,22.266l1.9,-0.568c0,0 11.479,-12.822 19.075,-23.518m29.723,-12.65c8.028,-10.773 18.622,-25.279 26.304,-33.03l-2.41,0.873c-7.682,7.752 -17.822,22.315 -26.119,32.937c-8.188,10.483 -23.67,29.496 -23.67,29.496l1.67,-0.429c0,0 16.36,-19.294 24.225,-29.847m-1.867,24.178c8.744,-10.669 18.333,-23.184 19.682,-24.91c24.748,-31.651 31.88,-40.712 31.88,-40.712l-1.618,0.582c0,0 -8.008,8.395 -31.88,40.712c-1.273,1.724 -10.725,14.061 -19.595,24.733l1.531,-0.405Zm22.215,0c0,0 10.67,-12.957 20.073,-25.508c13.25,-17.684 29.44,-40.304 34.866,-43.759l-0.908,-0.253c-5.425,3.455 -21.722,26.143 -34.973,43.828c-9.402,12.55 -20.274,25.377 -20.274,25.377l1.216,0.315Zm70.79,-64.717c-11.12,11.135 -29.461,35.798 -34.529,42.749c-5.068,6.949 -20.111,25.075 -20.111,25.075l1.652,0.258c0,0 10.058,-12.392 20.418,-25.803c7.365,-9.535 22.102,-30.23 34.141,-41.828l-1.571,-0.451Zm18.652,5.348c-9.812,10.978 -20.104,27.726 -29.126,38.933c-9.022,11.208 -23.486,27.466 -23.486,27.466l1.731,0.295c0,0 20.843,-23.677 27.33,-32.452c6.488,-8.774 17.932,-26.102 25.327,-33.733l-1.776,-0.509Zm22.154,6.35c0,0 -4.448,4.783 -9.11,10.951c-4.663,6.169 -19.058,25.802 -23.924,32.058c-4.865,6.255 -10.035,11.702 -10.035,11.702l-8.627,10.078l1.964,0.242c0,0 4.97,-6.099 8.62,-10.008c3.648,-3.909 14.364,-16.967 20.648,-25.22c6.284,-8.253 17.733,-23.701 22.484,-29.224l-2.02,-0.579Zm24.226,6.944c-11.021,12.561 -22.61,28.085 -29.581,37.145c-6.971,9.06 -13.868,17.192 -20.561,25.562l2.263,0.422c0,0 14.021,-17.645 20.653,-25.984c5.481,-6.89 22.918,-30.436 29.366,-36.532l-2.14,-0.613Zm29.186,8.365c0,0 -34.03,43.337 -49.043,60.889l2.424,0.398c6.731,-7.976 41.632,-54.09 48.634,-60.708l-2.015,-0.579Zm31.011,8.891c-1.821,1.292 -47.268,58.372 -47.268,58.372l2.513,0.548c0,0 41.545,-52.713 47.019,-58.272l-2.264,-0.648Zm40.899,11.725c-2.029,1.048 -44.124,55.591 -44.124,55.591l2.955,0.56c0,0 38.982,-50.459 43.94,-55.305l-2.771,-0.846Zm6.363,68.178l3.091,0.652c0,0 31.548,-45.154 39.651,-53.828l-2.826,-0.863c-6.015,6.599 -39.916,54.039 -39.916,54.039Zm92.32,-38.029c-5.406,4.68 -35.257,51.842 -35.257,51.842l3.517,0.57c0.86,-1.307 26.414,-43.826 34.502,-51.501l-2.762,-0.911Zm31.24,57.589c20.348,-38.28 21.947,-39.875 21.947,-39.875l2.451,0.816c-5.101,6.755 -21.545,39.46 -21.545,39.46l-2.853,-0.401Z" style="fill:#ff1900;fill-rule:nonzero;"/>
        <path id="ribs_tv" d="M160.101,143.101l-15.664,10.983l1.237,1.357l30.621,-17.898l-15.085,4.787m33.738,-14.285l-22.009,17.073l1.478,2.06l37.793,-23.336l-16.406,3.545m35.396,-13.159l-25.196,20.513l2.166,2.738l44.182,-28.187l-19.403,3.523m32.44,-10.679l-29.332,24.637l1.976,2.808l48.834,-32.725l-18.416,2.716m31.513,-9.292l-30.184,27.37l2.094,2.981l34.103,-23.299l-6.013,-7.052m58.288,-18.722l-27.177,29.168l2.844,3.495l31.375,-24.652l-7.042,-8.011m219.384,-21.62l-29.979,38.227l1.316,1.359l32.119,-27.526l-3.456,-12.06m64.613,12.418l-30.156,37.333l1.942,2.073l30.029,-25.983l-1.815,-13.423m40.87,12.49c-8.483,10.154 -17.453,22.046 -26.144,33.124l2.34,2.22l38.567,-32.175l-14.763,-3.169Zm27.171,46.431l34.75,-28.744l-15.852,-3.009c-4.214,5.299 -12.711,17.081 -21.702,29.462l2.804,2.291Zm70.757,-15.214l-17.086,25.468l2.469,2.03l29.26,-24.775l-14.643,-2.723Zm44.012,40.909l-1.582,-1.484l12.01,-21.911l6.806,1.051l-17.234,22.344Z" style="fill:#ff1900;fill-rule:nonzero;"/>
        <path id="rf1_tv" d="M466.723,60.527c-9.403,12.55 -22.633,28.219 -22.633,28.219l-10.924,-2.201l-10.107,2.572c8.871,-10.672 20.799,-26.085 22.072,-27.808c23.872,-32.317 31.88,-40.712 31.88,-40.712l13.736,-4.941l10.948,1.042c-5.425,3.456 -21.722,26.145 -34.972,43.829" style="fill:#f20d0d;fill-opacity:0.98;fill-rule:nonzero;"/>
        <path id="ts-rf2" d="M466.723,60.527c-9.403,12.55 -22.633,28.219 -22.633,28.219l-10.924,-2.201l-10.107,2.572c8.871,-10.672 20.799,-26.085 22.072,-27.808c23.872,-32.317 31.88,-40.712 31.88,-40.712l13.736,-4.941l10.948,1.042c-5.425,3.456 -21.722,26.145 -34.972,43.829" style="fill-opacity:0.4;fill-rule:nonzero;"/>
        <path id="rf3" d="M823.788,112.772l15.096,5.03l56.914,21.042l-12.164,21.545l0,0.001l-69.098,1.89c0,0 -30.83,-4.531 -66.457,-7.098c-1.395,0.202 -57.249,-13.558 -57.249,-13.558c-16.955,-4.697 -33.87,-9.046 -50.684,-12.51l-7.62,-1.882l8.236,-2.929l109.088,23.947l68.947,6.345l60.719,-0.489l8.004,-14.358c0,0 -40.779,-4.57 -55.237,-6.19c-2.723,-0.306 -4.763,-2.639 -4.703,-5.378c0.086,-4.769 -0.424,-11.856 -3.792,-15.408Zm-699.407,48.833l17.469,-11.263l24.448,-10.649c-3.232,1.919 -9.582,5.973 -11.601,7.265c-0.42,0.269 -0.876,0.477 -1.354,0.616c-2.271,0.662 -9.113,2.657 -9.113,2.657l-14.226,9.204l7.741,-0.645l23.445,-4.195l61.479,-16.559l1.417,1.657c0,0 -35.627,9.05 -36.046,9.229c-0.811,0.347 -31.83,9.209 -31.83,9.209l-22.3,2.953l-9.529,0.521l-0.001,0.001l0,-0.001l0.001,0Z" style="fill:#fff;fill-opacity:0.95;"/>
        <path id="top_surface_tv" onmouseover="parent.PanelMouseOver('top_surface')" onmouseout="parent.PanelMouseOut('top_surface')" onmousedown="parent.PanelClick('top_surface', evt)" d="M124.396,161.605l9.529,-0.521l22.301,-2.953c0,0 31.019,-8.862 31.83,-9.209c0.811,-0.348 68.931,-17.549 68.931,-17.549l176.179,-44.828l163.002,32.839c19.264,3.421 43.994,9.73 43.994,9.73c16.813,3.464 33.728,7.813 50.683,12.51c0,0 55.855,13.76 57.25,13.558c35.627,2.567 66.457,7.098 66.457,7.098l69.098,-1.89l0,-0.001l12.164,-21.545l-56.915,-21.042l-16.221,-5.405l0.003,0.002l0,0l-0.004,-0.002l-39.09,-13.025l-99.113,-30.281l-182.783,-52.394l-10.947,-1.043l-39.129,14.075l-183.68,69.152l-71.77,27.8l-22.449,9.783l0.001,0l-31.852,13.878l-17.469,11.264" style="fill-opacity:0.45;fill:#000; stroke:#000;stroke-width:0.5px;stroke-linejoin:miter;stroke-miterlimit:10;"/>
        <path id="ts_cut_stroke" d="M873.752,130.688c-135.627,-20.641 -282.914,-36.831 -435.183,-51.119c-101.787,20.977 -199.738,42.668 -286.673,66.407" style="fill:none;stroke:#848484;stroke-opacity:0.9;stroke-width:2px;stroke-linecap:square;stroke-linejoin:miter;stroke-miterlimit:4;"/>
        <path id="leading_edge_tv" onmouseover="parent.PanelMouseOver('leading_edge')" onmouseout="parent.PanelMouseOut('leading_edge')" onmousedown="parent.PanelClick('leading_edge', evt)" d="M893.233,130.245c-24.177,-10.295 -91.536,-32.838 -123.924,-43.264c-32.387,-10.425 -154.638,-47.173 -154.638,-47.173c0,0 -98.683,-29.321 -105.982,-30.494c-7.298,-1.172 -9.275,0 -9.275,0c0,0 -112.976,43.655 -146.884,56.426c-33.907,12.771 -133.958,50.431 -155.55,59.553c-21.591,9.122 -51.394,22.414 -51.394,22.414l-3.716,2.638l54.299,-23.661l71.77,-27.801l183.68,-69.153l39.129,-14.074l10.947,1.043l182.783,52.394l99.113,30.28l55.312,18.431l56.914,21.042c2.434,-4.379 3.65,-5.422 4.258,-5.734l-6.842,-2.867Z" style="fill-opacity:0.45;fill:#000;fill-rule:nonzero;stroke:#000;stroke-width:0.5px;stroke-linejoin:miter;stroke-miterlimit:1;"/>
        <g id="control_frame_tv">
        <path id="speedbar_tv" d="M557.428,147.542c0,0 -15.86,-0.105 -16.6,-0.111c-2.079,-0.019 -2.852,-0.537 -2.852,-0.537c0,0 -2.121,-1.37 -3.117,-2.009c-0.896,-0.575 -1.943,-0.707 -1.943,-0.707l-26.482,-0.031c-0.226,0 -0.451,0.025 -0.668,0.078l-17.084,4.073c-0.1,0.024 -0.202,0.036 -0.305,0.037l-15.665,0.046l-3.522,1.578c0,0 15.439,0.254 17.093,0.166c2.168,-0.114 4.277,-0.795 4.277,-0.795c0,0 10.616,-2.765 11.624,-3.053c1.27,-0.362 3.436,-0.378 3.436,-0.378c0,0 1.667,-0.033 3.897,-0.014c5.202,0.046 22.064,-0.002 22.455,0.006c1.667,0.037 2.369,0.501 2.369,0.501c0,0 3.184,2.109 3.714,2.424c0.888,0.528 2.451,0.646 2.451,0.646l18.545,0.182l-1.623,-2.102Z" style="fill-rule:nonzero;stroke:#000;stroke-width:0.5px;stroke-linejoin:miter;stroke-miterlimit:10;"/>
        <path id="uprights_tv" onmouseover="parent.PanelMouseOver('uprights')" onmouseout="parent.PanelMouseOut('uprights')" d="M452.393,90.419l14.668,57.706l3.235,-2.056l-13.546,-54.772l-4.357,-0.878Zm46.662,9.401l60.064,44.644l-1.69,2.896l-68.437,-49.567l10.063,2.027Z" style="fill-rule:nonzero;stroke:#000;stroke-width:0.5px;stroke-linejoin:miter;stroke-miterlimit:10;"/>
        <path id="cframecorners_tv" d="M467.061,148.125c0.468,1.863 2.13,1.834 2.13,1.834l3.52,-1.578c-1.915,-0.399 -2.415,-2.312 -2.415,-2.312l-3.235,2.056Zm90.367,-0.583l1.692,-3.079c0,0 2.215,1.995 2.057,2.816c-0.159,0.822 -2.126,2.365 -2.126,2.365l-1.623,-2.102Z" style="fill:#c0c0c0;stroke:#000;stroke-width:0.5px;stroke-linecap:round;stroke-miterlimit:10;"/>
        </g>
        <path d="M405.872,116.264l-47.059,45.632c2.558,-1.042 4.379,0.747 4.379,0.747l47.119,-45.69c0,0 -2.316,-2.747 -4.439,-0.689Z" style="fill:#EDEDED;fill-rule:nonzero;stroke:#000;stroke-width:0.5px;stroke-linecap:round;stroke-miterlimit:10;"/>
        <path d="M352.009,173.487l-5.122,-0.026l-6.661,6.458c-0.262,2.578 3.604,1.499 3.604,1.499l8.179,-7.931" style="fill:#EDEDED;fill-rule:nonzero;stroke:#000;stroke-width:0.5px;stroke-linecap:round;stroke-miterlimit:10;"/>
        <path id="winglets_tv" d="M135.643,152.124c-7.424,3.919 -14.042,6.632 -14.042,6.632c2.06,3.142 2.799,2.851 2.799,2.851l17.47,-11.263l3.716,-2.637c0,0 -8.152,3.471 -9.943,4.417m765.96,-18.222c4.558,4.281 1.939,10.678 1.939,10.678l-4.524,11.236c-11.079,4.827 -15.365,4.575 -15.365,4.575c0,0 9.214,-16.318 12.165,-21.546c2.95,-5.226 4.258,-5.733 4.258,-5.733l1.527,0.79Z" style="fill-rule:nonzero;stroke:#000;stroke-width:0.5px;"/>
        <path id="t1tv" d="M404.315,170.129c1.837,-2.506 -0.918,-2.864 -0.918,-2.864l-40.086,-4.509c-2.84,-2.505 -5.512,-0.286 -5.512,-0.286c0,0 -57.373,4.652 -58.876,4.724c-1.503,0.071 -2.673,0.787 -2.673,0.787l-6.263,3.936l58.208,1.576l53.532,-0.359c0,0 0.752,-0.5 2.588,-3.005" style="fill:#fff;fill-rule:nonzero;"/>
        <path id="t2tv" d="M404.315,170.129c1.837,-2.506 -0.918,-2.864 -0.918,-2.864l-40.086,-4.509c-2.84,-2.505 -5.512,-0.286 -5.512,-0.286c0,0 -57.373,4.652 -58.876,4.724c-1.503,0.071 -2.673,0.787 -2.673,0.787l-6.263,3.936l58.208,1.576l53.532,-0.359c0,0 0.752,-0.5 2.588,-3.005Z" style="fill:none;stroke:#000;stroke-width:0.5px;stroke-linejoin:miter;stroke-miterlimit:10;"/>
        <path id="keelpockettv" d="M410.311,116.953l28.778,-29.214l-5.888,-1.186l-4.355,1.108l-22.569,26.299l-0.373,2.31c2.048,-1.985 4.407,0.683 4.407,0.683Z" style="fill:#fff;fill-rule:nonzero;stroke:#000;stroke-width:0.5px;stroke-linejoin:miter;stroke-miterlimit:10;"/>
    </g>
    <g id="letters">
        <path id="letters_c_big_lat" d="M628.757,353.536m-74.106,-12.732l-3.184,-6.172l-11.523,-2.388l-0.675,-1.281l30.506,6.347l0.621,1.245l-11.193,-2.32l3.12,6.13l-7.672,-1.561Zm-8.788,-1.788l-8.542,-1.738l-4.341,-2.408l-15.928,-3.257l-2.371,1.061l-8.695,-1.769l11.55,-4.464l8.578,1.785l19.749,10.79Zm-459.622,-7.757l-3.673,1.294l-2.743,-0.526l-6.468,2.305l0.025,1.458l-3.332,1.174l0.147,-6.693l3.493,-1.299l12.551,2.287Zm-8.465,0.375l-4.462,-0.9l0.038,2.492l4.424,-1.592Zm451.96,1.437l-7.022,-3.962l-3.872,1.726l10.894,2.236Zm-441.676,-2.454l-5.78,-4.838l13.342,-4.959l0.964,0.901l-9.774,3.599l1.286,1.108l9.042,-3.29l0.938,0.87l-9.015,3.252l1.537,1.324l10.013,-3.56l0.907,0.849l-13.46,4.744Zm375.151,-15.479l17.182,3.576c3.352,0.697 5.862,1.241 7.527,1.635c1.663,0.391 3.186,0.804 4.564,1.236c1.375,0.432 2.567,0.872 3.573,1.322c1.003,0.451 1.602,0.844 1.794,1.184c0.207,0.366 -0.127,0.594 -0.998,0.684c-0.876,0.091 -2.165,0.029 -3.877,-0.188c2.613,0.66 4.693,1.297 6.235,1.909c1.538,0.611 2.432,1.14 2.686,1.588c0.199,0.354 -0.043,0.608 -0.725,0.763c-0.682,0.157 -1.719,0.181 -3.118,0.072c-1.399,-0.109 -3.198,-0.365 -5.403,-0.773c-1.382,-0.255 -4.762,-0.928 -10.166,-2.021l-14.49,-2.946l-4.784,-8.041Zm11.38,6.332l1.251,2.128l7.914,1.616c3.058,0.625 4.983,1.003 5.782,1.138c1.23,0.214 2.191,0.317 2.881,0.313c0.692,-0.005 0.957,-0.147 0.8,-0.424c-0.134,-0.235 -0.551,-0.496 -1.253,-0.785c-0.7,-0.288 -1.647,-0.588 -2.842,-0.9c-1.198,-0.312 -3.728,-0.865 -7.604,-1.662l-6.929,-1.424Zm-369.89,3.282l-5.48,-5.27l8.266,-3.072c2.136,-0.795 3.752,-1.324 4.833,-1.586c1.084,-0.262 2.049,-0.37 2.892,-0.323c0.842,0.046 1.418,0.241 1.728,0.584c0.39,0.433 0.259,0.954 -0.387,1.559c-0.642,0.601 -1.812,1.254 -3.501,1.959c1.004,-0.174 1.87,-0.278 2.598,-0.314c0.73,-0.036 1.781,-0.011 3.15,0.073l3.458,0.202l-4.873,1.718l-4.006,-0.154c-1.426,-0.057 -2.379,-0.073 -2.86,-0.049c-0.481,0.025 -0.949,0.092 -1.407,0.202c-0.454,0.109 -1.131,0.325 -2.028,0.648l-0.788,0.284l2.212,2.198l-3.807,1.341Zm368.021,-6.461l1.089,1.852l5.639,1.162c3.333,0.688 5.395,1.106 6.189,1.254c1.433,0.266 2.52,0.407 3.262,0.423c0.738,0.014 1.035,-0.105 0.891,-0.36c-0.143,-0.244 -0.613,-0.517 -1.416,-0.817c-0.803,-0.303 -1.924,-0.616 -3.361,-0.942c-0.854,-0.193 -3.295,-0.707 -7.333,-1.544l-4.96,-1.028Zm-56.624,-5.669l-5.387,-8.407l13.936,2.899l11.758,7.36l4.567,-3.964l13.436,2.796l4.883,8.102l-8.201,-1.669l-3.91,-6.41l-4.865,4.625l-8.69,-1.767l-13.102,-8.378l4.157,6.559l-8.582,-1.746Zm-310.663,7.733l2.898,-1.052c1.904,-0.693 3.081,-1.151 3.517,-1.37c0.438,-0.221 0.741,-0.438 0.909,-0.649c0.167,-0.212 0.172,-0.404 0.012,-0.574c-0.179,-0.191 -0.504,-0.279 -0.977,-0.263c-0.472,0.015 -1.051,0.127 -1.736,0.338c-0.339,0.107 -1.321,0.461 -2.938,1.057l-3.077,1.132l1.392,1.381Zm15.761,-5.088c-0.52,-0.592 -0.638,-1.207 -0.355,-1.848c0.216,-0.479 0.638,-0.993 1.265,-1.545c0.633,-0.556 1.403,-1.081 2.315,-1.576c1.219,-0.666 2.727,-1.334 4.525,-2.003c3.296,-1.226 6.195,-1.926 8.66,-2.085c2.474,-0.159 4.09,0.289 4.835,1.334c0.729,1.024 0.291,2.173 -1.291,3.444c-1.556,1.25 -3.945,2.438 -7.149,3.566c-3.192,1.124 -5.913,1.747 -8.194,1.881c-2.275,0.133 -3.809,-0.254 -4.611,-1.168Zm4.343,-1.624c0.561,0.666 1.538,0.969 2.934,0.912c1.4,-0.057 2.964,-0.392 4.706,-1.011c1.757,-0.624 3.074,-1.315 3.951,-2.074c0.884,-0.766 1.06,-1.51 0.521,-2.231c-0.539,-0.719 -1.513,-1.051 -2.918,-0.992c-1.403,0.059 -3.033,0.432 -4.881,1.113c-1.832,0.675 -3.152,1.389 -3.969,2.142c-0.808,0.746 -0.92,1.459 -0.344,2.141Zm234.081,-16.228c-0.614,-0.896 -0.378,-1.493 0.714,-1.791c0.818,-0.216 2.078,-0.3 3.776,-0.254c1.696,0.046 3.633,0.221 5.815,0.528c2.89,0.403 6.316,1.016 10.262,1.838c7.095,1.476 12.986,3.041 17.694,4.698c4.674,1.644 7.448,3.154 8.342,4.532c0.884,1.364 -0.475,2.01 -4.075,1.943c-3.617,-0.069 -8.898,-0.81 -15.881,-2.229c-7.135,-1.45 -13.117,-3.004 -17.928,-4.663c-4.843,-1.668 -7.758,-3.204 -8.719,-4.602Zm-213.933,10.344l4.539,-1.781c0.564,0.327 1.343,0.437 2.335,0.33c0.995,-0.107 2.231,-0.422 3.716,-0.949c1.582,-0.563 2.729,-1.081 3.431,-1.554c0.705,-0.475 0.986,-0.838 0.841,-1.088c-0.096,-0.159 -0.349,-0.234 -0.763,-0.223c-0.412,0.011 -1.071,0.129 -1.976,0.354c-0.617,0.154 -2.003,0.533 -4.145,1.134c-2.728,0.764 -4.689,1.203 -5.899,1.323c-1.698,0.168 -2.724,-0.008 -3.081,-0.528c-0.232,-0.337 -0.108,-0.779 0.376,-1.328c0.489,-0.554 1.333,-1.152 2.542,-1.797c1.218,-0.651 2.773,-1.33 4.672,-2.037c3.14,-1.167 5.651,-1.861 7.501,-2.066c1.854,-0.206 3.012,0.006 3.462,0.634l-5.097,1.941c-0.431,-0.279 -1.052,-0.367 -1.859,-0.262c-0.807,0.104 -1.918,0.417 -3.326,0.937c-1.445,0.532 -2.517,1.029 -3.218,1.491c-0.451,0.295 -0.616,0.53 -0.502,0.705c0.103,0.159 0.433,0.207 0.992,0.143c0.711,-0.081 2.312,-0.479 4.821,-1.201c2.534,-0.727 4.451,-1.223 5.738,-1.481c1.291,-0.258 2.362,-0.362 3.209,-0.306c0.845,0.056 1.392,0.304 1.635,0.744c0.221,0.395 0.022,0.908 -0.592,1.536c-0.608,0.623 -1.592,1.272 -2.944,1.945c-1.339,0.667 -3.067,1.372 -5.173,2.114c-3.031,1.067 -5.451,1.691 -7.29,1.882c-1.834,0.192 -3.145,-0.012 -3.945,-0.612Zm224.128,-8.298c0.666,0.985 2.448,1.993 5.331,3.02c2.872,1.022 6.242,1.927 10.102,2.715c3.844,0.785 6.82,1.178 8.941,1.185c2.115,0.005 2.847,-0.485 2.201,-1.473c-0.64,-0.978 -2.312,-1.956 -5.019,-2.933c-2.721,-0.983 -6.08,-1.889 -10.087,-2.721c-4.026,-0.834 -7.117,-1.26 -9.265,-1.276c-2.15,-0.016 -2.888,0.478 -2.204,1.483Zm-25.816,-4.299l10.194,2.561c-0.83,0.654 -2.822,0.861 -5.986,0.616c-3.175,-0.244 -7.472,-0.917 -12.911,-2.023c-6.784,-1.379 -12.695,-2.93 -17.717,-4.651c-5.063,-1.736 -8.131,-3.326 -9.181,-4.765c-1.115,-1.529 0.284,-2.248 4.194,-2.157c3.894,0.092 9.48,0.895 16.722,2.404c6.28,1.306 11.567,2.684 15.89,4.136c2.559,0.857 4.653,1.76 6.285,2.707l-9.766,-1.654c-0.926,-0.588 -2.436,-1.214 -4.535,-1.879c-2.102,-0.666 -4.532,-1.285 -7.287,-1.857c-3.82,-0.792 -6.76,-1.195 -8.809,-1.207c-2.05,-0.012 -2.687,0.526 -1.903,1.61c0.829,1.147 2.593,2.204 5.294,3.17c2.688,0.961 5.896,1.823 9.613,2.581c2.732,0.558 4.968,0.884 6.707,0.979c1.741,0.096 2.806,-0.093 3.196,-0.571Z" style="opacity:0.6; fill:none;stroke:#fff;stroke-width:0.75px;stroke-linejoin:miter;stroke-miterlimit:4;"/>
        <path id="letters_c_small_lat" display="none" d="M561.207,342.477m-38.894,-6.547l-3.727,-4.344l-6.422,-1.363l-0.772,-0.894l17.086,3.635l0.747,0.879l-6.303,-1.338l3.697,4.327l-4.306,-0.902Zm-4.913,-1.029l-4.753,-0.995l-2.936,-1.595l-8.781,-1.846l-0.771,0.826l-4.758,-0.996l3.987,-3.519l4.719,1.004l13.293,7.121Zm-9.877,-3.778l-4.742,-2.611l-1.263,1.345l6.005,1.266Zm-397.782,-5.465l-2.989,1.056l-2.135,-0.213l-5.229,1.865l-0.132,0.999l-2.727,0.964l0.901,-4.489l2.739,-1.006l9.572,0.824Zm360.24,-5.138l9.21,1.96c1.809,0.383 3.168,0.688 4.086,0.912c0.912,0.223 1.77,0.466 2.563,0.727c0.796,0.262 1.505,0.535 2.135,0.821c0.627,0.286 1.043,0.545 1.248,0.779c0.222,0.252 0.141,0.424 -0.242,0.515c-0.382,0.091 -1.014,0.086 -1.897,-0.015c1.459,0.386 2.66,0.772 3.596,1.157c0.937,0.385 1.543,0.733 1.814,1.043c0.215,0.244 0.187,0.431 -0.085,0.562c-0.269,0.132 -0.754,0.18 -1.455,0.145c-0.7,-0.034 -1.64,-0.162 -2.821,-0.383c-0.743,-0.139 -2.566,-0.512 -5.48,-1.118l-7.783,-1.629l-4.889,-5.476Zm7.409,4.075l1.294,1.456l4.26,0.893c1.652,0.347 2.687,0.556 3.111,0.627c0.654,0.114 1.141,0.157 1.467,0.133c0.326,-0.025 0.403,-0.133 0.235,-0.324c-0.143,-0.162 -0.429,-0.334 -0.856,-0.516c-0.43,-0.182 -0.979,-0.365 -1.645,-0.547c-0.669,-0.183 -2.048,-0.495 -4.139,-0.936l-3.727,-0.786Zm-374.341,1.749l-3.333,-0.363l-0.218,1.638l3.551,-1.275Zm372.41,-3.92l1.124,1.263l3.031,0.642c1.796,0.379 2.903,0.608 3.328,0.688c0.765,0.144 1.325,0.209 1.677,0.197c0.356,-0.012 0.455,-0.106 0.301,-0.28c-0.149,-0.168 -0.462,-0.345 -0.942,-0.532c-0.48,-0.187 -1.113,-0.374 -1.897,-0.557c-0.467,-0.11 -1.785,-0.395 -3.959,-0.856l-2.663,-0.565Zm-364.236,2.71l-4.341,-2.768l10.356,-3.804l0.771,0.471l-7.634,2.788l0.973,0.612l7.134,-2.582l0.776,0.473l-7.167,2.578l1.206,0.759l8.052,-2.865l0.786,0.478l-10.912,3.86Zm336.256,-4.874l-5.124,-5.616l7.261,1.544l7.754,4.716l0.814,-2.892l7.114,1.513l4.925,5.498l-4.357,-0.911l-3.903,-4.343l-0.739,3.37l-4.58,-0.96l-8.686,-5.379l3.999,4.397l-4.478,-0.937Zm-322.77,0.105l-4.689,-2.823l6.358,-2.336c1.638,-0.602 2.882,-1.018 3.725,-1.244c0.845,-0.227 1.612,-0.36 2.3,-0.398c0.688,-0.037 1.182,0.028 1.479,0.197c0.375,0.215 0.333,0.519 -0.126,0.914c-0.458,0.393 -1.349,0.858 -2.666,1.391c0.813,-0.174 1.518,-0.298 2.121,-0.372c0.605,-0.075 1.487,-0.137 2.653,-0.189l2.979,-0.138l-3.913,1.384l-3.401,0.195c-1.194,0.066 -1.985,0.123 -2.38,0.171c-0.395,0.049 -0.775,0.121 -1.14,0.218c-0.366,0.097 -0.904,0.273 -1.612,0.527l-0.623,0.224l2.007,1.192l-3.072,1.087Zm292.643,-8.697c-0.548,-0.587 -0.627,-1 -0.236,-1.237c0.297,-0.173 0.827,-0.272 1.595,-0.296c0.765,-0.025 1.682,0.031 2.744,0.167c1.408,0.178 3.122,0.482 5.136,0.91c3.633,0.772 6.762,1.648 9.4,2.626c2.626,0.975 4.358,1.921 5.197,2.839c0.834,0.909 0.425,1.397 -1.229,1.464c-1.656,0.068 -4.272,-0.272 -7.858,-1.023c-3.652,-0.766 -6.808,-1.635 -9.464,-2.608c-2.669,-0.979 -4.432,-1.926 -5.285,-2.842Zm-292.339,5.965l2.274,-0.821c1.492,-0.54 2.409,-0.891 2.745,-1.05c0.336,-0.159 0.561,-0.306 0.675,-0.441c0.116,-0.134 0.1,-0.244 -0.048,-0.329c-0.167,-0.096 -0.44,-0.122 -0.82,-0.079c-0.382,0.043 -0.839,0.15 -1.371,0.319c-0.264,0.086 -1.026,0.359 -2.276,0.815l-2.385,0.87l1.206,0.716Zm297.489,-4.91c0.604,0.65 1.707,1.277 3.311,1.883c1.601,0.605 3.389,1.114 5.366,1.529c1.971,0.413 3.435,0.588 4.39,0.524c0.956,-0.062 1.131,-0.422 0.53,-1.077c-0.597,-0.651 -1.657,-1.265 -3.18,-1.846c-1.528,-0.582 -3.313,-1.09 -5.367,-1.526c-2.056,-0.437 -3.564,-0.625 -4.527,-0.566c-0.96,0.059 -1.136,0.419 -0.523,1.079Zm-285.071,0.814c-0.52,-0.293 -0.708,-0.628 -0.564,-1.006c0.108,-0.281 0.38,-0.595 0.813,-0.946c0.437,-0.35 0.987,-0.695 1.657,-1.033c0.891,-0.454 2.018,-0.929 3.377,-1.43c2.492,-0.916 4.759,-1.527 6.789,-1.824c2.054,-0.301 3.54,-0.215 4.447,0.261c0.901,0.476 0.822,1.131 -0.238,1.96c-1.057,0.823 -2.876,1.691 -5.436,2.595c-2.553,0.903 -4.797,1.478 -6.744,1.734c-1.924,0.253 -3.287,0.149 -4.101,-0.311Zm272.343,-2.881l5.27,1.397c-0.167,0.47 -0.984,0.675 -2.452,0.611c-1.474,-0.062 -3.566,-0.378 -6.29,-0.947c-3.383,-0.708 -6.424,-1.557 -9.124,-2.549c-2.708,-0.995 -4.507,-1.955 -5.387,-2.881c-0.934,-0.982 -0.543,-1.509 1.172,-1.58c1.712,-0.069 4.372,0.28 7.972,1.047c3.129,0.665 5.86,1.414 8.192,2.248c1.384,0.492 2.58,1.032 3.584,1.617l-4.793,-0.794c-0.584,-0.365 -1.432,-0.735 -2.551,-1.113c-1.121,-0.377 -2.368,-0.713 -3.741,-1.004c-1.902,-0.403 -3.301,-0.576 -4.194,-0.515c-0.892,0.062 -1.009,0.441 -0.347,1.14c0.702,0.742 1.786,1.392 3.25,1.951c1.46,0.558 3.116,1.03 4.972,1.42c1.363,0.286 2.444,0.433 3.235,0.441c0.795,0.009 1.204,-0.154 1.232,-0.489Zm-268.959,1.629c0.589,0.328 1.475,0.421 2.66,0.278c1.193,-0.145 2.478,-0.462 3.859,-0.953c1.391,-0.495 2.382,-0.988 2.967,-1.481c0.588,-0.494 0.564,-0.912 -0.07,-1.252c-0.627,-0.335 -1.529,-0.425 -2.703,-0.273c-1.169,0.152 -2.46,0.486 -3.868,1.002c-1.4,0.511 -2.371,1.001 -2.919,1.474c-0.549,0.471 -0.524,0.872 0.074,1.205Zm16.028,-4.904l3.492,-1.347c0.602,0.117 1.33,0.103 2.184,-0.046c0.858,-0.149 1.871,-0.43 3.036,-0.845c1.24,-0.442 2.1,-0.818 2.571,-1.127c0.473,-0.31 0.597,-0.519 0.377,-0.63c-0.144,-0.071 -0.397,-0.084 -0.764,-0.037c-0.366,0.046 -0.92,0.169 -1.651,0.371c-0.501,0.137 -1.612,0.461 -3.321,0.969c-2.173,0.647 -3.766,1.055 -4.79,1.228c-1.428,0.242 -2.363,0.246 -2.807,0.014c-0.287,-0.148 -0.293,-0.382 -0.023,-0.702c0.271,-0.32 0.831,-0.693 1.686,-1.123c0.859,-0.432 1.994,-0.907 3.413,-1.428c2.338,-0.86 4.282,-1.434 5.817,-1.716c1.545,-0.283 2.631,-0.301 3.246,-0.051l-3.831,1.437c-0.469,-0.091 -1.04,-0.072 -1.709,0.058c-0.667,0.129 -1.534,0.388 -2.594,0.775c-1.089,0.398 -1.868,0.743 -2.339,1.037c-0.304,0.188 -0.384,0.321 -0.235,0.396c0.135,0.069 0.434,0.062 0.9,-0.022c0.593,-0.107 1.87,-0.459 3.845,-1.056c1.997,-0.605 3.526,-1.035 4.578,-1.289c1.063,-0.256 1.982,-0.412 2.763,-0.471c0.784,-0.058 1.372,0.006 1.759,0.196c0.35,0.173 0.366,0.447 0.043,0.822c-0.321,0.374 -0.981,0.8 -1.973,1.277c-0.988,0.475 -2.319,1.009 -3.99,1.598c-2.403,0.85 -4.398,1.407 -5.997,1.678c-1.584,0.27 -2.813,0.28 -3.686,0.034Z" style="fill:#dc143c;"/>
        <path id="letters_c_big_cyr" display="none" d="M557.762,341.244l-4.358,-6.413l-12.016,-2.531l-0.919,-1.331l31.814,6.726l0.858,1.293l-11.669,-2.457l4.283,6.367l-7.993,-1.654Zm-10.533,-2.181l-8.917,-1.845l-4.821,-2.52l-16.637,-3.46l-2.182,1.088l-9.081,-1.878l10.77,-4.576l8.964,1.895l21.904,11.296Zm-462.973,-7.627l-3.752,1.272l-2.462,-0.699l-6.417,2.216l-0.345,1.61l-3.29,1.116l1.886,-7.159l3.331,-1.222l11.049,2.866Zm-8.01,0.065l-3.781,-1.122l-0.571,2.645l4.352,-1.523Zm453.639,1.313l-7.813,-4.148l-3.565,1.773l11.378,2.375Zm-441.717,-6.801l5.741,-2.04c-0.525,-0.349 -1.295,-0.517 -2.305,-0.505c-1.004,0.011 -2.149,0.252 -3.434,0.717c-0.964,0.35 -1.697,0.721 -2.205,1.114c-0.506,0.391 -0.773,0.764 -0.806,1.119l-3.649,0.994c-0.053,-0.587 0.391,-1.235 1.34,-1.948c0.957,-0.717 2.411,-1.436 4.381,-2.16c2.611,-0.959 4.926,-1.465 6.929,-1.504c2.035,-0.038 3.463,0.364 4.263,1.213c0.547,0.579 0.651,1.21 0.305,1.885c-0.342,0.674 -1.045,1.346 -2.105,2.012c-1.053,0.661 -2.456,1.288 -4.203,1.879c-4.148,1.405 -7.138,1.672 -9.044,0.846l3.243,-1.565c0.526,0.322 1.24,0.45 2.144,0.383c0.911,-0.068 1.889,-0.281 2.941,-0.642c1.092,-0.375 1.93,-0.813 2.511,-1.31c0.583,-0.5 0.763,-1.039 0.537,-1.617l-5.781,2.027l-0.803,-0.898Zm374.183,-11.558l33.149,7.008l0.998,1.372l-24.008,-5.059l1.442,1.93l11.943,2.504c3.266,0.684 6.018,1.325 8.265,1.92c2.236,0.594 4.246,1.247 6.037,1.959c1.782,0.71 2.868,1.332 3.254,1.864c0.395,0.546 -0.014,0.857 -1.234,0.934c-1.221,0.077 -2.742,-0.012 -4.565,-0.268c-1.83,-0.257 -4.535,-0.756 -8.136,-1.501l-20.839,-4.312l-6.306,-8.351Zm14.257,8.829l8.659,1.798c2.748,0.57 4.652,0.944 5.723,1.125c1.071,0.18 1.952,0.266 2.64,0.259c0.686,-0.008 0.937,-0.14 0.748,-0.399c-0.278,-0.377 -1.194,-0.802 -2.752,-1.273c-1.566,-0.472 -4.087,-1.073 -7.577,-1.801l-9.076,-1.896l1.635,2.187Zm-372.361,1.373l-5.309,-5.53l6.456,-2.369c2.53,-0.929 4.235,-1.516 5.077,-1.749c1.307,-0.363 2.525,-0.558 3.655,-0.581c1.14,-0.024 1.948,0.19 2.419,0.642c0.365,0.351 0.424,0.733 0.18,1.148c-0.247,0.414 -0.677,0.822 -1.292,1.224c-0.613,0.402 -1.283,0.759 -2.008,1.073c-0.985,0.418 -2.45,0.967 -4.382,1.642l-2.735,0.957l2.092,2.134l-4.153,1.409Zm310.212,-13.068l-6.986,-8.737l14.528,3.072l13.179,7.682l3.836,-4.085l14.003,2.959l6.42,8.417l-8.539,-1.767l-5.127,-6.66l-4.012,4.769l-9.049,-1.871l-14.718,-8.745l5.401,6.817l-8.936,-1.851Zm-310.623,7.003l1.541,1.572l2.274,-0.806c1.664,-0.589 2.757,-1.017 3.267,-1.278c0.512,-0.262 0.868,-0.514 1.067,-0.755c0.198,-0.244 0.213,-0.449 0.042,-0.615c-0.208,-0.205 -0.608,-0.291 -1.198,-0.26c-0.589,0.032 -1.243,0.155 -1.965,0.371c-0.527,0.158 -1.547,0.509 -3.046,1.052l-1.982,0.719Zm16.293,-3.233c-0.621,-0.588 -0.793,-1.201 -0.524,-1.844c0.205,-0.477 0.633,-0.992 1.281,-1.549c0.652,-0.559 1.457,-1.093 2.421,-1.602c1.288,-0.683 2.898,-1.381 4.84,-2.094c3.58,-1.316 6.818,-2.125 9.685,-2.407c2.927,-0.287 4.989,0.055 6.155,1.036c1.162,0.982 0.895,2.162 -0.795,3.526c-1.672,1.35 -4.407,2.666 -8.153,3.933c-3.697,1.253 -6.865,1.956 -9.534,2.13c-2.621,0.171 -4.403,-0.208 -5.376,-1.129Zm4.763,-1.736c0.716,0.661 1.882,0.95 3.507,0.86c1.647,-0.089 3.465,-0.474 5.461,-1.16c2.025,-0.695 3.506,-1.447 4.432,-2.255c0.928,-0.811 0.991,-1.569 0.188,-2.265c-0.792,-0.685 -2.019,-0.964 -3.671,-0.841c-1.633,0.122 -3.469,0.554 -5.496,1.289c-2.003,0.727 -3.414,1.469 -4.254,2.233c-0.835,0.759 -0.89,1.47 -0.167,2.139Zm230.036,-18.061c-0.786,-0.932 -0.661,-1.55 0.379,-1.853c0.781,-0.221 2.03,-0.302 3.742,-0.246c1.71,0.057 3.689,0.248 5.937,0.577c2.973,0.43 6.528,1.082 10.643,1.953c7.397,1.564 13.604,3.214 18.639,4.953c4.999,1.727 8.066,3.304 9.222,4.736c1.143,1.419 -0.1,2.081 -3.724,1.994c-3.641,-0.088 -9.08,-0.881 -16.354,-2.385c-7.431,-1.537 -13.726,-3.176 -18.869,-4.918c-5.173,-1.753 -8.387,-3.358 -9.615,-4.811Zm-186.981,4.091l6.726,-1.763c-0.018,1.038 -0.922,2.113 -2.695,3.216c-1.756,1.092 -4.297,2.2 -7.587,3.315c-3.984,1.348 -7.541,2.146 -10.695,2.414c-3.094,0.263 -5.201,-0.092 -6.36,-1.054c-1.216,-1.009 -0.994,-2.207 0.673,-3.609c1.685,-1.417 4.494,-2.852 8.492,-4.321c3.575,-1.313 6.83,-2.18 9.747,-2.584c1.76,-0.245 3.338,-0.249 4.733,-0.005l-5.804,2.523c-0.786,-0.193 -1.865,-0.179 -3.234,0.042c-1.358,0.219 -2.823,0.615 -4.391,1.184c-2.143,0.777 -3.656,1.561 -4.56,2.358c-0.897,0.792 -0.893,1.551 0.01,2.28c0.968,0.781 2.309,1.113 4.038,0.993c1.75,-0.121 3.706,-0.552 5.881,-1.299c1.624,-0.558 2.89,-1.15 3.797,-1.775c0.91,-0.63 1.318,-1.268 1.229,-1.915Zm197.598,-1.921c0.853,1.024 2.831,2.077 5.918,3.154c3.075,1.073 6.626,2.027 10.647,2.862c4.006,0.832 7.064,1.253 9.196,1.27c2.122,0.016 2.765,-0.488 1.931,-1.515c-0.827,-1.016 -2.689,-2.038 -5.589,-3.063c-2.914,-1.032 -6.456,-1.987 -10.632,-2.867c-4.197,-0.885 -7.379,-1.342 -9.539,-1.369c-2.161,-0.027 -2.809,0.482 -1.932,1.528Zm-57.604,-15.922l10.958,2.318l3.489,4.011c2.376,0.462 3.908,0.694 4.605,0.698c0.701,0.004 1.59,-0.207 2.669,-0.631c1.352,-0.544 3.046,-0.701 5.076,-0.475c2,0.221 5.458,0.852 10.346,1.885c0.239,0.05 0.747,0.156 1.528,0.317l1.17,1.381l-1.496,-0.32c-2.166,-0.456 -3.708,-0.743 -4.628,-0.859c-0.922,-0.116 -1.612,-0.143 -2.069,-0.079c-0.455,0.064 -1.035,0.268 -1.74,0.616c-0.372,0.185 -0.843,0.306 -1.414,0.363c-0.571,0.056 -1.734,-0.021 -3.496,-0.233c2.484,0.616 4.647,1.265 6.496,1.944c1.847,0.679 3.96,1.534 6.34,2.563l9.197,3.972l-12.312,-2.547l-8.318,-3.686c-0.125,-0.054 -0.388,-0.163 -0.781,-0.323c-0.152,-0.06 -0.721,-0.297 -1.713,-0.716c-1.77,-0.743 -3.148,-1.265 -4.131,-1.565c-0.985,-0.299 -2.387,-0.64 -4.216,-1.025l3.552,4.085l-10.812,-2.237l-8.3,-9.457Z" style="fill:none;stroke:#dc143c;stroke-width:0.75px;stroke-linejoin:miter;stroke-miterlimit:4;"/>
        <path id="letters_c_small_cyr" display="none" d="M522.746,335.687l-4.027,-4.371l-6.499,-1.386l-0.833,-0.9l17.289,3.699l0.808,0.885l-6.378,-1.361l3.997,4.353l-4.357,-0.919Zm-5.716,-1.205l-4.813,-1.014l-3.045,-1.61l-8.896,-1.881l-0.709,0.827l-4.818,-1.015l3.721,-3.521l4.783,1.022l13.777,7.192Zm-10.127,-3.825l-4.921,-2.637l-1.162,1.348l6.083,1.289Zm-397.039,-5.078l-2.941,1.014l-2.239,-0.291l-5.142,1.793l0.006,1.043l-2.681,0.925l0.288,-4.679l2.69,-0.968l10.019,1.163Zm360.251,-5.376l17.309,3.702l0.861,0.913l-12.574,-2.683l1.214,1.274l6.239,1.327c1.714,0.364 3.178,0.715 4.395,1.052c1.214,0.337 2.34,0.723 3.384,1.157c1.039,0.433 1.726,0.827 2.062,1.184c0.345,0.365 0.244,0.595 -0.305,0.687c-0.55,0.092 -1.285,0.079 -2.214,-0.039c-0.927,-0.119 -2.335,-0.377 -4.224,-0.775l-10.888,-2.293l-5.259,-5.506Zm9.064,5.575l4.526,0.955c1.441,0.305 2.436,0.501 2.988,0.591c0.551,0.09 0.985,0.121 1.303,0.094c0.317,-0.028 0.397,-0.128 0.233,-0.3c-0.238,-0.251 -0.787,-0.515 -1.65,-0.789c-0.861,-0.274 -2.206,-0.607 -4.036,-0.994l-4.741,-1.005l1.377,1.448Zm-376.138,0.311l-3.5,-0.485l0.008,1.711l3.492,-1.226Zm344.558,-6.233l-5.508,-5.648l7.344,1.571l8.063,4.752l0.603,-2.898l7.194,1.538l5.301,5.53l-4.404,-0.927l-4.201,-4.367l-0.493,3.378l-4.63,-0.976l-9.04,-5.422l4.3,4.423l-4.529,-0.954Zm-335.467,2.143l4.376,-1.549c-0.498,-0.188 -1.162,-0.253 -1.996,-0.196c-0.827,0.056 -1.733,0.261 -2.717,0.613c-0.74,0.266 -1.286,0.533 -1.64,0.804c-0.352,0.268 -0.509,0.515 -0.468,0.737l-2.903,0.816c-0.157,-0.365 0.1,-0.794 0.772,-1.288c0.676,-0.498 1.768,-1.019 3.29,-1.568c1.999,-0.721 3.825,-1.144 5.466,-1.263c1.656,-0.119 2.895,0.06 3.698,0.539c0.548,0.327 0.749,0.706 0.595,1.134c-0.158,0.427 -0.603,0.873 -1.342,1.334c-0.735,0.458 -1.767,0.917 -3.091,1.373c-3.174,1.095 -5.625,1.429 -7.387,1.023l2.435,-1.153c0.501,0.171 1.121,0.211 1.862,0.121c0.744,-0.091 1.517,-0.276 2.318,-0.554c0.831,-0.289 1.439,-0.601 1.823,-0.937c0.386,-0.336 0.433,-0.676 0.142,-1.018l-4.397,1.545l-0.836,-0.513Zm12.853,-1.638l-5.266,-3.109l4.75,-1.713c1.836,-0.661 3.072,-1.081 3.694,-1.253c0.955,-0.269 1.872,-0.432 2.743,-0.489c0.879,-0.058 1.539,0.039 1.984,0.289c0.343,0.194 0.456,0.419 0.341,0.675c-0.114,0.255 -0.376,0.516 -0.777,0.779c-0.404,0.264 -0.857,0.504 -1.363,0.721c-0.692,0.291 -1.734,0.683 -3.125,1.171l-1.985,0.695l2.035,1.189l-3.031,1.045Zm291.987,-9.211c-0.587,-0.59 -0.696,-1.005 -0.323,-1.242c0.282,-0.172 0.804,-0.269 1.568,-0.292c0.759,-0.023 1.677,0.036 2.745,0.175c1.415,0.183 3.144,0.493 5.181,0.929c3.675,0.786 6.855,1.673 9.553,2.662c2.687,0.986 4.481,1.939 5.382,2.864c0.895,0.914 0.524,1.402 -1.119,1.465c-1.645,0.062 -4.274,-0.287 -7.902,-1.05c-3.692,-0.778 -6.899,-1.659 -9.615,-2.644c-2.729,-0.99 -4.554,-1.946 -5.47,-2.867Zm-293.415,5.564l1.514,0.882l1.654,-0.584c1.203,-0.426 1.985,-0.728 2.335,-0.906c0.355,-0.177 0.585,-0.343 0.698,-0.496c0.113,-0.153 0.087,-0.276 -0.076,-0.369c-0.198,-0.114 -0.527,-0.149 -0.984,-0.107c-0.453,0.043 -0.945,0.144 -1.471,0.303c-0.392,0.116 -1.13,0.369 -2.22,0.759l-1.45,0.518Zm298.623,-4.49c0.648,0.654 1.79,1.286 3.434,1.899c1.638,0.611 3.456,1.128 5.455,1.55c1.993,0.42 3.463,0.599 4.41,0.538c0.948,-0.06 1.097,-0.421 0.451,-1.08c-0.642,-0.654 -1.742,-1.273 -3.301,-1.86c-1.564,-0.589 -3.379,-1.104 -5.456,-1.547c-2.08,-0.445 -3.596,-0.638 -4.55,-0.581c-0.953,0.057 -1.103,0.417 -0.443,1.081Zm-286.495,1.895c-0.576,-0.322 -0.82,-0.679 -0.725,-1.069c0.071,-0.289 0.305,-0.609 0.702,-0.962c0.397,-0.351 0.915,-0.694 1.554,-1.026c0.853,-0.445 1.942,-0.906 3.267,-1.385c2.432,-0.877 4.675,-1.442 6.718,-1.688c2.068,-0.247 3.608,-0.109 4.607,0.418c0.994,0.526 1.005,1.207 0.035,2.04c-0.967,0.826 -2.713,1.674 -5.215,2.536c-2.496,0.861 -4.719,1.39 -6.685,1.594c-1.941,0.202 -3.357,0.049 -4.258,-0.458Zm257.495,-10.372l5.27,1.126l2.522,2.509c1.137,0.221 1.86,0.32 2.158,0.298c0.302,-0.022 0.629,-0.192 0.985,-0.508c0.442,-0.407 1.13,-0.57 2.063,-0.491c0.92,0.075 2.577,0.368 4.961,0.879c0.118,0.025 0.365,0.077 0.744,0.156l0.87,0.872l-0.733,-0.16c-1.058,-0.226 -1.802,-0.362 -2.229,-0.406c-0.43,-0.045 -0.734,-0.037 -0.916,0.02c-0.181,0.058 -0.378,0.213 -0.591,0.467c-0.114,0.136 -0.286,0.232 -0.518,0.288c-0.232,0.058 -0.753,0.047 -1.569,-0.031c1.229,0.319 2.335,0.672 3.311,1.057c0.975,0.384 2.114,0.876 3.414,1.474l5.045,2.319l-6.024,-1.27l-4.558,-2.147c-0.068,-0.033 -0.208,-0.095 -0.423,-0.188c-0.079,-0.034 -0.385,-0.171 -0.924,-0.413c-0.953,-0.427 -1.682,-0.723 -2.183,-0.887c-0.499,-0.162 -1.19,-0.337 -2.076,-0.528l2.58,2.566l-5.219,-1.1l-5.96,-5.902Zm-254.197,9.173c0.651,0.362 1.576,0.487 2.773,0.377c1.207,-0.113 2.481,-0.403 3.831,-0.872c1.359,-0.472 2.308,-0.956 2.838,-1.451c0.535,-0.498 0.45,-0.935 -0.251,-1.311c-0.693,-0.37 -1.631,-0.493 -2.817,-0.371c-1.18,0.12 -2.458,0.428 -3.832,0.921c-1.367,0.489 -2.293,0.97 -2.791,1.446c-0.495,0.475 -0.413,0.895 0.249,1.261Zm28.184,-9.189l4.178,-1.11c0.156,0.569 -0.264,1.177 -1.256,1.822c-0.986,0.642 -2.502,1.314 -4.529,2.013c-2.48,0.856 -4.786,1.399 -6.922,1.638c-2.114,0.236 -3.655,0.096 -4.636,-0.419c-1.032,-0.541 -1.077,-1.229 -0.135,-2.069c0.95,-0.846 2.679,-1.722 5.213,-2.636c2.242,-0.808 4.319,-1.354 6.227,-1.633c1.14,-0.168 2.198,-0.199 3.165,-0.089l-3.475,1.507c-0.562,-0.092 -1.293,-0.062 -2.186,0.09c-0.892,0.15 -1.829,0.401 -2.813,0.753c-1.351,0.485 -2.269,0.961 -2.765,1.432c-0.495,0.468 -0.366,0.897 0.389,1.287c0.802,0.414 1.788,0.565 2.962,0.453c1.182,-0.114 2.449,-0.405 3.803,-0.876c1.008,-0.349 1.764,-0.708 2.269,-1.076c0.507,-0.369 0.678,-0.732 0.511,-1.087Z" style="fill:#dc143c;"/>
    </g>
</svg>  