<?xml version="1.0" encoding="UTF-8" standalone="no"?>
<!DOCTYPE svg PUBLIC "-//W3C//DTD SVG 1.1//EN" "http://www.w3.org/Graphics/SVG/1.1/DTD/svg11.dtd">
<!--Generator: Xara Xtreme (www.xara.com), SVG filter version: 1.0.0.13-->
<svg
  xmlns:xlink="http://www.w3.org/1999/xlink"
  xmlns="http://www.w3.org/2000/svg"
  id="svg_fox"
  preserveAspectRatio="xMinYMin meet"
>
  <defs>
    <marker
    id="DefaultArrowScaled"
    markerUnits="strokeWidth"
    viewBox="0 0 1 1"
    markerWidth="8"
    markerHeight="8"
    overflow="visible"
    orient="auto"
    >
      <g transform="scale(0.0092592592) scale(-1 1)">
        <path d="M -54, 0 C -54,29.807 -29.807,54 0,54 C 29.807,54 54,29.807 54,0 C 54,-29.807 29.807,-54 0,-54 C -29.807,-54 -54,-29.807 -54,0 z"/>
      </g>
    </marker>
  </defs>
  <g transform="translate(1, 399) scale(1.3, -1.3)">
    <path
      id="leading_edge"
      cursor="pointer"
      fill="#ff0040"
      stroke="#000000"
      stroke-width="0.1"
      onmouseover="parent.PanelMouseOver(this.id)"
      onmouseout="parent.PanelMouseOut(this.id)"
      d="M 23.158,116.673 L 144.561,291.087 L 357.41,292.067 L 357.563,294.202 C 286.109,300.697 213.753,303.481 138.566,302.735 C 95.261,241.211 56.74,180.114 21.573,117.62 L 23.158,116.673 Z
         M 207.918,197.278 L 91.87,11.948 L 90.526,12.768 C 126.14,76.009 165.837,138.94 207.499,198.074 C 279.775,198.895 354.015,196.069 426.366,189.649 L 426.287,188.075 L 207.918,197.278 Z"
    />
    <path
      id="top_surface"
      cursor="pointer"
      fill="#7fff00"
      stroke="#000000"
      stroke-width="0.1"
      onmouseover="parent.PanelMouseOver(this.id)"
      onmouseout="parent.PanelMouseOut(this.id)"
      d="M 338.649,291.985 L 144.566,291.089 L 33.28,131.241 L 169.377,243.995 L 338.649,291.985 Z
         M 392.032,182.202 L 238.239,139.257 L 115.648,36.525 L 223.656,167.302 L 392.032,182.202 Z"
    />
    <path
      id="trailing_edge"
      cursor="pointer"
      fill="#ffffff"
      stroke="#000000"
      stroke-width="0.1"
      onmouseover="parent.PanelMouseOver(this.id)"
      onmouseout="parent.PanelMouseOut(this.id)"
      d="M 357.265,289.753 L 357.41,292.067 L 338.637,291.988 L 169.385,244.002 L 33.313,131.262 L 23.159,116.671 L 25.233,115.188 L 30.385,108.319 C 37.926,110.932 45.99,111.977 54.054,111.455 C 59.28,115.562 64.88,119.221 70.778,122.357 C 72.346,123.177 73.988,123.999 75.632,124.746 C 81.977,131.166 88.996,136.841 96.687,141.62 C 104.526,149.758 113.113,157.224 122.371,163.795 C 130.584,171.709 139.47,178.803 148.877,185.074 C 156.642,192.839 165.079,199.783 174.039,205.831 L 185.462,213.522 L 198.23,218.523 C 208.309,222.481 218.837,225.467 229.589,227.484 C 240.117,231.739 250.943,234.95 262.143,237.19 C 272.819,241.147 283.869,243.984 294.995,245.851 C 303.283,249.435 311.944,252.048 320.904,253.616 C 322.396,254.586 323.965,255.408 325.532,256.23 C 331.431,259.365 337.629,261.903 343.974,263.845 C 348.156,270.789 353.606,276.836 360.028,281.616 L 357.265,289.753 Z
         M 115.618,36.487 L 238.243,139.262 L 391.995,182.192 L 426.253,185.228 L 429.02,177.064 C 422.524,172.21 417.074,166.087 412.818,159.144 C 406.471,157.278 400.349,154.739 394.525,151.678 C 392.882,150.781 391.315,149.886 389.597,148.99 C 380.712,147.347 372.051,144.734 363.688,141.15 C 352.563,139.284 341.513,136.371 330.761,132.489 C 319.636,130.249 308.811,126.964 298.208,122.707 C 287.531,120.767 277.078,117.705 266.998,113.823 L 254.455,108.746 L 243.181,101.204 C 234.295,95.157 225.859,88.213 218.168,80.523 C 208.685,74.176 199.876,67.083 191.737,59.243 C 182.404,52.524 173.818,45.207 165.904,37.068 C 158.213,32.215 151.194,26.541 144.848,20.119 C 143.13,19.223 141.413,18.402 139.846,17.58 C 133.947,14.519 128.496,10.861 123.269,6.755 C 115.206,7.202 107.068,6.083 99.377,3.469 L 94.173,10.512 L 115.618,36.487 Z"
    />
    <path
      id="trailing_edge_reinforcement"
      cursor="pointer"
      fill="#ffffff"
      stroke="#000000"
      stroke-width="0.1"
      onmouseover="parent.PanelMouseOver(this.id)"
      onmouseout="parent.PanelMouseOut(this.id)"
      d="M 139.618,23.487 L 248.243,112.262 L 386.995,154.192 L 407.995,163.192 L 428.253,181.228 L 429.02,177.064 C 422.524,172.21 417.074,166.087 412.818,159.144 C 406.471,157.278 400.349,154.739 394.525,151.678 C 392.882,150.781 391.315,149.886 389.597,148.99 C 380.712,147.347 372.051,144.734 363.688,141.15 C 352.563,139.284 341.513,136.371 330.761,132.489 C 319.636,130.249 308.811,126.964 298.208,122.707 C 287.531,120.767 277.078,117.705 266.998,113.823 L 254.455,108.746 L 243.181,101.204 C 234.295,95.157 225.859,88.213 218.168,80.523 C 208.685,74.176 199.876,67.083 191.737,59.243 C 182.404,52.524 173.818,45.207 165.904,37.068 C 158.213,32.215 151.194,26.541 144.848,20.119 C 143.13,19.223 141.413,18.402 139.846,17.58 C 133.947,14.519 128.496,10.861 123.269,6.755 C 115.206,7.202 107.068,6.083 99.377,3.469 L 97.173,6.512 L 122.618,12.487 Z"
    />
    <path
      id="bottom_surface"
      cursor="pointer"
      fill="#0000cd"
      stroke="#000000"
      stroke-width="0.1"
      onmouseover="parent.PanelMouseOver(this.id)"
      onmouseout="parent.PanelMouseOut(this.id)"
      d="M 426.283,185.228 L 426.288,188.074 L 207.92,197.279 L 91.869,11.947 L 94.173,10.511 L 223.664,167.31 L 426.283,185.228 Z"
    />
    <path
      id="keel_pocket"
      cursor="pointer"
      fill="#0000cd"
      stroke="#000000"
      stroke-width="0.1"
      onmouseover="parent.PanelMouseOver(this.id)"
      onmouseout="parent.PanelMouseOut(this.id)"
      d="M 237.247,138.53 L 241.216,135.321 L 242.569,135.712 L 257.047,105.103 L 255.617,104.554 L 252.165,107.451 L 237.247,138.53 Z"
    />
    <path
      id="letters"
      cursor="pointer"
      fill="none"
      stroke="#dc143c"
      stroke-width="0.5"
      opacity="1"
      onmouseover="parent.PanelMouseOver(this.id)"
      onmouseout="parent.PanelMouseOut(this.id)"
      d="M 102.5,203.969 L 100.815,201.585 L 98.738,202.795 L 95.672,198.458 L 96.447,195.405 L 94.805,193.081 L 91.593,206.805 L 93.23,209.121 L 102.5,203.969 Z M 97.196,203.692 L 93.839,205.721 L 95.104,200.731 L 97.196,203.692 Z M 103.321,205.131 L 97.122,214.629 L 102.809,222.675 L 103.858,221.068 L 99.72,215.213 L 101.094,213.108 L 104.944,218.556 L 105.988,216.955 L 102.138,211.508 L 103.825,208.923 L 108.11,214.985 L 109.154,213.385 L 103.321,205.131 Z M 110.473,215.25 L 104.275,224.747 L 107.534,229.359 C 108.353,230.518 109.005,231.276 109.487,231.631 C 109.97,231.986 110.465,232.103 110.973,231.982 C 111.481,231.862 111.919,231.521 112.285,230.96 C 112.75,230.247 112.965,229.419 112.93,228.476 C 112.894,227.533 112.58,226.525 111.985,225.452 C 112.478,225.684 112.928,225.809 113.335,225.828 C 113.742,225.847 114.371,225.749 115.222,225.533 L 117.368,225.005 L 115.516,222.385 L 113.048,222.868 C 112.168,223.044 111.593,223.124 111.321,223.109 C 111.049,223.094 110.808,223.006 110.597,222.846 C 110.387,222.685 110.104,222.353 109.748,221.85 L 109.434,221.406 L 112.022,217.441 L 110.473,215.25 Z M 108.445,222.922 L 109.59,224.543 C 110.333,225.594 110.772,226.289 110.906,226.628 C 111.04,226.967 111.097,227.306 111.078,227.644 C 111.058,227.982 110.956,228.294 110.77,228.579 C 110.561,228.899 110.324,229.059 110.058,229.061 C 109.792,229.062 109.516,228.911 109.231,228.608 C 109.092,228.452 108.708,227.93 108.08,227.041 L 106.872,225.332 L 108.445,222.922 Z M 114.83,230.437 C 114.198,231.404 113.785,232.382 113.59,233.369 C 113.449,234.099 113.404,234.87 113.455,235.681 C 113.506,236.492 113.65,237.245 113.888,237.939 C 114.202,238.865 114.672,239.771 115.296,240.654 C 116.426,242.253 117.613,243.098 118.858,243.189 C 120.103,243.281 121.23,242.554 122.239,241.007 C 123.24,239.474 123.686,237.799 123.578,235.98 C 123.47,234.162 122.853,232.456 121.727,230.862 C 120.586,229.248 119.398,228.396 118.163,228.305 C 116.927,228.215 115.816,228.925 114.83,230.437 Z M 116.383,232.759 C 117.085,231.684 117.818,231.152 118.581,231.165 C 119.344,231.177 120.034,231.62 120.652,232.494 C 121.269,233.367 121.596,234.359 121.632,235.47 C 121.669,236.58 121.328,237.686 120.609,238.788 C 119.899,239.876 119.176,240.416 118.441,240.406 C 117.706,240.396 117.02,239.94 116.381,239.037 C 115.743,238.134 115.405,237.135 115.369,236.04 C 115.332,234.946 115.67,233.852 116.383,232.759 Z M 124.131,240.518 L 125.519,242.831 C 126.018,242.333 126.503,242.133 126.972,242.232 C 127.44,242.33 127.91,242.712 128.381,243.379 C 128.88,244.084 129.17,244.747 129.253,245.366 C 129.335,245.985 129.262,246.469 129.034,246.819 C 128.887,247.044 128.709,247.16 128.5,247.167 C 128.291,247.174 128.016,247.048 127.674,246.79 C 127.442,246.611 126.939,246.164 126.164,245.45 C 125.168,244.531 124.381,244.02 123.804,243.917 C 122.992,243.774 122.34,244.078 121.85,244.829 C 121.534,245.313 121.35,245.922 121.296,246.657 C 121.243,247.391 121.353,248.163 121.626,248.973 C 121.899,249.783 122.33,250.605 122.919,251.439 C 123.882,252.801 124.777,253.565 125.605,253.731 C 126.432,253.896 127.143,253.56 127.737,252.722 L 126.243,250.447 C 125.858,250.842 125.487,250.991 125.13,250.897 C 124.772,250.802 124.376,250.447 123.94,249.83 C 123.49,249.193 123.212,248.58 123.107,247.991 C 123.039,247.612 123.085,247.3 123.246,247.054 C 123.392,246.829 123.595,246.745 123.852,246.803 C 124.18,246.876 124.792,247.336 125.69,248.181 C 126.587,249.027 127.293,249.587 127.807,249.863 C 128.322,250.138 128.814,250.216 129.285,250.096 C 129.755,249.977 130.186,249.617 130.578,249.017 C 130.933,248.472 131.144,247.79 131.21,246.97 C 131.276,246.149 131.161,245.307 130.865,244.445 C 130.57,243.582 130.089,242.679 129.423,241.737 C 128.453,240.365 127.527,239.589 126.645,239.409 C 125.764,239.228 124.925,239.598 124.131,240.518 Z"
    />
    <g
      fill="#000000"
      stroke="none"
      stroke-width="0.0"
      font-size="10.0"
      font-family="Arial"
    >
    <text transform="translate(288.519 77.073) scale(1 -1)">Keel pocket (KP)</text>
    <text transform="translate(211.485 46.989) scale(1 -1)">Trailing Edge (TE)</text>
    <text transform="translate(16.704 250.197) scale(1 -1)">Top Surface (TS)</text>
    <text transform="translate(21.842 286.624) scale(1 -1)">Leading Edge (LE)</text>
    <text transform="translate(352.335 251.249) scale(1 -1)">Trailing Edge (TE)</text>
    <text transform="translate(248.325 210.782) scale(1 -1)">Bottom Surface (BS)</text>
    <text transform="translate(367.691 205.225) scale(1 -1)">Leading Edge (LE)</text>
    <text transform="translate(354.391 123.02) scale(1 -1)">Top Surface (TS)</text>
    <text transform="translate(211.391 23.02) scale(1 -1)">Trailing Edge reinforcement (TR) **</text>
    <text transform="translate(181.391 3.02) scale(1 -1)">** applied if trailing edge is made of dacron</text>
    <text id="legend_letters" transform="translate(22.38 221.889) scale(1 -1)">Letters (L)</text>
    </g>
    <g
      fill="none"
      stroke="#000000"
      marker-start="url(#DefaultArrowScaled)"
      stroke-width="0.4"
    >
    <path d="M 125.412,274.119 L 105.162,280.5 L 19.758,280.5"/>
    <path d="M 133.216,260.012 L 94.903,244.8 L 15.887,244.8"/>
    <path d="M 313.186,277.005 L 352.305,246.4 L 435.572,246.4"/>
    <path d="M 209.175,176.718 L 250.224,206.4 L 342.98,206.4"/>
    <path d="M 326.596,194.418 L 364.74,200.47 L 450.144,200.47"/>
    <path d="M 263.925,157.218 L 351.136,117.319 L 430.152,117.319"/>
    <path d="M 175.945,69.798 L 208.136,41.2 L 293.54,41.2"/>
    <path d="M 170.216,45.012 L 208.136,17.8 L 365.887,17.8"/>
    <path d="M 246.055,123.938 L 284.418,72.1 L 363.298,72.1"/>
    <path
      id="legend_line"
      style="fill:none; stroke-width:0.4;"
      marker-start="url(#DefaultArrowScaled)"
      d="M 109.214,228.012 L 71.678,214.26 L 15.673,214.26"
    />
  </g>
  </g>
</svg>
