<?xml version="1.0" encoding="UTF-8" ?> <!-- 1.13 -->
<svg viewBox="0 0 705 490" version="1.1" xmlns="http://www.w3.org/2000/svg" xmlns:xlink="http://www.w3.org/1999/xlink" xml:space="preserve" x="0px" y="0px" id="dsc_svg" preserveAspectRatio="xMinYMin meet">
	<g id="bottom">
		<path id="leading_edge_bv" onmousedown="parent.PanelClick('leading_edge', evt)" onmouseover="parent.PanelMouseOver('leading_edge')" onmouseout="parent.PanelMouseOut('leading_edge')" d="M700.74,420.11c-30.8,-10.33 -45.43,-12.62 -45.43,-12.62l-6.46,0c-5.8,-1.47 -11.14,-2.78 -15.57,-3.83c-17,-4.02 -106.02,-23.95 -172.38,-39.3c-66.36,-15.36 -323.32,-73.7 -350.15,-77.05l2.33,8.09l-9.08,1.02l-9.14,-7.25c-39.21,49.56 -60.07,83.96 -78.16,114.94c-2.96,5.08 -10.94,20.81 -10.94,20.81c0,0 -1.99,-3.1 -0.85,-7.01c7.5,-25.69 41.77,-79.7 86.74,-144.05c0,0 2.78,-3.63 15.95,-1.17c60.46,11.31 340.14,71.91 523.85,123.46c0.01,0.01 44.79,13.18 69.29,23.96Z" style="fill:#fff;fill-rule:nonzero;stroke:#000;stroke-width:0.5px;stroke-miterlimit:1;"/>
		<path id="bottom_surface_bv" onmousedown="parent.PanelClick('bottom_surface', evt)" onmouseover="parent.PanelMouseOver('bottom_surface')" onmouseout="parent.PanelMouseOut('bottom_surface')" d="M14.97,431.74l158.03,-83.83l505.29,67.5c-16.03,-4.58 -33.55,-9.03 -45.01,-11.74c-17,-4.02 -106.02,-23.95 -172.38,-39.3c-66.36,-15.36 -323.32,-73.7 -350.15,-77.05l2.33,8.09l-9.08,1.02l-9.14,-7.25c-39.21,49.56 -60.07,83.96 -78.16,114.94c-2.96,5.08 -10.94,20.81 -10.94,20.81c1.23,2.85 5.54,5.23 9.21,6.81Z" style="fill:#0000cd;fill-rule:nonzero;"/>
		<path id="rear_line_bv" onmousedown="parent.PanelClick('rear_line', evt)" onmouseover="parent.PanelMouseOver('rear_line')" onmouseout="parent.PanelMouseOut('rear_line')" d="M20.62,433.8l21.87,0.75l19.38,-3.84l33.45,-16.63l106.48,-46.8l211.41,26.69l123.66,17.41l65.53,9.87l61.42,2.33l35.83,-1.65c-6.2,-2.09 -13.6,-4.33 -21.35,-6.54l-505.3,-67.48l-158.04,83.83c3.06,1.31 5.66,2.06 5.66,2.06Z" style="fill:#1e7aff;"/>
		<path id="middle_line_bv" onmousedown="parent.PanelClick('middle_line', evt)" onmouseover="parent.PanelMouseOver('middle_line')" onmouseout="parent.PanelMouseOut('middle_line')" d="M691.85,419.42c-4.26,-1.32 -8.84,-2.68 -13.55,-4.02l-505.3,-67.49l-158.04,83.83c1.65,0.71 3.17,1.25 4.21,1.6l157.85,-82.65l514.83,68.73Z" style="fill:#fff;"/>
		<path id="trailing_edge_bv" onmousedown="parent.PanelClick('trailing_edge', evt)" onmouseover="parent.PanelMouseOver('trailing_edge')" onmouseout="parent.PanelMouseOut('trailing_edge')" d="M699.64,421.94l-35.83,1.65l-61.42,-2.33l-65.53,-9.87l-123.66,-17.42l-211.41,-26.69l-106.48,46.8l-33.45,16.63l-19.38,3.84l-21.87,-0.75c10.56,2.88 27.08,4.04 27.08,4.04c5.03,-1.37 21.2,-1.74 21.2,-1.74c5.39,-3.93 15.9,-7.22 15.9,-7.22l17.82,-7.77l79.15,-33.18c0,0 20.66,-7.68 34,-8.59c8.44,-0.58 51.37,2.92 51.37,2.92l151.68,19.65l56.71,8.32c39.94,3.93 64.8,8.87 64.8,8.87c24.86,1.28 65.44,8.23 65.44,8.23c23.22,1.37 61.15,1.55 61.15,1.55c31.36,-0.82 32.73,-6.94 32.73,-6.94Z" style="fill:#fff;fill-opacity:0.85;stroke:#000;stroke-width:0.5px;stroke-miterlimit:1;"/>
		<path id="trailing_edge_rf_bv" onmousedown="parent.PanelClick('trailing_edge', evt)" onmouseover="parent.PanelMouseOver('trailing_edge')" onmouseout="parent.PanelMouseOut('trailing_edge')" d="M663.81,423.58l35.83,-1.65c0,0 -1.37,6.12 -32.72,6.95c0,0 -37.93,-0.18 -61.15,-1.55c0,0 -40.58,-6.95 -65.44,-8.23c0,0 -2.76,-0.55 -7.92,-1.42l5.75,-2.97l64.23,6.54l61.42,2.33Zm-179.95,-12.48l-11.03,-5.48l-3.67,3.69l6.38,0.94c2.85,0.27 5.62,0.56 8.32,0.85Zm-57.31,-8.04c-0.27,-0.04 -10.38,-5.96 -10.38,-5.96l-3.24,4.06l5.89,0.76l7.73,1.14Zm-54.94,-7.25l-9.2,-6.16l-2.28,4.67l11.48,1.49Zm-51.81,-6.72l-11.48,-6.32l-1.8,4.6l13.28,1.72Zm-46.71,-6.05l-10.838,-5.75l-60.701,-7.42l-26.446,12.84l0.985,7.61l5.68,-2.38c0,0 20.66,-7.68 34,-8.59c8.44,-0.58 51.37,2.92 51.37,2.92l5.95,0.77Zm-116.8,15.58l7.87,-3.3l-8.03,-3.13l0.16,6.43Zm-20.82,8.73l7.31,-3.07l-6.74,-3.66l-0.57,6.73Zm-18.06,7.57l6.35,-2.66l-5.85,-3.36l-0.5,6.02Zm-18.51,7.82l3.72,-1.62l2.66,-1.12c-0.21,0.09 -6.38,-2.51 -6.38,-2.51l0,5.25Zm-11.94,5.2l-5.47,-3.02l-18.15,7.13l-20.85,2.5l-21.87,-0.75c10.56,2.88 27.08,4.04 27.08,4.04c5.03,-1.37 21.2,-1.74 21.2,-1.74c5.39,-3.93 15.9,-7.22 15.9,-7.22l2.16,-0.94Z" style="fill:#fff;fill-opacity:0.97;fill-rule:nonzero;stroke:#000;stroke-width:0.25px;stroke-miterlimit:1;"/>
		<path id="battens_bv" onmousedown="parent.PanelClick('battens', evt)" onmouseover="parent.PanelMouseOver('battens')" onmouseout="parent.PanelMouseOut('battens')" d="M663.81,423.58l2.65,3.56l-2.65,0l-3.2,-3.69l3.2,0.13Zm-57.58,1.34l-2.93,-3.64l-0.91,-0.03l-1.67,-0.25l2.95,3.92l2.56,0Zm-73.82,-14.16l3.8,5.03l2.93,0.22l-3.68,-4.81l-3.05,-0.44Zm-66.15,-9.32l4.8,5.55l2.94,0l-4.34,-5.07l-3.4,-0.48Zm-55.95,-7.83l4.38,5.28l3.28,0.39l-4.34,-5.24l-3.32,-0.43Zm-107.22,-13.54l4.71,5.05l3.05,0.36l-4.68,-5.02l-3.08,-0.39Zm-46.34,-5.85l5.17,5l2.67,0.34l-5.15,-5l-2.69,-0.34Zm-44.09,-5.57l8.14,7.32l2.76,0.23l-8.03,-7.2l-2.87,-0.35Zm-40.4,11.61l6.48,5.58l1.2,-0.68l-6.37,-5.48l-1.31,0.58Zm-20.88,9.18l5.41,4.96l1.06,-0.63l-5.29,-4.85l-1.18,0.52Zm-19.84,8.72l4.99,4.82l1.35,-0.67l-5.11,-4.69l-1.23,0.54Zm-18.55,8.15l5.43,4.98l1.28,-0.74l-5.3,-4.86l-1.41,0.62Zm-18.67,8.26l4.86,4.82l1.12,-0.58l-4.99,-4.74l-0.99,0.5Zm-16.7,8.3l4.49,4.04l1.01,-0.51l-4.48,-4.04l-1.02,0.51Zm-15.76,7.84l3.56,3.23l1,-0.63l-3.44,-3.15l-1.12,0.55Zm-19.38,3.84l1.86,1.47l1.83,-0.3l-1.96,-1.51l-1.73,0.34Zm314.75,-47.65l4.57,5.13l3.05,0.36l-4.52,-5.1l-3.1,-0.39Z" style="fill:#0000cd;fill-rule:nonzero;"/>
		<path id="bsstroke" d="M5.77,424.92c1.22,2.86 5.54,5.24 9.2,6.81c3.05,1.31 5.65,2.06 5.65,2.06" style="fill:none;stroke:#000;stroke-width:0.5px;stroke-miterlimit:1;"/>
		<path id="bb" d="M648.85,407.49c16.47,4.19 36.73,9.72 50.79,14.45l1.1,-1.83c-30.8,-10.33 -45.43,-12.62 -45.43,-12.62l-6.46,0Z" style="fill-rule:nonzero;stroke:#000;stroke-width:0.5px;stroke-miterlimit:1;"/>
		<path d="M202.67,292.44l13.84,-31.91c2.56,0 4.27,5.65 4.27,5.65l-11.97,27.6l-6.14,-1.34Z" style="fill:#dbdbdb;fill-rule:nonzero;stroke:#000;stroke-width:0.5px;stroke-miterlimit:1;"/>
		<path d="M286.66,447.74c-54.98,-45.07 -101.96,-86.58 -101.96,-86.58l0.64,-1.33c1.27,-1.88 4.11,-1.05 4.11,-1.05c0,0 45.7,42.68 100.01,86.33c0.01,0 -0.94,2.63 -2.8,2.63Z" style="fill:#dbdbdb;fill-rule:nonzero;stroke:#000;stroke-width:0.5px;stroke-miterlimit:1;"/>
		<path id="keelp" d="M202.21,367.33l13.03,12.05c0,0 -0.54,2.75 -1.75,4.47c-0.98,1.39 -2.49,1.41 -3.5,0.58c-1.01,-0.82 -18.1,-16.35 -18.1,-16.35c0,0 2.1,-0.9 3.03,-4.27l-5.46,-5.04l12.75,8.56Z" style="fill:#fff;fill-rule:nonzero;stroke:#000;stroke-width:0.5px;"/>
		<path d="M187.81,366.23l-25.44,110.13c-0.3,1.3 -1.3,2.61 -2.71,2.8l-16.4,-0.72c-0.23,-0.01 -0.45,-0.05 -0.67,-0.13l-18.64,-6.33c-0.68,-0.21 -1.39,-0.34 -2.1,-0.37l-34.48,-1.1c-1.24,0.23 -2.28,0.62 -2.93,1.45l-1.66,2.13c-0.5,0.65 -1.28,1.01 -2.1,0.98l-8.12,-0.33c-0.32,-0.01 -0.41,-0.79 0.26,-1.2l114.99,-107.31Zm-2.58,-4.6l-118.36,111.43c-1.36,2.17 1.46,3.43 3.21,3.55l11.51,0.45c0.86,0.06 2.33,-0.34 2.89,-0.99l1.79,-2.07c0.28,-0.32 0.69,-0.5 1.11,-0.47l35.15,1.05c0.16,0 0.31,0.03 0.46,0.08l16.91,5.62c0.31,0.1 0.63,0.16 0.95,0.18l20.35,0.98c3.05,0.14 6.41,-2.98 6.76,-4.66l25.33,-114.36l-3.56,-3.37l-1.28,5.41l-3.22,-2.83Z" style="fill:#dbdbdb;fill-rule:nonzero;stroke:#000;stroke-width:0.5px;stroke-miterlimit:1;"/>
	</g>
	<g id="top">
		<path id="rear_line_tv" d="M686.27,228.84l-325.86,-148.44l-252.52,47.22c-1.42,0.84 -2.4,1.64 -3.06,2.39l5.86,0.81l15.22,0.16l208.95,-32.28l232.96,120.12l63.75,22.75l63.35,8.43c-2.68,-7.76 -5.63,-14.83 -8.65,-21.16Z" style="fill:#1e7aff;fill-rule:nonzero;"/>
		<path id="middle_line_tv" d="M107.88,127.62c-0.61,0.36 -1.14,0.72 -1.6,1.07l248.54,-44.87l335.88,155.04c-1.45,-3.52 -2.94,-6.86 -4.44,-10.02l-325.85,-148.44l-252.53,47.22Z" style="fill:#fff;fill-rule:nonzero;"/>
		<path id="bottom_surface_tv" d="M107.88,127.62l252.53,-47.22l325.87,148.44c-9.11,-19.12 -18.85,-31.6 -23.71,-36.52c-12.75,-12.92 -165,-107.75 -260.92,-157.92l-6.14,-0.33l-3.6,0.33c-75.12,21.38 -169.94,51.03 -169.94,51.03c-79.01,26.73 -113.77,42.01 -113.77,42.01c-0.12,0.06 -0.22,0.12 -0.32,0.18Z" style="fill:#0000cd;fill-rule:nonzero;"/>
		<path id="ribs" d="M608.66,163.66l6.66,3.26l-35.08,39.14l-1.15,-2.49c10.08,-14.14 19.79,-27.8 29.57,-39.91Zm-83.75,13.93l0.9,1.85l44.42,-41.12l-8.46,-4.23c-8.96,9.67 -21.13,24.18 -36.86,43.5Zm-45.21,-21.3l0.94,1.6l49.5,-42.75l-10.61,-5.61c-9.1,9.8 -25.14,28.98 -39.83,46.76Zm-334.48,-42.81c-4.45,3.22 -10.31,8.19 -16.18,13.23l0.36,0.69l18.92,-12.38l-3.1,-1.54Zm12.36,7.89l0.49,1.32l31.67,-22.11l-5.07,-1.44c-5.56,4.13 -17.05,13.9 -27.09,22.23Zm27.76,-4.23l0.34,0.86l40.25,-27.88l-6.73,-2.5c-6.62,5.53 -21.79,19.04 -33.86,29.52Z" style="fill:#fff;fill-rule:nonzero;"/>
		<path id="battens_tv" d="M662.56,192.32c-9.88,10.75 -35.17,62.42 -35.17,62.42l-2.56,-1.1c0,0 25.7,-52.48 35.57,-63.23l2.16,1.91Zm-52.01,-35.55c-18.36,21.79 -36.22,49.45 -56.56,76.28l2.41,1.68c20.33,-26.83 38.27,-54.59 56.64,-76.38l-2.49,-1.58Zm-108.65,49.3c30.83,-38.33 51.84,-64.01 64.5,-76.84l-2.37,-1.45c-12.66,12.83 -33.54,38.34 -64.37,76.68l2.24,1.61Zm-43,-24.5c19.5,-23.67 56.87,-69.5 66.02,-77.42l-2.12,-1.26c-9.15,7.92 -46.29,53.47 -65.79,77.14l1.89,1.54Zm-33.34,-20.17c13,-14.83 57.63,-65.97 68.25,-75.59l-1.9,-1.11c-10.62,9.62 -55.11,60.56 -68.11,75.39l1.76,1.31Zm38.42,-92.79c-11.34,10.04 -47.02,53.29 -69.68,74.97l1.6,1.15c22.67,-21.68 58.5,-65.08 69.83,-75.12l-1.75,-1Zm-24.32,-13.67c-11.2,9.4 -47.56,56.71 -69.2,74.5l1.48,1c21.65,-17.79 58.13,-65.21 69.33,-74.61l-1.61,-0.89Zm-19.95,-10.93c-12.56,11.66 -49.47,56.87 -70.84,73.2l1.7,0.86c21.38,-16.33 58.22,-61.51 70.78,-73.17l-1.64,-0.89Zm-87.86,65.14c21.37,-18.63 61.32,-64.62 71.91,-73.64l-1.27,-0.67c-10.59,9.02 -50.64,55.1 -72.01,73.73l1.37,0.58Zm53.25,-72.81c-5.96,5.27 -50.54,55.23 -70.5,71.45l2.02,-0.18c19.96,-16.23 65.01,-66.71 70.97,-71.99l-2.49,0.72Zm-36.15,10.52c-4.41,3.87 -38.78,43.13 -64.11,64.48l2.47,-0.4c26.5,-22.46 59.93,-61 64.34,-64.88l-2.7,0.8Zm-30.09,8.94c-5.18,4.37 -48.91,48.56 -64.08,60.35l1.86,-0.3c15.17,-11.8 59.39,-56.39 64.57,-60.76l-2.35,0.71Zm-36.7,11.09c-7.86,6.49 -40.24,41.26 -58.32,54.23l2.22,-0.36c18.08,-12.97 50.91,-48.2 58.77,-54.69l-2.67,0.82Zm-30.74,9.41c-6.63,5.13 -38.46,35.21 -55.67,49.33l2.08,-0.33c17.22,-14.11 49.49,-44.64 56.11,-49.77l-2.52,0.77Zm-32.48,10.15c-5.19,3.69 -41.28,36.39 -50.66,43.51l2.16,-0.27c9.38,-7.13 46.33,-40.57 51.52,-44.26l-3.02,1.02Zm-76.13,46.74c10.17,-7.38 38.72,-32.47 44.25,-35.71l-2.29,0.81c-5.53,3.24 -33.69,27.76 -43.85,35.13l1.89,-0.23Zm2.38,-20.45c-7.11,4.59 -18.53,15.07 -28.24,23.19l0.98,0.26c9.71,-8.13 22.57,-19.78 29.68,-24.37l-2.42,0.92Zm-28.4,11.1c-4.85,4.11 -12.61,10.85 -12.61,10.85l0.74,0.02c3.38,-2.63 8.67,-7.44 13.52,-11.54l-1.65,0.67Z" style="fill:#0000cd;fill-rule:nonzero;"/>
		<path id="trailing_edge_rf_tv" d="M209.79,113.57c-1.68,1.48 -3.32,2.93 -4.92,4.32m483.65,115.84c2.23,5.02 4.39,10.45 6.4,16.27c-10.47,3.16 -36.82,9.49 -67.52,4.74c0,0 -20.17,-9.5 -71,-20c0,0 -14.17,-10.83 -54.5,-28.67c0,0 -1.87,-1.43 -5.49,-3.83l12.08,-4.36l56.94,24.69l68.76,18.62l54.33,-7.46Zm-224.98,-49.97c-1.51,-0.73 -3.05,-1.46 -4.64,-2.2c0,0 -1.34,-1.25 -4.9,-3.72l10.64,-3.25l-1.1,9.17Zm-34.54,-20.58c-1.11,-0.58 -2.25,-1.17 -3.44,-1.78c0,0 -1.39,-1.12 -4.22,-3l9.52,-3.04l-1.86,7.82Zm-29.76,-16.92c-1.08,-0.5 -2.19,-1.01 -3.34,-1.52c0,0 -1.47,-1.09 -3.82,-2.7l9.21,-2.61l-2.05,6.83Zm-24.88,-14.75c-0.82,-0.38 -1.63,-0.74 -2.42,-1.06c0,0 -1.54,-1.07 -4.02,-2.66l8.37,-1.11l-1.93,4.83Zm70.49,7.91l0.96,7.65l-9.41,1.96c2.61,-2.97 5.46,-6.21 8.45,-9.61Zm-37.64,-6.09c2.33,-2.44 4.72,-4.99 7.14,-7.6l0.34,6.34l-7.48,1.26Zm-74.07,-33.54l23.46,13.28l-2.81,6.55l0.01,0c-1.07,-0.54 -2.16,-1.06 -3.23,-1.56c0,0 -18.92,-9.62 -23.67,-10.75c-4.46,-1.06 -39.58,3.62 -39.58,3.62l-5.74,0.92l8.004,-4.62l43.556,-7.44Zm-73.93,15.66l-6,0.96l5.6,-3.56l0.4,2.6Zm-25.91,-1.88l-1.54,-3l6.48,-1.35c-1.68,1.51 -3.33,2.97 -4.94,4.35Zm-11.72,7.92l7.03,-4.01l0.37,2.82l-7.4,1.19Zm-16.71,-3.6l-1.64,-2.82l6.56,-1.5m-16.05,12.39l5.94,-3.6l0.72,2.54l-6.66,1.06Zm-23.3,3.73l-3.79,0.48l5.92,-3.66l0.58,2.75l-2.71,0.43Zm-63.68,-1.35l3.83,1.63l12.32,2.01l22.28,-1.81l1.29,2.56l-3.67,0.46l-24.87,3c0,0 -3.62,-1.25 -13.75,-1.5c0,0 -2.56,-2.77 2.57,-6.35Z" style="fill:#fff;fill-opacity:0.97;fill-rule:nonzero;stroke:#000;stroke-width:0.25px;stroke-miterlimit:1;"/>
		<path id="top_surface_rf_tv" d="M678.4,214.04l-24.09,-9.78c3.2,-5.29 6.1,-9.59 8.26,-11.94c3.46,3.51 9.41,10.86 15.83,21.72Zm-168.09,-118.55c2.5,1.48 5,2.96 7.49,4.43l-4.86,2.97l-8,-4.45l5.37,-2.95Zm-281.13,-12.31c1.95,-0.61 4.26,-1.32 6.9,-2.14l-1.64,2.53l-7,2.06l1.74,-2.45Zm155.92,-46.84c-5.96,5.27 -50.54,55.23 -70.5,71.45c5.89,-0.54 10.81,-0.83 12.3,-0.47c1.06,0.25 2.84,0.93 4.96,1.83c21.37,-18.63 61.32,-64.62 71.91,-73.64c-0.71,-0.37 -1.41,-0.74 -2.12,-1.11l-6.14,-0.33l-3.6,0.33c-2.26,0.64 -4.53,1.29 -6.81,1.94Z" style="fill:#fff;fill-opacity:0.97;fill-rule:nonzero;stroke:#000;stroke-width:0.25px;stroke-miterlimit:1;"/>
		<path id="trailing_edge_tv_s" display="none" onmousedown="parent.PanelClick('trailing_edge', evt)" onmouseover="parent.PanelMouseOver('trailing_edge')" onmouseout="parent.PanelMouseOut('trailing_edge')" d="M104.82,130.01c-2.43,2.73 -0.64,4.68 -0.64,4.68c10.12,0.25 13.75,1.5 13.75,1.5l24.87,-3l27.62,-3.5l116.88,-18.75c0,0 35.12,-4.68 39.58,-3.62c4.75,1.12 23.67,10.75 23.67,10.75c10.38,4.75 21.38,12.38 21.38,12.38c10.38,4.25 23.96,14.29 23.96,14.29c20.17,9 29.67,16.67 29.67,16.67c26,13.33 33.33,20.17 33.33,20.17c27.67,12.83 43,24.5 43,24.5c40.33,17.83 54.5,28.67 54.5,28.67c50.83,10.5 71,20 71,20c30.7,4.75 57.05,-1.58 67.52,-4.74l-352.35,-160.61l-237.74,40.61Z" style="fill:#fff;fill-opacity:0.84;fill-rule:nonzero;stroke:#000;stroke-width:0.5px;stroke-miterlimit:1;"/>
		<path id="trailing_edge_tv_c" onmousedown="parent.PanelClick('trailing_edge', evt)" onmouseover="parent.PanelMouseOver('trailing_edge')" onmouseout="parent.PanelMouseOut('trailing_edge')" d="M110.81,128.99l5.98,-5.15c-5.81,2.37 -8.61,3.6 -8.61,3.6c-7,4 -4,7.25 -4,7.25c10.12,0.25 13.75,1.5 13.75,1.5l24.88,-3l27.62,-3.5l116.88,-18.75c0,0 35.12,-4.68 39.58,-3.62c4.75,1.12 23.67,10.75 23.67,10.75c10.38,4.75 21.38,12.38 21.38,12.38c10.38,4.25 23.96,14.29 23.96,14.29c20.17,9 29.67,16.67 29.67,16.67c26,13.33 33.33,20.17 33.33,20.17c27.67,12.83 43,24.5 43,24.5c40.33,17.83 54.5,28.67 54.5,28.67c50.83,10.5 71,20 71,20c30.7,4.75 57.05,-1.58 67.52,-4.74c-10.77,-31.18 -25.88,-51.12 -32.35,-57.68c-4.75,5.17 -13.07,19.82 -20.43,33.62l-299.58,-136.55l-231.75,39.59Z" style="fill:#fff;fill-opacity:0.84;fill-rule:nonzero;stroke:#000;stroke-width:0.5px;stroke-miterlimit:1;"/>
		<path id="top_surface_tv_s" display="none" onmousedown="parent.PanelClick('top_surface', evt)" onmouseover="parent.PanelMouseOver('top_surface')" onmouseout="parent.PanelMouseOut('top_surface')" d="M694.92,249.99c-10.77,-31.18 -25.88,-51.12 -32.35,-57.68c-12.75,-12.92 -165,-107.75 -260.92,-157.92l-6.14,-0.33l-3.6,0.33c-75.12,21.38 -169.94,51.03 -169.94,51.03c-79.01,26.73 -113.77,42.01 -113.77,42.01c-1.58,0.9 -2.65,1.77 -3.36,2.57l237.72,-40.6l352.36,160.59Z" style="stroke:#000;stroke-width:0.5px;stroke-miterlimit:1;"/>
		<path id="top_surface_tv_c" onmousedown="parent.PanelClick('top_surface', evt)" onmouseover="parent.PanelMouseOver('top_surface')" onmouseout="parent.PanelMouseOut('top_surface')" d="M116.79,123.84c14.67,-5.99 48.57,-19.27 105.17,-38.41c0,0 94.81,-29.65 169.94,-51.03l3.6,-0.33l6.14,0.33c95.92,50.17 248.17,145 260.92,157.92c-4.75,5.17 -13.07,19.82 -20.43,33.62l-299.57,-136.54l-231.75,39.59l5.98,-5.15Z" style="fill:#fff;fill-opacity:0.84;fill-rule:nonzero;"/>
		<path id="letters_a" display="none" onmouseover="parent.PanelMouseOver('letters_a')" onmouseout="parent.PanelMouseOut('letters_a')" d="M347.876,53.867l4.409,-1.39c0,0 -0.067,0.093 -0.073,0.135c-0.053,0.23 0.961,0.021 3.04,-0.634c1.529,-0.481 2.534,-0.839 3.017,-1.061c0.488,-0.234 0.731,-0.393 0.748,-0.478c0.016,-0.066 -0.087,-0.083 -0.337,-0.037c-0.232,0.033 -0.563,0.108 -0.952,0.199c-0.394,0.103 -0.855,0.229 -1.382,0.377c-0.513,0.152 -1.012,0.286 -1.498,0.431c-1.072,0.297 -1.948,0.533 -2.625,0.708c-0.677,0.176 -1.258,0.285 -1.719,0.339c-0.461,0.054 -0.682,0.003 -0.645,-0.16c0.033,-0.151 0.338,-0.391 0.858,-0.675c0.519,-0.296 1.431,-0.696 2.701,-1.178c1.281,-0.483 2.974,-1.07 5.108,-1.746c2.502,-0.789 4.237,-1.266 5.2,-1.449c0.942,-0.174 1.396,-0.168 1.349,0.031c-0.006,0.03 -0.037,0.092 -0.12,0.169l-4.212,1.33c0.027,-0.109 -0.158,-0.121 -0.537,-0.054c-0.368,0.066 -1.062,0.254 -2.088,0.577c-1,0.316 -1.829,0.609 -2.502,0.873c-0.652,0.257 -0.989,0.446 -1.011,0.543c-0.016,0.066 0.104,0.07 0.357,0.03c0.284,-0.06 0.601,-0.129 0.995,-0.232c0.414,-0.111 1.014,-0.281 1.772,-0.497c1.559,-0.442 2.807,-0.774 3.698,-1.005c0.865,-0.212 1.521,-0.35 1.894,-0.386c0.378,-0.037 0.553,0.017 0.516,0.15c-0.043,0.206 -0.397,0.479 -1.08,0.839c-0.68,0.367 -1.686,0.796 -2.987,1.286c-1.281,0.495 -2.87,1.04 -4.71,1.619c-1.953,0.616 -3.491,1.062 -4.584,1.336c-1.112,0.282 -1.864,0.426 -2.256,0.44c-0.397,0.026 -0.584,-0.039 -0.553,-0.172c0.047,-0.086 0.109,-0.168 0.209,-0.258Zm-11.035,4.386c1.306,-0.431 2.502,-0.861 3.581,-1.271c1.445,-0.559 2.644,-1.067 3.602,-1.534c0.954,-0.474 1.676,-0.872 2.149,-1.225c0.493,-0.348 0.758,-0.615 0.807,-0.821c0.042,-0.175 -0.098,-0.285 -0.422,-0.312c-0.315,-0.033 -0.827,0.019 -1.485,0.133c-0.684,0.123 -1.507,0.313 -2.521,0.594c-1.01,0.269 -2.201,0.615 -3.523,1.029c-0.649,0.204 -1.031,0.336 -1.513,0.498c-1.466,0.484 -2.592,0.897 -3.512,1.243c-1.464,0.549 -2.671,1.074 -3.64,1.543c-0.975,0.481 -1.703,0.88 -2.195,1.239c-0.514,0.356 -0.79,0.636 -0.828,0.829c-0.042,0.175 0.139,0.282 0.526,0.311c0.382,0.04 1.194,-0.085 2.401,-0.342c1.212,-0.27 2.946,-0.759 5.164,-1.458c0.479,-0.157 0.946,-0.313 1.409,-0.456m0.131,-0.551c-0.336,0.118 -0.693,0.231 -1.063,0.344c-0.471,0.15 -0.995,0.303 -1.543,0.458c-0.553,0.156 -1.061,0.255 -1.543,0.304c-0.486,0.062 -0.718,-0.006 -0.664,-0.224c0.032,-0.151 0.276,-0.382 0.687,-0.682c0.42,-0.296 1.095,-0.65 2.033,-1.069c0.685,-0.307 1.523,-0.624 2.519,-0.957c0.316,-0.11 0.647,-0.215 1.005,-0.328c1.046,-0.33 1.853,-0.556 2.413,-0.67c0.581,-0.121 0.968,-0.165 1.143,-0.129c0.196,0.029 0.283,0.113 0.252,0.246c-0.032,0.151 -0.281,0.393 -0.687,0.682c-0.44,0.303 -1.115,0.657 -2.059,1.076c-0.705,0.314 -1.544,0.631 -2.493,0.949m-55.893,17.653l0.365,0.393l4.88,-1.541l-2.568,-1.916l-4.734,1.496l-12.316,6.613l5.019,-1.586l2.123,-1.175l7.231,-2.284Zm-0.167,-0.412l-0.725,-0.816l-4.394,2.432l5.119,-1.616Zm12.174,-5.598l-4.928,4.283l15.971,-5.043l0.955,-0.83l-11.282,3.562l1.094,-0.959l9.699,-3.06l0.905,-0.791l-9.699,3.059l0.985,-0.862l11.045,-3.487l0.955,-0.831l-15.7,4.959Zm24.979,-7.354l-2.901,0.917l-1.253,1.094l4.284,-1.353c1.224,-0.384 2.159,-0.725 2.764,-0.991c0.63,-0.273 0.955,-0.461 0.987,-0.582c0.057,-0.225 -0.914,-0.024 -2.841,0.585l-1.04,0.33m4.219,-0.384c1.45,-0.5 2.581,-0.955 3.392,-1.36c0.84,-0.418 1.257,-0.719 1.309,-0.919c0.038,-0.163 -0.141,-0.235 -0.585,-0.194c-0.422,0.046 -0.977,0.147 -1.646,0.316c-0.649,0.162 -1.276,0.328 -1.887,0.511c-0.611,0.183 -1.227,0.378 -1.809,0.559l-9.661,3.051l-4.855,4.261l4.688,-1.481l1.805,-1.571l3.601,-1.135c0.404,-0.128 0.782,-0.248 1.134,-0.349c0.327,-0.092 0.607,-0.17 0.866,-0.241c0.508,-0.128 0.744,-0.126 0.725,-0.024c-0.018,0.073 -0.161,0.213 -0.432,0.44c-0.256,0.231 -0.302,0.287 -0.326,0.36c-0.018,0.073 0.066,0.109 0.233,0.122l4.782,-1.51c-0.09,-0.006 -0.211,-0.022 -0.202,-0.1c0.011,-0.114 0.156,-0.213 0.431,-0.451l0.29,-0.257c0.259,-0.226 0.468,-0.371 0.375,-0.454c-0.032,-0.022 -0.049,-0.05 -0.124,-0.051c-0.256,0.005 -0.887,0.153 -1.901,0.446l-0.233,0.063l0.03,-0.032Z"/>
		<path id="leading_edge_tv" onmousedown="parent.PanelClick('leading_edge', evt)" onmouseover="parent.PanelMouseOver('leading_edge')" onmouseout="parent.PanelMouseOut('leading_edge')" d="M221.96,85.43c45.36,-15.34 105.29,-34.46 181.6,-56.61c0,0 7.08,-1 13.17,2.25c112.12,59.9 190.24,112.18 246.83,155c15.57,11.78 33.12,34.12 36.18,62.33c0,0 -1.71,0.66 -4.82,1.6c-10.77,-31.18 -25.88,-51.12 -32.35,-57.68c-12.75,-12.92 -165,-107.75 -260.92,-157.92l-6.14,-0.33l-3.6,0.33c-75.14,21.37 -169.95,51.03 -169.95,51.03Z" style="fill:#fff;fill-rule:nonzero;stroke:#000;stroke-width:0.5px;stroke-miterlimit:1;"/>
		<path d="M231.19,199.69c34.37,-29.62 98.71,-90.75 98.71,-90.75l-4,-1.71c0,0 -63.79,60.61 -98.16,90.23c-0.59,1.35 2.24,3.27 3.45,2.23Z" style="fill:#dbdbdb;fill-rule:nonzero;stroke:#000;stroke-width:0.5px;stroke-miterlimit:1;"/>
		<path d="M325.89,107.24l-1.77,1.67l0,-1.75c1.28,-0.02 2.24,0.03 2.77,0.15c0.9,0.21 2.29,0.73 3.97,1.42c0,0 -2.28,2.3 -2.78,2.6c-0.51,0.31 -0.69,0.17 -0.69,0.17l0.14,-0.52c0.6,-1.18 0.38,-3.2 -1.64,-3.74" style="fill:#fff;fill-rule:nonzero;stroke:#000;stroke-width:0.5px;stroke-miterlimit:1;"/>
		<path d="M317.31,4.56l35.25,75c-0.38,1 -3.7,3.88 -3.7,3.88l-36.42,-75.63c0,0 1.75,-3 4.87,-3.25Z" style="fill:#dbdbdb;fill-rule:nonzero;stroke:#000;stroke-width:0.5px;stroke-miterlimit:1;"/>
		<path id="speedbar" d="M438.86,174.13l-12.61,-2.2c-0.17,-0.03 -0.34,-0.1 -0.48,-0.21l-5.78,-4.34c-0.6,-0.45 -1.3,-0.75 -2.04,-0.86l-20.59,-3.27c-0.52,-0.08 -1.06,-0.1 -1.59,-0.06l-12.41,1.08c-0.11,0.01 -0.23,0 -0.34,-0.02l-12.05,-2.14l-2.21,1.05l13.16,2.35c0.22,0.04 0.45,0.05 0.68,0.03l12.17,-1.11c0.53,-0.05 0.99,-0.04 1.51,0.05l19.52,3.1c0.74,0.12 1.44,0.41 2.04,0.86l5.75,4.31c0.16,0.12 0.35,0.2 0.55,0.24l12.28,2.18l2.44,-1.04Z" style="fill:#dbdbdb;fill-rule:nonzero;stroke:#000;stroke-width:0.5px;stroke-miterlimit:1;"/>
		<path d="M404.12,148.6c5.37,2.84 13.63,7.47 16.46,9.31l18.36,14.95c0.72,0.85 -0.03,1.64 -0.03,1.64l-2.47,0.67c0.16,-0.01 0.23,-0.51 -0.37,-0.92l-31.95,-25.65Z" style="fill:#dbdbdb;fill-rule:nonzero;stroke:#000;stroke-width:0.5px;stroke-miterlimit:1;"/>
		<path d="M370.97,162.12l-2.21,1.05c-0.34,-0.06 -1.66,-0.45 -1.79,-0.77l-17.3,-44.78l0.88,0.45c1.03,0.48 2.07,0.98 3.11,1.5l16.44,41.85c0.16,0.37 0.48,0.63 0.87,0.7Z" style="fill:#dbdbdb;fill-rule:nonzero;stroke:#000;stroke-width:0.5px;stroke-miterlimit:1;"/>
		<path id="lestroke" d="M221.96,85.43c-56.6,19.15 -90.49,32.42 -105.17,38.41" style="fill:none;stroke:#000;stroke-width:0.5px;stroke-miterlimit:1;"/>
	</g>
	<g id="letters">
		<path id="letters_c_ml" onmouseover="parent.PanelMouseOver('letters')" onmouseout="parent.PanelMouseOut('letters')" d="M69.02,422.71c3.23,-1.68 3.83,-3.83 1.74,-6.08c-2.15,-2.3 -5.05,-2.62 -8.38,-1.2l6.64,7.28Zm-1.04,0.5l-6.61,-7.26l-4.49,2.2l6.61,7.18l4.49,-2.12Zm12.56,-5.94l-4.93,-5.3l-3.68,1.83l4.92,5.32l3.69,-1.85Zm-5.99,-6.68c-0.42,-0.53 -1.72,-0.53 -2.87,0.07c-1.21,0.54 -1.65,1.44 -1.16,1.91c0.56,0.53 1.69,0.54 2.84,-0.06c1.24,-0.52 1.69,-1.44 1.19,-1.92Zm13.24,3.37l-6.34,-0.42l2.25,2.38l4.09,-1.96Zm0.16,-4.6l-2.23,-2.33l-4.15,1.99l6.38,0.34Zm-6.68,-0.13l-0.3,0.09c-1.51,0.72 -1.97,1.89 -1.26,2.7c0.51,0.48 0.8,0.63 1.62,0.65l5.96,0.43c0.46,0.05 0.84,0.02 1.07,0.23c0.08,0.07 -0.01,0.25 -0.09,0.43c0.23,-0.04 0.24,-0.16 0.47,-0.2c2.05,-0.91 2.72,-1.85 1.81,-2.7c-0.3,-0.41 -1.14,-0.68 -2.15,-0.71l-6.32,-0.29c-0.45,-0.04 -0.67,0 -0.89,-0.21c-0.08,-0.06 -0.15,-0.25 0.08,-0.42Zm17.79,-1.35l-4.88,-5c-3.09,1.56 -3.95,3.53 -2.28,5.2c1.67,1.8 4.62,1.89 8.1,0.4c1.95,-0.93 3.07,-1.82 3.65,-3.22l-1.03,-1.07c-0.16,1.5 -1.05,2.6 -2.98,3.41c-0.17,0.13 -0.34,0.24 -0.58,0.28Zm2.31,-5.1l-2.2,-2.27l-4.49,2.15l6.69,0.12Zm12.26,-0.77l0.18,0.01c3.58,-1.73 4.02,-2.81 2.52,-4.42l-3.74,-3.74l-4.76,2.26l5.8,5.89Zm-1.18,0.67l-5.78,-5.87l-4.44,2.2l3.51,3.58c1.44,1.57 3.05,1.77 6.53,0.08l0.18,0.01Zm14.95,-7.16l-7.94,-0.16l2.64,2.6l5.3,-2.44Zm0.25,-5.28l-2.53,-2.48l-5.01,2.5l7.54,-0.02Zm-8.11,0.27l-0.19,0.13c-1.88,0.9 -2.52,2.27 -1.76,3.07c0.6,0.52 0.95,0.68 1.85,0.73l7.39,0.12c0.56,0.03 0.85,-0.03 1.11,0.2c0.18,0.15 0.16,0.29 -0.05,0.57c0.2,-0.13 0.49,-0.19 0.5,-0.33c2.57,-1.15 3.44,-2.26 2.65,-3.1c-0.62,-0.54 -1.37,-0.71 -2.8,-0.71l-7.55,0c-0.55,-0.03 -1.01,0.02 -1.27,-0.2c-0.18,-0.14 0.01,-0.27 0.12,-0.48Zm28.94,-6.64l-7.58,-7.13c-5.14,2.63 -6.68,5.66 -4.12,8.03c2.56,2.57 7.37,2.46 13.21,-0.07c3.3,-1.58 5.24,-3.02 6.33,-5.21l-1.62,-1.54c-0.4,2.3 -1.97,4.06 -5.24,5.45c-0.29,0.2 -0.58,0.38 -0.98,0.47Zm4.25,-7.96l-3.45,-3.25l-7.57,3.7l11.02,-0.45Z" />
		<path id="letters_ml" display="none" onmouseover="parent.PanelMouseOver('letters')" onmouseout="parent.PanelMouseOut('letters')" d="M77.15,419.05c3.23,-1.68 3.83,-3.83 1.74,-6.08c-2.15,-2.3 -5.05,-2.62 -8.38,-1.2l6.64,7.28Zm-1.04,0.5l-6.61,-7.26l-4.49,2.2l6.61,7.18l4.49,-2.12Zm12.56,-5.93l-4.93,-5.3l-3.68,1.83l4.92,5.32l3.69,-1.85Zm-5.99,-6.68c-0.42,-0.53 -1.72,-0.53 -2.87,0.07c-1.21,0.54 -1.65,1.44 -1.16,1.91c0.56,0.53 1.69,0.54 2.84,-0.06c1.24,-0.53 1.69,-1.45 1.19,-1.92Zm13.24,3.37l-6.34,-0.42l2.25,2.38l4.09,-1.96Zm0.16,-4.6l-2.23,-2.33l-4.15,1.99l6.38,0.34Zm-6.68,-0.13l-0.3,0.09c-1.51,0.72 -1.97,1.89 -1.26,2.7c0.51,0.48 0.8,0.63 1.62,0.65l5.96,0.43c0.46,0.05 0.84,0.02 1.07,0.23c0.08,0.07 -0.01,0.25 -0.09,0.43c0.23,-0.04 0.24,-0.16 0.47,-0.2c2.05,-0.91 2.72,-1.85 1.81,-2.7c-0.3,-0.41 -1.14,-0.68 -2.15,-0.71l-6.32,-0.29c-0.45,-0.04 -0.67,0 -0.89,-0.21c-0.08,-0.07 -0.15,-0.26 0.08,-0.42Zm17.79,-1.35l-4.88,-5c-3.09,1.56 -3.95,3.53 -2.28,5.2c1.67,1.8 4.62,1.89 8.1,0.4c1.95,-0.93 3.07,-1.82 3.65,-3.22l-1.03,-1.07c-0.16,1.5 -1.05,2.6 -2.98,3.41c-0.17,0.12 -0.34,0.23 -0.58,0.28Zm2.31,-5.1l-2.2,-2.27l-4.49,2.15l6.69,0.12Zm12.26,-0.77l0.18,0.01c3.58,-1.73 4.02,-2.81 2.52,-4.42l-3.74,-3.74l-4.76,2.26l5.8,5.89Zm-1.18,0.66l-5.78,-5.87l-4.44,2.2l3.51,3.58c1.44,1.57 3.05,1.77 6.53,0.08l0.18,0.01Zm14.95,-7.15l-7.94,-0.16l2.64,2.6l5.3,-2.44Zm0.25,-5.29l-2.53,-2.48l-5.01,2.5l7.54,-0.02Zm-8.11,0.28l-0.19,0.13c-1.88,0.9 -2.52,2.27 -1.76,3.07c0.6,0.52 0.95,0.68 1.85,0.73l7.39,0.12c0.56,0.03 0.85,-0.03 1.11,0.2c0.18,0.15 0.16,0.29 -0.05,0.57c0.2,-0.13 0.49,-0.19 0.5,-0.33c2.57,-1.15 3.44,-2.26 2.65,-3.1c-0.62,-0.54 -1.37,-0.71 -2.8,-0.71l-7.55,0c-0.55,-0.03 -1.01,0.02 -1.27,-0.2c-0.18,-0.14 0.01,-0.28 0.12,-0.48Z"/>
		<path id="letters_c_rl" display="none" onmouseover="parent.PanelMouseOver('letters')" onmouseout="parent.PanelMouseOut('letters')" d="M69.02,419.91c3.23,-1.68 3.83,-3.83 1.74,-6.08c-2.15,-2.3 -5.05,-2.62 -8.38,-1.2l6.64,7.28Zm-1.04,0.5l-6.61,-7.26l-4.49,2.2l6.61,7.18l4.49,-2.12Zm12.56,-5.94l-4.93,-5.3l-3.68,1.83l4.92,5.32l3.69,-1.85Zm-5.99,-6.67c-0.42,-0.53 -1.72,-0.53 -2.87,0.07c-1.21,0.54 -1.65,1.44 -1.16,1.91c0.56,0.53 1.69,0.54 2.84,-0.06c1.24,-0.53 1.69,-1.45 1.19,-1.92Zm13.24,3.36l-6.34,-0.42l2.25,2.38l4.09,-1.96Zm0.16,-4.6l-2.23,-2.33l-4.15,1.99l6.38,0.34Zm-6.68,-0.13l-0.3,0.09c-1.51,0.72 -1.97,1.89 -1.26,2.7c0.51,0.48 0.8,0.63 1.62,0.65l5.96,0.43c0.46,0.05 0.84,0.02 1.07,0.23c0.08,0.07 -0.01,0.25 -0.09,0.43c0.23,-0.04 0.24,-0.16 0.47,-0.2c2.05,-0.91 2.72,-1.85 1.81,-2.7c-0.3,-0.41 -1.14,-0.68 -2.15,-0.71l-6.32,-0.29c-0.45,-0.04 -0.67,0 -0.89,-0.21c-0.08,-0.06 -0.15,-0.25 0.08,-0.42Zm17.79,-1.34l-4.88,-5c-3.09,1.56 -3.95,3.53 -2.28,5.2c1.67,1.8 4.62,1.89 8.1,0.4c1.95,-0.93 3.07,-1.82 3.65,-3.22l-1.03,-1.07c-0.16,1.5 -1.05,2.6 -2.98,3.41c-0.17,0.12 -0.34,0.23 -0.58,0.28Zm2.31,-5.1l-2.2,-2.27l-4.49,2.15l6.69,0.12Zm12.26,-0.77l0.18,0.01c3.58,-1.73 4.02,-2.81 2.52,-4.42l-3.74,-3.74l-4.76,2.26l5.8,5.89Zm-1.18,0.66l-5.78,-5.87l-4.44,2.2l3.51,3.58c1.44,1.57 3.05,1.77 6.53,0.08l0.18,0.01Zm14.95,-7.15l-7.94,-0.16l2.64,2.6l5.3,-2.44Zm0.25,-5.29l-2.53,-2.48l-5.01,2.5l7.54,-0.02Zm-8.11,0.28l-0.19,0.13c-1.88,0.9 -2.52,2.27 -1.76,3.07c0.6,0.52 0.95,0.68 1.85,0.73l7.39,0.12c0.56,0.03 0.85,-0.03 1.11,0.2c0.18,0.15 0.16,0.29 -0.05,0.57c0.2,-0.13 0.49,-0.19 0.5,-0.33c2.57,-1.15 3.44,-2.26 2.65,-3.1c-0.62,-0.54 -1.37,-0.71 -2.8,-0.71l-7.55,0c-0.55,-0.03 -1.01,0.02 -1.27,-0.2c-0.18,-0.15 0.01,-0.28 0.12,-0.48Zm28.94,-6.65l-7.58,-7.13c-5.14,2.63 -6.68,5.66 -4.12,8.03c2.56,2.57 7.37,2.46 13.21,-0.07c3.3,-1.58 5.24,-3.02 6.33,-5.21l-1.62,-1.54c-0.4,2.3 -1.97,4.06 -5.24,5.45c-0.29,0.2 -0.58,0.39 -0.98,0.47Zm4.25,-7.95l-3.45,-3.25l-7.57,3.7l11.02,-0.45Z"/>
		<path id="letters_rl" display="none" onmouseover="parent.PanelMouseOver('letters')" onmouseout="parent.PanelMouseOut('letters')" d="M77.15,416.25c3.23,-1.68 3.83,-3.83 1.74,-6.08c-2.15,-2.3 -5.05,-2.62 -8.38,-1.2l6.64,7.28Zm-1.04,0.5l-6.61,-7.26l-4.49,2.2l6.61,7.18l4.49,-2.12Zm12.56,-5.93l-4.93,-5.3l-3.68,1.83l4.92,5.32l3.69,-1.85Zm-5.99,-6.68c-0.42,-0.53 -1.72,-0.53 -2.87,0.07c-1.21,0.54 -1.65,1.44 -1.16,1.91c0.56,0.53 1.69,0.54 2.84,-0.06c1.24,-0.53 1.69,-1.45 1.19,-1.92Zm13.24,3.37l-6.34,-0.42l2.25,2.38l4.09,-1.96Zm0.16,-4.6l-2.23,-2.33l-4.15,1.99l6.38,0.34Zm-6.68,-0.13l-0.3,0.09c-1.51,0.72 -1.97,1.89 -1.26,2.7c0.51,0.48 0.8,0.63 1.62,0.65l5.96,0.43c0.46,0.05 0.84,0.02 1.07,0.23c0.08,0.07 -0.01,0.25 -0.09,0.43c0.23,-0.04 0.24,-0.16 0.47,-0.2c2.05,-0.91 2.72,-1.85 1.81,-2.7c-0.3,-0.41 -1.14,-0.68 -2.15,-0.71l-6.32,-0.29c-0.45,-0.04 -0.67,0 -0.89,-0.21c-0.08,-0.07 -0.15,-0.26 0.08,-0.42Zm17.79,-1.35l-4.88,-5c-3.09,1.56 -3.95,3.53 -2.28,5.2c1.67,1.8 4.62,1.89 8.1,0.4c1.95,-0.93 3.07,-1.82 3.65,-3.22l-1.03,-1.07c-0.16,1.5 -1.05,2.6 -2.98,3.41c-0.17,0.12 -0.34,0.24 -0.58,0.28Zm2.31,-5.1l-2.2,-2.27l-4.49,2.15l6.69,0.12Zm12.26,-0.77l0.18,0.01c3.58,-1.73 4.02,-2.81 2.52,-4.42l-3.74,-3.74l-4.76,2.26l5.8,5.89Zm-1.18,0.66l-5.78,-5.87l-4.44,2.2l3.51,3.58c1.44,1.57 3.05,1.77 6.53,0.08l0.18,0.01Zm14.95,-7.15l-7.94,-0.16l2.64,2.6l5.3,-2.44Zm0.25,-5.29l-2.53,-2.48l-5.01,2.5l7.54,-0.02Zm-8.11,0.28l-0.19,0.13c-1.88,0.9 -2.52,2.27 -1.76,3.07c0.6,0.52 0.95,0.68 1.85,0.73l7.39,0.12c0.56,0.03 0.85,-0.03 1.11,0.2c0.18,0.15 0.16,0.29 -0.05,0.57c0.2,-0.13 0.49,-0.19 0.5,-0.33c2.57,-1.15 3.44,-2.26 2.65,-3.1c-0.62,-0.54 -1.37,-0.71 -2.8,-0.71l-7.55,0c-0.55,-0.03 -1.01,0.02 -1.27,-0.2c-0.18,-0.14 0.01,-0.27 0.12,-0.48Z"/>
		<path id="letters_c_bs" display="none" onmouseover="parent.PanelMouseOver('letters')" onmouseout="parent.PanelMouseOut('letters')" d="M46.15,410.11c3.18,-1.78 3.7,-3.95 1.54,-6.13c-2.22,-2.23 -5.13,-2.46 -8.42,-0.93l6.88,7.06Zm-1.02,0.53l-6.84,-7.04l-4.41,2.34l6.84,6.97l4.41,-2.27Zm12.36,-6.34l-5.1,-5.14l-3.62,1.95l5.09,5.16l3.63,-1.97Zm-6.2,-6.48c-0.44,-0.51 -1.73,-0.48 -2.86,0.17c-1.19,0.57 -1.6,1.5 -1.1,1.95c0.58,0.52 1.71,0.48 2.84,-0.15c1.22,-0.58 1.63,-1.51 1.12,-1.97Zm13.34,2.94l-6.35,-0.21l2.32,2.3l4.03,-2.09Zm0.01,-4.6l-2.3,-2.26l-4.08,2.12l6.38,0.14Zm-6.68,0.08l-0.3,0.1c-1.48,0.76 -1.91,1.95 -1.17,2.74c0.52,0.46 0.82,0.6 1.64,0.6l5.97,0.23c0.46,0.03 0.84,0 1.07,0.2c0.08,0.07 0,0.25 -0.08,0.43c0.23,-0.05 0.23,-0.17 0.46,-0.22c2.02,-0.98 2.66,-1.94 1.72,-2.75c-0.31,-0.4 -1.16,-0.64 -2.17,-0.64l-6.32,-0.09c-0.45,-0.03 -0.67,0.02 -0.9,-0.18c-0.07,-0.06 -0.14,-0.25 0.08,-0.42Zm17.74,-1.92l-5.03,-4.84c-3.03,1.65 -3.83,3.65 -2.11,5.27c1.72,1.75 4.68,1.74 8.11,0.14c1.91,-1 3.01,-1.92 3.54,-3.33l-1.06,-1.04c-0.11,1.5 -0.97,2.63 -2.87,3.51c-0.17,0.12 -0.34,0.24 -0.58,0.29Zm2.14,-5.17l-2.27,-2.2l-4.42,2.29l6.69,-0.09Zm12.23,-1.16l0.18,0.01c3.53,-1.85 3.93,-2.94 2.38,-4.5l-3.86,-3.62l-4.68,2.42l5.98,5.69Zm-1.16,0.7l-5.97,-5.68l-4.36,2.34l3.63,3.46c1.49,1.53 3.11,1.67 6.53,-0.13l0.17,0.01Zm14.71,-7.63l-7.94,0.09l2.72,2.52l5.22,-2.61Zm0.09,-5.29l-2.61,-2.4l-4.93,2.66l7.54,-0.26Zm-8.1,0.53l-0.19,0.14c-1.85,0.96 -2.44,2.34 -1.66,3.13c0.61,0.5 0.97,0.65 1.87,0.67l7.39,-0.12c0.56,0.01 0.85,-0.05 1.12,0.17c0.18,0.15 0.17,0.29 -0.03,0.57c0.19,-0.14 0.48,-0.2 0.49,-0.35c2.53,-1.24 3.36,-2.37 2.54,-3.18c-0.64,-0.52 -1.4,-0.67 -2.82,-0.62l-7.55,0.25c-0.55,-0.01 -1.01,0.06 -1.27,-0.16c-0.18,-0.15 0.01,-0.29 0.11,-0.5Zm28.71,-7.57l-7.81,-6.88c-5.05,2.79 -6.5,5.87 -3.86,8.16c2.64,2.49 7.45,2.23 13.2,-0.49c3.24,-1.69 5.14,-3.19 6.16,-5.41l-1.66,-1.49c-0.33,2.31 -1.84,4.12 -5.06,5.62c-0.28,0.2 -0.57,0.39 -0.97,0.49Zm4,-8.09l-3.55,-3.14l-7.44,3.94l10.99,-0.8Z"/>
		<path id="letters_bs" display="none" onmouseover="parent.PanelMouseOver('letters')" onmouseout="parent.PanelMouseOut('letters')" d="M54.16,406.19c3.18,-1.78 3.7,-3.95 1.54,-6.13c-2.22,-2.23 -5.13,-2.46 -8.42,-0.93l6.88,7.06Zm-1.02,0.53l-6.84,-7.04l-4.41,2.34l6.84,6.97l4.41,-2.27Zm12.36,-6.33l-5.1,-5.14l-3.62,1.95l5.09,5.16l3.63,-1.97Zm-6.2,-6.48c-0.44,-0.51 -1.73,-0.48 -2.86,0.17c-1.19,0.57 -1.6,1.5 -1.1,1.95c0.58,0.52 1.71,0.48 2.84,-0.15c1.21,-0.58 1.63,-1.52 1.12,-1.97Zm13.34,2.94l-6.35,-0.21l2.32,2.3l4.03,-2.09Zm0.01,-4.61l-2.3,-2.26l-4.08,2.12l6.38,0.14Zm-6.68,0.09l-0.3,0.1c-1.48,0.76 -1.91,1.95 -1.17,2.74c0.52,0.46 0.82,0.6 1.64,0.6l5.97,0.23c0.46,0.03 0.84,0 1.07,0.2c0.08,0.07 0,0.25 -0.08,0.43c0.23,-0.05 0.23,-0.17 0.46,-0.22c2.02,-0.98 2.66,-1.94 1.72,-2.75c-0.31,-0.4 -1.16,-0.64 -2.17,-0.64l-6.32,-0.09c-0.45,-0.03 -0.67,0.02 -0.9,-0.18c-0.07,-0.06 -0.15,-0.25 0.08,-0.42Zm17.73,-1.92l-5.03,-4.84c-3.03,1.65 -3.83,3.65 -2.11,5.27c1.72,1.75 4.68,1.74 8.11,0.14c1.91,-1 3.01,-1.92 3.54,-3.33l-1.06,-1.04c-0.11,1.5 -0.97,2.63 -2.87,3.51c-0.17,0.12 -0.33,0.24 -0.58,0.29Zm2.15,-5.17l-2.27,-2.2l-4.42,2.29l6.69,-0.09Zm12.23,-1.17l0.18,0.01c3.53,-1.85 3.93,-2.94 2.38,-4.5l-3.86,-3.62l-4.68,2.42l5.98,5.69Zm-1.16,0.7l-5.97,-5.68l-4.36,2.34l3.63,3.46c1.49,1.53 3.11,1.67 6.53,-0.13l0.17,0.01Zm14.71,-7.63l-7.94,0.09l2.72,2.52l5.22,-2.61Zm0.08,-5.29l-2.61,-2.4l-4.93,2.66l7.54,-0.26Zm-8.09,0.54l-0.19,0.14c-1.85,0.96 -2.44,2.34 -1.66,3.13c0.61,0.5 0.97,0.65 1.87,0.67l7.39,-0.12c0.56,0.01 0.85,-0.05 1.12,0.17c0.18,0.15 0.17,0.29 -0.03,0.57c0.19,-0.14 0.48,-0.2 0.49,-0.35c2.53,-1.24 3.36,-2.37 2.54,-3.18c-0.64,-0.52 -1.4,-0.67 -2.82,-0.62l-7.55,0.25c-0.55,-0.01 -1.01,0.06 -1.27,-0.16c-0.18,-0.15 0.01,-0.29 0.11,-0.5Z"/>
	</g>
</svg>