<?xml version="1.0" encoding="utf-8"?>
<svg version="1.1" id="dsc_svg" xmlns="http://www.w3.org/2000/svg" xmlns:xlink="http://www.w3.org/1999/xlink" x="0px" y="0px"
	  viewBox="0 0 705 490" xml:space="preserve" preserveAspectRatio="xMinYMin meet">
<g id="bottom">
	<path id="leading_edge_bv" onmousedown="parent.PanelClick('leading_edge', evt)" onmouseover="parent.PanelMouseOver('leading_edge')" onmouseout="parent.PanelMouseOut('leading_edge')" fill="#FFFFFF" stroke="#000000" stroke-width="0.5" stroke-miterlimit="1" d="M700.74,420.11
		c-30.8-10.33-45.43-12.62-45.43-12.62h-6.46l0,0c-5.8-1.47-11.14-2.78-15.57-3.83c-17-4.02-106.02-23.95-172.38-39.3
		c-66.36-15.36-323.32-73.7-350.15-77.05l2.33,8.09l-9.08,1.02l-9.14-7.25c-39.21,49.56-60.07,83.96-78.16,114.94
		c-2.96,5.08-10.94,20.81-10.94,20.81s-1.99-3.1-0.85-7.01c7.5-25.69,41.77-79.7,86.74-144.05c0,0,2.78-3.63,15.95-1.17
		c60.46,11.31,340.14,71.91,523.85,123.46C631.46,396.16,676.24,409.33,700.74,420.11z"/>
	<path id="bottom_surface_bv" onmousedown="parent.PanelClick('bottom_surface', evt)" onmouseover="parent.PanelMouseOver('bottom_surface')" onmouseout="parent.PanelMouseOut('bottom_surface')" fill="#0000CD" fill-opacity="0.94" d="M14.97,431.74L173,347.91l505.29,67.5l0,0c-16.03-4.58-33.55-9.03-45.01-11.74
		c-17-4.02-106.02-23.95-172.38-39.3c-66.36-15.36-323.32-73.7-350.15-77.05l2.33,8.09l-9.08,1.02l-9.14-7.25
		c-39.21,49.56-60.07,83.96-78.16,114.94c-2.96,5.08-10.94,20.81-10.94,20.81C6.99,427.78,11.3,430.16,14.97,431.74z"/>
	<path id="rear_line_bv" onmousedown="parent.PanelClick('rear_line', evt)" onmouseover="parent.PanelMouseOver('rear_line')" onmouseout="parent.PanelMouseOut('rear_line')" fill="#1E7AFF" stroke="#000000" stroke-width="0.5" stroke-miterlimit="1" fill-opacity="0.94" d="M20.62,433.8l21.87,0.75
		l19.38-3.84l33.45-16.63l106.48-46.8l211.41,26.69l123.66,17.41l65.53,9.87l61.42,2.33l35.83-1.65c-6.2-2.09-13.6-4.33-21.35-6.54
		l0,0L173,347.91L14.96,431.74l0,0C18.02,433.05,20.62,433.8,20.62,433.8z"/>

	<path id="trailing_edge_bv" onmousedown="parent.PanelClick('trailing_edge', evt)" onmouseover="parent.PanelMouseOver('trailing_edge')" onmouseout="parent.PanelMouseOut('trailing_edge')" fill="#FFFFFF" fill-opacity="0.96" stroke="#000000" stroke-width="0.5" stroke-miterlimit="1" d="
		M699.64,421.94l-35.83,1.65l-61.42-2.33l-65.53-9.87L413.2,393.97l-211.41-26.69l-106.48,46.8l-33.45,16.63l-19.38,3.84
		l-21.87-0.75c10.56,2.88,27.08,4.04,27.08,4.04c5.03-1.37,21.2-1.74,21.2-1.74c5.39-3.93,15.9-7.22,15.9-7.22l17.82-7.77
		l79.15-33.18c0,0,20.66-7.68,34-8.59c8.44-0.58,51.37,2.92,51.37,2.92l151.68,19.65l56.71,8.32c39.94,3.93,64.8,8.87,64.8,8.87
		c24.86,1.28,65.44,8.23,65.44,8.23c23.22,1.37,61.15,1.55,61.15,1.55C698.27,428.06,699.64,421.94,699.64,421.94z"/>
	
		<path id="trailing_edge_rf_bv" onmouseover="parent.PanelMouseOver('trailing_edge')" onmouseout="parent.PanelMouseOut('trailing_edge')" fill="#FFFFFF" fill-opacity="0.96" stroke="#000000" stroke-width="0.25" stroke-miterlimit="1" d="
		M663.81,423.58l35.83-1.65c0,0-1.37,6.12-32.72,6.95c0,0-37.93-0.18-61.15-1.55c0,0-40.58-6.95-65.44-8.23c0,0-2.76-0.55-7.92-1.42
		l5.75-2.97l64.23,6.54L663.81,423.58z M483.86,411.1l-11.03-5.48l-3.67,3.69l0,0l6.38,0.94
		C478.39,410.52,481.16,410.81,483.86,411.1z M426.55,403.06c-0.27-0.04-10.38-5.96-10.38-5.96l-3.24,4.06c0,0,5.89,0.76,5.89,0.76
		S426.55,403.06,426.55,403.06z M371.61,395.81l-9.2-6.16l-2.28,4.67C360.13,394.32,371.61,395.81,371.61,395.81z M319.8,389.09
		l-11.48-6.32l-1.8,4.6C306.53,387.37,319.8,389.09,319.8,389.09L319.8,389.09z M273.09,383.04l-13.65-8.48l-57.65-7.28
		l-29.54,12.98l3.84,10.06c0,0,5.68-2.38,5.68-2.38s20.66-7.68,34-8.59c8.44-0.58,51.37,2.92,51.37,2.92L273.09,383.04
		L273.09,383.04z M156.29,398.62c0,0,7.87-3.3,7.87-3.3l-8.03-3.13L156.29,398.62L156.29,398.62z M135.47,407.35l7.31-3.07l0,0
		l-6.74-3.66C136.05,400.62,135.47,407.35,135.47,407.35z M117.41,414.92c0,0,6.35-2.66,6.35-2.66l-5.85-3.36L117.41,414.92
		L117.41,414.92z M98.9,422.74l3.72-1.62l2.66-1.12l0,0c-0.21,0.09-6.38-2.51-6.38-2.51S98.9,422.74,98.9,422.74z M86.96,427.94
		l-5.47-3.02l-18.15,7.13l-20.85,2.5l-21.87-0.75c10.56,2.88,27.08,4.04,27.08,4.04c5.03-1.37,21.2-1.74,21.2-1.74
		c5.39-3.93,15.9-7.22,15.9-7.22S86.96,427.94,86.96,427.94z"/>
	<path id="battens_bv" onmousedown="parent.PanelClick('battens', evt)" onmouseover="parent.PanelMouseOver('battens')" onmouseout="parent.PanelMouseOut('battens')" stroke="#000000" stroke-width="0.25" fill="#ffffff" d="M663.81,423.58l2.65,3.56h-2.65l-3.2-3.69L663.81,423.58z M606.23,424.92l-2.93-3.64
		l-0.91-0.03l-1.67-0.25l2.95,3.92H606.23z M532.41,410.76l3.8,5.03l2.93,0.22l-3.68-4.81L532.41,410.76z M466.26,401.44l4.8,5.55
		H474l-4.34-5.07L466.26,401.44z M410.31,393.61l4.38,5.28l3.28,0.39l-4.34-5.24L410.31,393.61z M303.09,380.07l4.71,5.05l3.05,0.36
		l-4.68-5.02L303.09,380.07z M256.75,374.22l5.17,5l2.67,0.34l-5.15-5L256.75,374.22z M212.66,368.65l8.14,7.32l2.76,0.23l-8.03-7.2
		L212.66,368.65z M172.26,380.26l6.48,5.58l1.2-0.68l-6.37-5.48L172.26,380.26z M151.38,389.44l5.41,4.96l1.06-0.63l-5.29-4.85
		L151.38,389.44z M131.54,398.16l4.99,4.82l1.35-0.67l-5.11-4.69L131.54,398.16z M112.99,406.31l5.43,4.98l1.28-0.74l-5.3-4.86
		L112.99,406.31z M94.32,414.57l4.86,4.82l1.12-0.58l-4.99-4.74L94.32,414.57z M77.62,422.87l4.49,4.04l1.01-0.51l-4.48-4.04
		L77.62,422.87z M61.86,430.71l3.56,3.23l1-0.63l-3.44-3.15L61.86,430.71z M42.48,434.55l1.86,1.47l1.83-0.3l-1.96-1.51
		L42.48,434.55z M357.23,386.9l4.57,5.13l3.05,0.36l-4.52-5.1L357.23,386.9z"/>
	<path id="bb" stroke="#000000" stroke-width="0.5" stroke-miterlimit="1" d="M648.85,407.49c16.47,4.19,36.73,9.72,50.79,14.45
		l1.1-1.83c-30.8-10.33-45.43-12.62-45.43-12.62L648.85,407.49L648.85,407.49z"/>
	<path id="bsstroke" fill="none" stroke="#000000" stroke-width="0.5" stroke-miterlimit="1" d="M5.77,424.92
		c1.22,2.86,5.54,5.24,9.2,6.81c3.05,1.31,5.65,2.06,5.65,2.06"/>
	<path fill="#DBDBDB" stroke="#000000" stroke-width="0.5" stroke-miterlimit="1" d="M202.67,292.44l13.84-31.91
		c2.56,0,4.27,5.65,4.27,5.65l-11.97,27.6L202.67,292.44z"/>
	<path fill="#DBDBDB" stroke="#000000" stroke-width="0.5" stroke-miterlimit="1" d="M286.66,447.74
		c-54.98-45.07-101.96-86.58-101.96-86.58l0.64-1.33c1.27-1.88,4.11-1.05,4.11-1.05s45.7,42.68,100.01,86.33
		C289.47,445.11,288.52,447.74,286.66,447.74z"/>
	<path id="keelp" fill="#FFFFFF" stroke="#000000" stroke-width="0.5" stroke-miterlimit="1" d="M202.21,367.33l13.03,12.05
		c0,0-0.54,2.75-1.75,4.47c-0.98,1.39-2.49,1.41-3.5,0.58c-1.01-0.82-18.1-16.35-18.1-16.35s2.1-0.9,3.03-4.27l-5.46-5.04
		L202.21,367.33z"/>
	<path fill="#DBDBDB" stroke="#000000" stroke-width="0.5" stroke-miterlimit="1" d="M187.81,366.23l-25.44,110.13
		c-0.3,1.3-1.3,2.61-2.71,2.8l-16.4-0.72c-0.23-0.01-0.45-0.05-0.67-0.13l-18.64-6.33c-0.68-0.21-1.39-0.34-2.1-0.37l-34.48-1.1
		c-1.24,0.23-2.28,0.62-2.93,1.45l-1.66,2.13c-0.5,0.65-1.28,1.01-2.1,0.98l-8.12-0.33c-0.32-0.01-0.41-0.79,0.26-1.2L187.81,366.23
		z M185.23,361.63L66.87,473.06c-1.36,2.17,1.46,3.43,3.21,3.55l11.51,0.45c0.86,0.06,2.33-0.34,2.89-0.99l1.79-2.07
		c0.28-0.32,0.69-0.5,1.11-0.47l35.15,1.05c0.16,0,0.31,0.03,0.46,0.08l16.91,5.62c0.31,0.1,0.63,0.16,0.95,0.18l20.35,0.98
		c3.05,0.14,6.41-2.98,6.76-4.66l25.33-114.36l-3.56-3.37l-1.28,5.41L185.23,361.63z"/>
</g>
<g id="top">
	<path id="rear_line_tv" fill="#1E7AFF" d="M686.27,228.84L360.41,80.4l-252.52,47.22l0,0c-1.42,0.84-2.4,1.64-3.06,2.39l0,0
		l5.86,0.81l15.22,0.16L334.86,98.7l232.96,120.12l63.75,22.75l63.35,8.43C692.24,242.24,689.29,235.17,686.27,228.84L686.27,228.84
		z"/>

	<path id="bottom_surface_tv" fill="#0000CD" d="M107.88,127.62L360.41,80.4l325.87,148.44l0,0c-9.11-19.12-18.85-31.6-23.71-36.52
		c-12.75-12.92-165-107.75-260.92-157.92l-6.14-0.33l-3.6,0.33c-75.12,21.38-169.94,51.03-169.94,51.03
		c-79.01,26.73-113.77,42.01-113.77,42.01C108.08,127.5,107.98,127.56,107.88,127.62L107.88,127.62z"/>
	<path id="ribs" fill="#FFFFFF" d="M608.66,163.66l6.66,3.26l-35.08,39.14l-1.15-2.49C589.17,189.43,598.88,175.77,608.66,163.66
		z M524.91,177.59l0.9,1.85l44.42-41.12l-8.46-4.23l0,0C552.81,143.76,540.64,158.27,524.91,177.59z M479.7,156.29l0.94,1.6
		l49.5-42.75l-10.61-5.61C510.43,119.33,494.39,138.51,479.7,156.29z M145.22,113.48c-4.45,3.22-10.31,8.19-16.18,13.23l0.36,0.69
		l18.92-12.38L145.22,113.48L145.22,113.48z M157.58,121.37L157.58,121.37l0.49,1.32l31.67-22.11l-5.07-1.44
		C179.11,103.27,167.62,113.04,157.58,121.37z M185.34,117.14L185.34,117.14l0.34,0.86l40.25-27.88l-6.73-2.5
		C212.58,93.15,197.41,106.66,185.34,117.14z"/>
	<path id="battens_tv" fill="#ffffff" d="M662.56,192.32c-9.88,10.75-35.17,62.42-35.17,62.42l-2.56-1.1c0,0,25.7-52.48,35.57-63.23
		L662.56,192.32z M610.55,156.77c-18.36,21.79-36.22,49.45-56.56,76.28l2.41,1.68c20.33-26.83,38.27-54.59,56.64-76.38
		L610.55,156.77z M501.9,206.07c30.83-38.33,51.84-64.01,64.5-76.84l-2.37-1.45c-12.66,12.83-33.54,38.34-64.37,76.68L501.9,206.07z
		 M458.9,181.57c19.5-23.67,56.87-69.5,66.02-77.42l-2.12-1.26c-9.15,7.92-46.29,53.47-65.79,77.14L458.9,181.57z M425.56,161.4
		c13-14.83,57.63-65.97,68.25-75.59l-1.9-1.11c-10.62,9.62-55.11,60.56-68.11,75.39L425.56,161.4z M463.98,68.61
		c-11.34,10.04-47.02,53.29-69.68,74.97l1.6,1.15c22.67-21.68,58.5-65.08,69.83-75.12L463.98,68.61z M439.66,54.94
		c-11.2,9.4-47.56,56.71-69.2,74.5l1.48,1c21.65-17.79,58.13-65.21,69.33-74.61L439.66,54.94z M419.71,44.01
		c-12.56,11.66-49.47,56.87-70.84,73.2l1.7,0.86c21.38-16.33,58.22-61.51,70.78-73.17L419.71,44.01z M331.85,109.15
		c21.37-18.63,61.32-64.62,71.91-73.64l-1.27-0.67c-10.59,9.02-50.64,55.1-72.01,73.73L331.85,109.15z M385.1,36.34
		c-5.96,5.27-50.54,55.23-70.5,71.45l2.02-0.18c19.96-16.23,65.01-66.71,70.97-71.99L385.1,36.34z M348.95,46.86
		c-4.41,3.87-38.78,43.13-64.11,64.48l2.47-0.4c26.5-22.46,59.93-61,64.34-64.88L348.95,46.86z M318.86,55.8
		c-5.18,4.37-48.91,48.56-64.08,60.35l1.86-0.3c15.17-11.8,59.39-56.39,64.57-60.76L318.86,55.8z M282.16,66.89
		c-7.86,6.49-40.24,41.26-58.32,54.23l2.22-0.36c18.08-12.97,50.91-48.2,58.77-54.69L282.16,66.89z M251.42,76.3
		c-6.63,5.13-38.46,35.21-55.67,49.33l2.08-0.33c17.22-14.11,49.49-44.64,56.11-49.77L251.42,76.3z M218.94,86.45
		c-5.19,3.69-41.28,36.39-50.66,43.51l2.16-0.27c9.38-7.13,46.33-40.57,51.52-44.26L218.94,86.45z M142.81,133.19
		c10.17-7.38,38.72-32.47,44.25-35.71l-2.29,0.81c-5.53,3.24-33.69,27.76-43.85,35.13L142.81,133.19z M145.19,112.74
		c-7.11,4.59-18.53,15.07-28.24,23.19l0.98,0.26c9.71-8.13,22.57-19.78,29.68-24.37L145.19,112.74z M116.79,123.84
		c-4.85,4.11-12.61,10.85-12.61,10.85l0.74,0.02c3.38-2.63,8.67-7.44,13.52-11.54L116.79,123.84z"/>
	
		<path id="trailing_edge_rf_tv" fill="#FFFFFF" fill-opacity="0.96" stroke="#000000" stroke-width="0.25" stroke-miterlimit="1" d="
		M209.79,113.57c-1.68,1.48-3.32,2.93-4.92,4.32 M688.52,233.73c2.23,5.02,4.39,10.45,6.4,16.27c-10.47,3.16-36.82,9.49-67.52,4.74
		c0,0-20.17-9.5-71-20c0,0-14.17-10.83-54.5-28.67c0,0-1.87-1.43-5.49-3.83l0,0l12.08-4.36l56.94,24.69l68.76,18.62L688.52,233.73
		L688.52,233.73z M463.54,183.76c-1.51-0.73-3.05-1.46-4.64-2.2c0,0-1.34-1.25-4.9-3.72l0,0l10.64-3.25L463.54,183.76L463.54,183.76
		z M429,163.18c-1.11-0.58-2.25-1.17-3.44-1.78c0,0-1.39-1.12-4.22-3l0,0l9.52-3.04L429,163.18L429,163.18z M399.24,146.26
		c-1.08-0.5-2.19-1.01-3.34-1.52c0,0-1.47-1.09-3.82-2.7l0,0l9.21-2.61L399.24,146.26L399.24,146.26z M374.36,131.51
		c-0.82-0.38-1.63-0.74-2.42-1.06c0,0-1.54-1.07-4.02-2.66l0,0l8.37-1.11L374.36,131.51L374.36,131.51z M444.85,139.42l0.96,7.65
		l-9.41,1.96C439.01,146.06,441.86,142.82,444.85,139.42z M407.21,133.33c2.33-2.44,4.72-4.99,7.14-7.6l0,0l0.34,6.34L407.21,133.33
		L407.21,133.33z M333.14,99.79l23.46,13.28l-2.81,6.55l0.01,0c-1.07-0.54-2.16-1.06-3.23-1.56c0,0-18.92-9.62-23.67-10.75
		c-4.46-1.06-39.58,3.62-39.58,3.62s-5.74,0.92-5.74,0.92l9.01-5.52L333.14,99.79z M259.21,115.45c0,0-6,0.96-6,0.96l5.6-3.56
		L259.21,115.45L259.21,115.45z M233.3,113.57l-1.54-3l6.48-1.35l0,0C236.56,110.73,234.91,112.19,233.3,113.57L233.3,113.57z
		 M221.58,121.49L221.58,121.49l7.03-4.01l0.37,2.82C228.98,120.3,221.58,121.49,221.58,121.49z M204.87,117.89l-1.64-2.82l6.56-1.5
		 M193.74,125.96l5.94-3.6l0.72,2.54C200.4,124.89,193.74,125.96,193.74,125.96z M170.44,129.69c0,0-3.79,0.48-3.79,0.48l5.92-3.66
		l0.58,2.75C173.15,129.26,170.44,129.69,170.44,129.69z M106.76,128.34l3.83,1.63l12.32,2.01l22.28-1.81l1.29,2.56
		c0,0-3.67,0.46-3.67,0.46l-24.87,3c0,0-3.62-1.25-13.75-1.5C104.19,134.69,101.63,131.92,106.76,128.34L106.76,128.34z"/>
	<path id="top_surface_rf_tv" fill="#FFFFFF" fill-opacity="0.94" stroke="#000000" stroke-width="0.25" stroke-miterlimit="1" d="
		M678.4,214.04l-24.09-9.78l0,0c3.2-5.29,6.1-9.59,8.26-11.94C666.03,195.83,671.98,203.18,678.4,214.04L678.4,214.04z
		 M510.31,95.49c2.5,1.48,5,2.96,7.49,4.43l0,0l-4.86,2.97l-8-4.45L510.31,95.49L510.31,95.49z M229.18,83.18
		c1.95-0.61,4.26-1.32,6.9-2.14l-1.64,2.53l-7,2.06C227.44,85.63,229.18,83.18,229.18,83.18z M385.1,36.34
		c-5.96,5.27-50.54,55.23-70.5,71.45l0,0c5.89-0.54,10.81-0.83,12.3-0.47c1.06,0.25,2.84,0.93,4.96,1.83
		c21.37-18.63,61.32-64.62,71.91-73.64c0,0,0,0,0,0c-0.71-0.37-1.41-0.74-2.12-1.11l-6.14-0.33l-3.6,0.33
		C389.65,35.04,387.38,35.69,385.1,36.34z"/>
	
	<path id="trailing_edge_tv" onmouseover="parent.PanelMouseOver('trailing_edge')" onmouseout="parent.PanelMouseOut('trailing_edge')" fill="#FFFFFF" fill-opacity="0.98" stroke="#000000" stroke-width="0.5" stroke-miterlimit="1" d="
		M110.81,128.99c0,0,5.98-5.15,5.98-5.15c-5.81,2.37-8.61,3.6-8.61,3.6c-7,4-4,7.25-4,7.25c10.12,0.25,13.75,1.5,13.75,1.5l24.88-3
		l27.62-3.5l116.88-18.75c0,0,35.12-4.68,39.58-3.62c4.75,1.12,23.67,10.75,23.67,10.75c10.38,4.75,21.38,12.38,21.38,12.38
		c10.38,4.25,23.96,14.29,23.96,14.29c20.17,9,29.67,16.67,29.67,16.67c26,13.33,33.33,20.17,33.33,20.17
		c27.67,12.83,43,24.5,43,24.5c40.33,17.83,54.5,28.67,54.5,28.67c50.83,10.5,71,20,71,20c30.7,4.75,57.05-1.58,67.52-4.74
		c-10.77-31.18-25.88-51.12-32.35-57.68c-4.75,5.17-13.07,19.82-20.43,33.62L342.56,89.4L110.81,128.99z"/>

	<path id="top_surface_tv" onmousedown="parent.PanelClick('top_surface', evt)" onmouseover="parent.PanelMouseOver('top_surface')" onmouseout="parent.PanelMouseOut('top_surface')" fill="#FFFFFF" fill-opacity="0.97" d="M116.79,123.84c14.67-5.99,48.57-19.27,105.17-38.41
		c0,0,94.81-29.65,169.94-51.03l3.6-0.33l6.14,0.33c95.92,50.17,248.17,145,260.92,157.92c-4.75,5.17-13.07,19.82-20.43,33.62l0,0
		L342.56,89.4l-231.75,39.59C110.81,128.99,116.79,123.84,116.79,123.84z"/>
	<path id="leading_edge_tv" onmousedown="parent.PanelClick('leading_edge', evt)" onmouseover="parent.PanelMouseOver('leading_edge')" onmouseout="parent.PanelMouseOut('leading_edge')" fill="#FFFFFF" stroke="#000000" stroke-width="0.5" stroke-miterlimit="1" d="M221.96,85.43
		c45.36-15.34,105.29-34.46,181.6-56.61c0,0,7.08-1,13.17,2.25c112.12,59.9,190.24,112.18,246.83,155
		c15.57,11.78,33.12,34.12,36.18,62.33c0,0-1.71,0.66-4.82,1.6c-10.77-31.18-25.88-51.12-32.35-57.68
		c-12.75-12.92-165-107.75-260.92-157.92l-6.14-0.33l-3.6,0.33C316.77,55.77,221.96,85.43,221.96,85.43z"/>
	<path fill="#DBDBDB" stroke="#000000" stroke-width="0.5" stroke-miterlimit="1" d="M231.19,199.69
		c34.37-29.62,98.71-90.75,98.71-90.75l-4-1.71c0,0-63.79,60.61-98.16,90.23C227.15,198.81,229.98,200.73,231.19,199.69z"/>
	<path fill="#FFFFFF" stroke="#000000" stroke-width="0.5" stroke-miterlimit="1" d="M325.89,107.24l-1.77,1.67v-1.75l0,0
		c1.28-0.02,2.24,0.03,2.77,0.15c0.9,0.21,2.29,0.73,3.97,1.42c0,0-2.28,2.3-2.78,2.6c-0.51,0.31-0.69,0.17-0.69,0.17l0.14-0.52
		C328.13,109.8,327.91,107.78,325.89,107.24"/>
	<path fill="#DBDBDB" stroke="#000000" stroke-width="0.5" stroke-miterlimit="1" d="M317.31,4.56l35.25,75
		c-0.38,1-3.7,3.88-3.7,3.88L312.44,7.81C312.44,7.81,314.19,4.81,317.31,4.56z"/>
	<path id="speedbar" fill="#DBDBDB" stroke="#000000" stroke-width="0.5" stroke-miterlimit="1" d="M438.86,174.13l-12.61-2.2
		c-0.17-0.03-0.34-0.1-0.48-0.21l-5.78-4.34c-0.6-0.45-1.3-0.75-2.04-0.86l-20.59-3.27c-0.52-0.08-1.06-0.1-1.59-0.06l-12.41,1.08
		c-0.11,0.01-0.23,0-0.34-0.02l-12.05-2.14l-2.21,1.05l13.16,2.35c0.22,0.04,0.45,0.05,0.68,0.03l12.17-1.11
		c0.53-0.05,0.99-0.04,1.51,0.05l19.52,3.1c0.74,0.12,1.44,0.41,2.04,0.86l5.75,4.31c0.16,0.12,0.35,0.2,0.55,0.24l12.28,2.18
		L438.86,174.13z"/>
	<path fill="#DBDBDB" stroke="#000000" stroke-width="0.5" stroke-miterlimit="1" d="M404.12,148.6c5.37,2.84,13.63,7.47,16.46,9.31
		l0,0l18.36,14.95c0.72,0.85-0.03,1.64-0.03,1.64l-2.47,0.67c0.16-0.01,0.23-0.51-0.37-0.92L404.12,148.6z"/>
	<path fill="#DBDBDB" stroke="#000000" stroke-width="0.5" stroke-miterlimit="1" d="M370.97,162.12c0,0-2.21,1.05-2.21,1.05
		c-0.34-0.06-1.66-0.45-1.79-0.77l-17.3-44.78l0.88,0.45c1.03,0.48,2.07,0.98,3.11,1.5l0,0l16.44,41.85
		C370.26,161.79,370.58,162.05,370.97,162.12z"/>
	<path id="lestroke" fill="none" stroke="#000000" stroke-width="0.5" stroke-miterlimit="1" d="M221.96,85.43
		c-56.6,19.15-90.49,32.42-105.17,38.41"/>
</g>
<g id="letters_g">
	<path id="letters_rl" onmouseover="parent.PanelMouseOver('letters')" onmouseout="parent.PanelMouseOut('letters')" display="inline" d="M77.15,416.25c3.23-1.68,3.83-3.83,1.74-6.08c-2.15-2.3-5.05-2.62-8.38-1.2L77.15,416.25z
		 M76.11,416.75l-6.61-7.26l-4.49,2.2l6.61,7.18L76.11,416.75z M88.67,410.82l-4.93-5.3l-3.68,1.83l4.92,5.32L88.67,410.82z
		 M82.68,404.14c-0.42-0.53-1.72-0.53-2.87,0.07c-1.21,0.54-1.65,1.44-1.16,1.91c0.56,0.53,1.69,0.54,2.84-0.06
		C82.73,405.53,83.18,404.61,82.68,404.14z M95.92,407.51l-6.34-0.42l2.25,2.38L95.92,407.51z M96.08,402.91l-2.23-2.33l-4.15,1.99
		L96.08,402.91z M89.4,402.78l-0.3,0.09c-1.51,0.72-1.97,1.89-1.26,2.7c0.51,0.48,0.8,0.63,1.62,0.65l5.96,0.43
		c0.46,0.05,0.84,0.02,1.07,0.23c0.08,0.07-0.01,0.25-0.09,0.43c0.23-0.04,0.24-0.16,0.47-0.2c2.05-0.91,2.72-1.85,1.81-2.7
		c-0.3-0.41-1.14-0.68-2.15-0.71l-6.32-0.29c-0.45-0.04-0.67,0-0.89-0.21C89.24,403.13,89.17,402.94,89.4,402.78z M107.19,401.43
		l-4.88-5c-3.09,1.56-3.95,3.53-2.28,5.2c1.67,1.8,4.62,1.89,8.1,0.4c1.95-0.93,3.07-1.82,3.65-3.22l-1.03-1.07
		c-0.16,1.5-1.05,2.6-2.98,3.41C107.6,401.27,107.43,401.39,107.19,401.43z M109.5,396.33l-2.2-2.27l-4.49,2.15L109.5,396.33z
		 M121.76,395.56l0.18,0.01c3.58-1.73,4.02-2.81,2.52-4.42l-3.74-3.74l-4.76,2.26L121.76,395.56z M120.58,396.22l-5.78-5.87
		l-4.44,2.2l3.51,3.58c1.44,1.57,3.05,1.77,6.53,0.08L120.58,396.22z M135.53,389.07l-7.94-0.16l2.64,2.6L135.53,389.07z
		 M135.78,383.78l-2.53-2.48l-5.01,2.5L135.78,383.78z M127.67,384.06l-0.19,0.13c-1.88,0.9-2.52,2.27-1.76,3.07
		c0.6,0.52,0.95,0.68,1.85,0.73l7.39,0.12c0.56,0.03,0.85-0.03,1.11,0.2c0.18,0.15,0.16,0.29-0.05,0.57c0.2-0.13,0.49-0.19,0.5-0.33
		c2.57-1.15,3.44-2.26,2.65-3.1c-0.62-0.54-1.37-0.71-2.8-0.71l-7.55,0c-0.55-0.03-1.01,0.02-1.27-0.2
		C127.37,384.4,127.56,384.27,127.67,384.06z"/>
	<path id="letters_bs" onmouseover="parent.PanelMouseOver('letters')" onmouseout="parent.PanelMouseOut('letters')" display="none" d="M54.16,406.19c3.18-1.78,3.7-3.95,1.54-6.13c-2.22-2.23-5.13-2.46-8.42-0.93L54.16,406.19z
		 M53.14,406.72l-6.84-7.04l-4.41,2.34l6.84,6.97L53.14,406.72z M65.5,400.39l-5.1-5.14l-3.62,1.95l5.09,5.16L65.5,400.39z
		 M59.3,393.91c-0.44-0.51-1.73-0.48-2.86,0.17c-1.19,0.57-1.6,1.5-1.1,1.95c0.58,0.52,1.71,0.48,2.84-0.15
		C59.39,395.3,59.81,394.36,59.3,393.91z M72.64,396.85l-6.35-0.21l2.32,2.3L72.64,396.85z M72.65,392.24l-2.3-2.26l-4.08,2.12
		L72.65,392.24z M65.97,392.33l-0.3,0.1c-1.48,0.76-1.91,1.95-1.17,2.74c0.52,0.46,0.82,0.6,1.64,0.6l5.97,0.23
		c0.46,0.03,0.84,0,1.07,0.2c0.08,0.07,0,0.25-0.08,0.43c0.23-0.05,0.23-0.17,0.46-0.22c2.02-0.98,2.66-1.94,1.72-2.75
		c-0.31-0.4-1.16-0.64-2.17-0.64l-6.32-0.09c-0.45-0.03-0.67,0.02-0.9-0.18C65.82,392.69,65.74,392.5,65.97,392.33z M83.7,390.41
		l-5.03-4.84c-3.03,1.65-3.83,3.65-2.11,5.27c1.72,1.75,4.68,1.74,8.11,0.14c1.91-1,3.01-1.92,3.54-3.33l-1.06-1.04
		c-0.11,1.5-0.97,2.63-2.87,3.51C84.11,390.24,83.95,390.36,83.7,390.41z M85.85,385.24l-2.27-2.2l-4.42,2.29L85.85,385.24z
		 M98.08,384.07l0.18,0.01c3.53-1.85,3.93-2.94,2.38-4.5l-3.86-3.62l-4.68,2.42L98.08,384.07z M96.92,384.77l-5.97-5.68l-4.36,2.34
		l3.63,3.46c1.49,1.53,3.11,1.67,6.53-0.13L96.92,384.77z M111.63,377.14l-7.94,0.09l2.72,2.52L111.63,377.14z M111.71,371.85
		l-2.61-2.4l-4.93,2.66L111.71,371.85z M103.62,372.39l-0.19,0.14c-1.85,0.96-2.44,2.34-1.66,3.13c0.61,0.5,0.97,0.65,1.87,0.67
		l7.39-0.12c0.56,0.01,0.85-0.05,1.12,0.17c0.18,0.15,0.17,0.29-0.03,0.57c0.19-0.14,0.48-0.2,0.49-0.35
		c2.53-1.24,3.36-2.37,2.54-3.18c-0.64-0.52-1.4-0.67-2.82-0.62l-7.55,0.25c-0.55-0.01-1.01,0.06-1.27-0.16
		C103.33,372.74,103.52,372.6,103.62,372.39z"/>
</g>
</svg>
