<?xml version="1.0" encoding="UTF-8"?>
<!DOCTYPE svg PUBLIC "-//W3C//DTD SVG 1.1//EN" "http://www.w3.org/Graphics/SVG/1.1/DTD/svg11.dtd">
<!-- Creator: CorelDRAW 2019 -->
<svg xmlns="http://www.w3.org/2000/svg" xml:space="preserve" width="135px" height="100px" version="1.1" style="shape-rendering:geometricPrecision; text-rendering:geometricPrecision; image-rendering:optimizeQuality; fill-rule:evenodd; clip-rule:evenodd"
viewBox="0 0 18.6 13.81"
 xmlns:xlink="http://www.w3.org/1999/xlink"
 xmlns:xodm="http://www.corel.com/coreldraw/odm/2003">
 <defs>
  <style type="text/css">
   <![CDATA[
    .fil0 {fill:white}
   ]]>
  </style>
 </defs>
 <g id="Слой_x0020_1">
  <metadata id="CorelCorpID_0Corel-Layer"/>
  <path id="icons8-youtube.svg" class="fil0" d="M9.24 0c-2.85,0 -5.53,0.22 -6.95,0.52 -0.95,0.21 -1.77,0.86 -1.94,1.85 -0.18,1.04 -0.35,2.59 -0.35,4.54 0,1.94 0.17,3.45 0.39,4.53 0.17,0.95 0.99,1.64 1.94,1.86 1.51,0.3 4.1,0.51 6.95,0.51 2.85,0 5.44,-0.21 6.95,-0.51 0.95,-0.22 1.77,-0.87 1.94,-1.86 0.18,-1.08 0.39,-2.63 0.43,-4.58 0,-1.94 -0.21,-3.49 -0.43,-4.57 -0.17,-0.95 -0.99,-1.64 -1.94,-1.86 -1.51,-0.21 -4.14,-0.43 -6.99,-0.43zm0 0.86c3.11,0 5.61,0.26 6.82,0.48 0.64,0.17 1.16,0.6 1.25,1.16 0.26,1.38 0.43,2.85 0.43,4.36 -0.04,1.86 -0.26,3.37 -0.43,4.45 -0.13,0.82 -0.99,1.08 -1.25,1.17 -1.56,0.3 -4.15,0.51 -6.74,0.51 -2.59,0 -5.22,-0.17 -6.73,-0.51 -0.65,-0.18 -1.17,-0.61 -1.25,-1.17 -0.35,-1.21 -0.48,-2.81 -0.48,-4.4 0,-1.99 0.18,-3.46 0.35,-4.36 0.13,-0.82 1.03,-1.08 1.25,-1.17 1.42,-0.3 4.06,-0.52 6.78,-0.52zm-2.33 2.59l0 6.91 6.04 -3.45 -6.04 -3.46z"/>
 </g>
</svg>
