<?xml version="1.0" encoding="UTF-8"?>
<!DOCTYPE svg PUBLIC "-//W3C//DTD SVG 1.1//EN" "http://www.w3.org/Graphics/SVG/1.1/DTD/svg11.dtd">
<!-- Creator: CorelDRAW 2019 -->
<svg xmlns="http://www.w3.org/2000/svg" xml:space="preserve" width="123px" height="123px" version="1.1" style="shape-rendering:geometricPrecision; text-rendering:geometricPrecision; image-rendering:optimizeQuality; fill-rule:evenodd; clip-rule:evenodd"
viewBox="0 0 22.61 22.61"
 xmlns:xlink="http://www.w3.org/1999/xlink"
 xmlns:xodm="http://www.corel.com/coreldraw/odm/2003">
 <defs>
  <style type="text/css">
   <![CDATA[
    .fil0 {fill:white;fill-rule:nonzero}
   ]]>
  </style>
 </defs>
 <g id="Слой_x0020_1">
  <metadata id="CorelCorpID_0Corel-Layer"/>
  <path class="fil0" d="M1.2 3.32l0 15.98c0,0.1 0.02,0.23 0.05,0.37 0.05,0.18 0.11,0.35 0.15,0.45 0.06,0.12 0.13,0.23 0.2,0.32 0.07,0.1 0.16,0.2 0.27,0.31 0.2,0.2 0.45,0.38 0.72,0.5 0.23,0.1 0.48,0.17 0.73,0.17l7.3 0 0 -6.46 -1.24 0c-0.39,0 -0.68,-0.1 -0.9,-0.32 -0.22,-0.23 -0.32,-0.52 -0.32,-0.91l0 -2.21c0,-0.3 0.09,-0.58 0.27,-0.78 0.19,-0.23 0.45,-0.37 0.79,-0.37l1.4 0 0 -2.03c0,-0.65 0.13,-1.27 0.34,-1.81 0.23,-0.6 0.56,-1.12 0.94,-1.49 1.39,-1.38 3.05,-1.35 4.78,-1.32 0.18,0 0.37,0 0.73,0 0.27,0 0.53,0.13 0.72,0.31 0.18,0.18 0.3,0.44 0.3,0.71l0 2.13c0,0.91 -0.65,1.03 -1.21,1.03l-0.27 -0.01 0 0c-1.86,0 -1.85,0.29 -1.83,2.17l0 0.31 2.38 0c0.81,0 1.03,0.51 1.03,1.18 0,0.25 -0.04,0.53 -0.09,0.8l0 0.01c-0.02,0.14 -0.04,0.28 -0.05,0.42l-0.01 0.13c-0.04,0.47 -0.11,1.38 -0.45,1.72 -0.13,0.14 -0.27,0.22 -0.44,0.27l-0.01 0c-0.13,0.05 -0.28,0.06 -0.44,0.06l-1.91 0 0 6.46 4.17 0c0.36,0 0.74,-0.14 1.06,-0.36 0.37,-0.24 0.67,-0.57 0.84,-0.92 0.05,-0.1 0.11,-0.27 0.16,-0.46 0.03,-0.14 0.06,-0.28 0.06,-0.38l0 -15.98c0,-0.52 -0.27,-1.05 -0.67,-1.45 -0.4,-0.41 -0.93,-0.67 -1.45,-0.67l-15.98 0c-0.37,0 -0.74,0.13 -1.07,0.35 -0.36,0.24 -0.66,0.57 -0.84,0.93 -0.05,0.1 -0.11,0.26 -0.15,0.45 -0.04,0.14 -0.06,0.28 -0.06,0.39zm-1.2 15.98l0 -15.98c0,-0.21 0.04,-0.45 0.1,-0.68 0.06,-0.26 0.16,-0.52 0.24,-0.69l0 0c0.27,-0.54 0.72,-1.04 1.25,-1.4 0.52,-0.34 1.12,-0.55 1.73,-0.55l15.98 0c0.85,0 1.68,0.41 2.29,1.02 0.62,0.61 1.02,1.45 1.02,2.3l0 15.98c0,0.2 -0.04,0.45 -0.09,0.67 -0.07,0.26 -0.16,0.52 -0.25,0.69l0 0c-0.26,0.55 -0.71,1.05 -1.25,1.4 -0.51,0.34 -1.11,0.55 -1.72,0.55l-5.37 0 0 -8.85c1.05,0 2.12,0.02 3.17,0 0.02,-0.12 0.06,-0.65 0.09,-0.94 0,-0.04 0.01,-0.09 0.01,-0.14 0.01,-0.14 0.04,-0.33 0.07,-0.51 0.03,-0.21 0.06,-0.42 0.06,-0.6l-3.4 0 0 -0.6c0,-0.55 0,-0.73 0,-0.9 -0.04,-2.92 -0.04,-3.38 3.02,-3.37l0 -0.01 0.27 0.01c0.01,0 0.01,0.33 0.01,0.17l0 -1.95 -0.57 -0.01c-1.48,-0.03 -2.88,-0.05 -3.92,0.97 -0.26,0.26 -0.5,0.63 -0.66,1.08 -0.16,0.41 -0.26,0.88 -0.26,1.38l0 3.23 -2.47 0 0 2.16c0,0.06 -0.05,0.04 -0.03,0.06 0.02,0.02 0,-0.03 0.06,-0.03l2.44 0 0 8.85 -8.5 0c-0.43,0 -0.84,-0.1 -1.22,-0.27 -0.41,-0.18 -0.78,-0.45 -1.08,-0.75 -0.13,-0.13 -0.25,-0.27 -0.38,-0.43 -0.11,-0.16 -0.22,-0.33 -0.32,-0.54 -0.08,-0.16 -0.17,-0.42 -0.23,-0.67 -0.05,-0.22 -0.09,-0.46 -0.09,-0.65z"/>
 </g>
</svg>
