<?xml version="1.0" standalone="no"?>
<!DOCTYPE svg PUBLIC "-//W3C//DTD SVG 20010904//EN"
 "http://www.w3.org/TR/2001/REC-SVG-20010904/DTD/svg10.dtd">
<svg version="1.0" xmlns="http://www.w3.org/2000/svg"
 width="945.000000pt" height="945.000000pt" viewBox="0 0 945.000000 945.000000"
 preserveAspectRatio="xMidYMid meet">
<metadata>
Created by potrace 1.14, written by Peter Selinger 2001-2017
</metadata>
<g transform="translate(0.000000,945.000000) scale(0.100000,-0.100000)"
fill="#000000" stroke="none">
<path d="M4557 6328 c-41 -9 -439 -177 -817 -345 -1143 -510 -2102 -1020
-2985 -1587 -126 -81 -240 -160 -252 -174 -30 -35 -31 -109 -4 -144 11 -14 55
-49 98 -79 43 -29 247 -172 453 -318 206 -145 404 -278 440 -295 61 -29 72
-31 175 -30 92 0 118 4 160 23 144 65 832 314 845 306 5 -3 10 -1 12 4 9 25
986 316 1258 375 14 3 90 22 170 41 382 93 1039 212 1315 240 33 3 67 7 75 10
36 10 468 50 660 61 58 3 119 7 135 9 17 2 158 7 315 11 l285 7 235 -153 c129
-84 493 -324 808 -532 316 -209 587 -384 603 -390 37 -13 72 -4 100 25 54 57
-11 190 -165 333 -152 142 -427 356 -780 605 -65 46 -117 89 -115 94 5 13 324
10 549 -5 91 -6 206 -13 255 -16 50 -3 211 -16 359 -29 287 -25 316 -24 316
18 0 66 -190 154 -410 191 -79 13 -257 33 -545 61 -815 80 -1838 91 -2725 30
-616 -43 -1424 -143 -1940 -240 -41 -7 -127 -23 -190 -35 -351 -65 -805 -164
-1209 -265 -261 -64 -306 -71 -355 -55 -34 11 -41 23 -36 60 4 31 71 85 250
199 946 605 1683 999 2435 1301 264 107 234 110 570 -69 182 -97 282 -145 310
-148 50 -6 671 74 705 90 33 16 37 44 8 74 -25 27 -326 217 -598 378 -91 54
-176 105 -190 114 -29 18 -61 36 -278 154 -171 94 -227 111 -305 95z"/>
<path d="M6480 5428 c-3 -3 -94 -8 -202 -12 -108 -3 -203 -8 -210 -10 -7 -3
-65 -7 -128 -11 -63 -3 -157 -10 -208 -15 -51 -6 -96 -9 -100 -8 -4 1 -27 -2
-52 -5 -25 -4 -72 -9 -105 -12 -33 -3 -166 -19 -295 -35 -612 -78 -1230 -191
-1803 -331 l-247 -61 -228 -127 c-294 -165 -276 -154 -227 -145 22 4 49 7 60
8 11 1 22 4 25 7 16 20 1055 248 1068 234 2 -2 12 0 21 4 53 29 1047 173 1486
215 260 26 489 42 825 61 271 15 667 17 978 5 360 -13 380 -12 356 28 -46 74
-263 147 -559 187 -111 15 -446 32 -455 23z"/>
<path d="M6290 5088 c-63 -4 -239 -12 -390 -19 -151 -6 -297 -13 -325 -15
-110 -8 -410 -36 -570 -54 -93 -11 -190 -22 -215 -24 -25 -3 -168 -23 -318
-45 -151 -22 -277 -40 -280 -39 -4 1 -14 -1 -22 -4 -8 -4 -109 -23 -225 -43
-115 -20 -329 -62 -475 -92 -146 -30 -274 -57 -285 -59 -11 -2 -121 -28 -244
-59 -124 -30 -234 -57 -245 -60 -12 -2 -52 -13 -90 -24 -37 -11 -71 -20 -75
-19 -3 1 -13 -2 -21 -5 -42 -17 -131 -38 -140 -32 -5 3 -10 2 -10 -4 0 -5 -6
-11 -13 -13 -20 -5 -469 -280 -464 -284 2 -3 114 23 248 56 607 151 1283 292
1793 375 87 15 164 24 172 21 7 -3 14 -1 16 3 3 9 416 69 698 101 275 31 481
49 865 75 269 19 573 25 1040 21 599 -6 899 -21 1506 -77 260 -24 284 -21 229
29 -162 149 -716 250 -1540 282 -365 14 -498 15 -620 8z"/>
</g>
</svg>
