<?xml version="1.0" encoding="UTF-8" standalone="no"?>
<!DOCTYPE svg PUBLIC "-//W3C//DTD SVG 1.1//EN" "http://www.w3.org/Graphics/SVG/1.1/DTD/svg11.dtd">
<!--Generator: Xara Xtreme (www.xara.com), SVG filter version: 1.0.0.13-->
<svg
  xmlns:xlink="http://www.w3.org/1999/xlink"
  xmlns="http://www.w3.org/2000/svg"
  id="svg_discus_c"
  preserveAspectRatio="xMinYMin meet"
>
  <defs>
    <marker
    id="DefaultArrowScaled"
    markerUnits="strokeWidth"
    viewBox="0 0 1 1"
    markerWidth="8"
    markerHeight="8"
    overflow="visible"
    orient="auto"
    >
      <g transform="scale(0.0092592592) scale(-1 1)">
        <path d="M -54, 0 C -54,29.807 -29.807,54 0,54 C 29.807,54 54,29.807 54,0 C 54,-29.807 29.807,-54 0,-54 C -29.807,-54 -54,-29.807 -54,0 z"/>
      </g>
    </marker>
  </defs>
  <g transform="translate(1, 399) scale(1.3, -1.3)">
    <path
      id="leading_edge"
      cursor="pointer"
      fill="#dddddd"
      stroke="#000000"
      stroke-width="0.1"
      onmouseover="parent.PanelMouseOver(this.id)"
      onmouseout="parent.PanelMouseOut(this.id)"
      d="M 16.887,103.231 C 15.126,116.579 19.005,126.803 32.817,142.006 L 166.459,289.273 L 360.063,292.847 C 386.206,293.31 398.72,287.504 405.117,279.531 L 406.346,280.136 C 397.261,295.248 376.193,297.471 361.547,298.768 L 358.858,298.861 L 356.262,298.955 L 353.944,299.14 L 351.535,299.233 L 349.124,299.326 L 346.715,299.417 L 344.303,299.511 L 341.986,299.695 L 339.483,299.882 L 337.258,299.882 L 334.661,299.975 L 332.438,300.066 L 329.934,300.066 L 327.524,300.252 L 325.114,300.345 L 322.797,300.345 L 320.385,300.345 L 317.883,300.531 L 315.565,300.438 L 313.061,300.531 L 310.651,300.623 L 308.335,300.623 L 305.831,300.809 L 303.514,300.901 L 301.103,300.809 L 298.694,300.809 L 296.283,300.901 L 293.965,300.809 L 291.555,300.901 L 289.423,300.994 L 286.641,300.994 L 283.675,300.994 L 280.801,301.087 L 277.927,301.087 L 275.053,301.087 L 272.087,300.994 L 269.213,301.087 L 266.34,301.087 L 263.373,301.087 L 260.499,301.087 L 257.625,301.087 L 254.659,301.087 L 251.785,300.994 L 248.91,301.087 L 245.945,300.994 L 243.069,301.087 L 240.29,301.087 L 237.322,300.901 L 234.45,300.901 L 231.482,300.901 L 228.702,300.809 L 225.828,300.809 L 222.862,300.715 L 219.987,300.715 L 217.021,300.715 L 214.054,300.623 L 211.273,300.531 L 208.399,300.531 L 205.525,300.438 L 202.559,300.252 L 199.685,300.345 L 196.904,300.159 L 193.937,300.159 L 190.971,300.066 L 188.096,299.975 L 185.223,299.975 L 182.349,299.882 L 179.383,299.604 L 176.416,299.511 L 173.636,299.511 L 170.668,299.417 L 167.887,299.326 L 164.92,299.14 L 162.048,299.047 L 159.916,296.822 L 157.876,294.783 L 155.929,292.743 L 153.981,290.611 L 152.035,288.478 L 149.996,286.347 L 147.862,284.308 L 145.917,282.176 L 144.062,280.042 L 142.022,277.911 L 140.076,275.685 L 138.037,273.553 L 136.09,271.515 L 134.236,269.289 L 132.197,267.25 L 130.25,265.118 L 128.303,262.985 L 126.357,260.946 L 124.409,258.72 L 122.464,256.496 L 120.516,254.363 L 118.477,252.231 L 116.623,250.1 L 114.676,247.967 L 112.729,245.835 L 110.874,243.611 L 108.835,241.571 L 106.888,239.438 L 105.034,237.214 L 103.086,234.989 L 101.232,232.857 L 99.286,230.723 L 97.339,228.5 L 95.486,226.274 L 93.539,224.143 L 91.591,221.918 L 89.645,219.784 L 87.791,217.561 L 85.845,215.427 L 83.99,213.204 L 82.043,211.071 L 80.19,208.847 L 78.336,206.622 L 76.482,204.582 L 75.09,202.912 L 73.515,201.058 L 71.94,199.297 L 70.363,197.444 L 68.88,195.589 L 67.304,193.827 L 65.728,191.973 L 64.244,190.028 L 62.669,188.359 L 61.185,186.412 L 59.61,184.558 L 58.032,182.795 L 56.55,180.85 L 54.882,178.995 L 53.398,177.234 L 51.823,175.38 L 50.431,173.527 L 48.855,171.672 L 47.371,169.817 L 45.889,167.871 L 44.22,166.11 L 42.829,164.255 L 41.347,162.309 L 39.863,160.454 L 38.287,158.508 L 36.711,156.653 L 35.228,154.892 L 33.837,152.945 L 32.261,150.998 L 30.778,149.144 L 29.294,147.383 C 20.951,134.774 9.441,118.408 15.651,102.74 L 16.887,103.231 Z
         M 63.202,13.795 C 59.031,31.966 73.4,49.579 77.108,55.976 L 78.591,57.738 L 79.982,59.684 L 81.558,61.539 L 83.041,63.393 L 84.524,65.248 L 86.008,67.194 L 87.49,68.955 L 88.974,70.902 L 90.458,72.755 L 92.033,74.703 L 93.424,76.465 L 95,78.411 L 96.484,80.266 L 97.965,82.119 L 99.543,84.066 L 101.118,85.827 L 102.508,87.681 L 104.085,89.535 L 105.567,91.39 L 107.144,93.244 L 108.721,95.098 L 110.296,96.859 L 111.78,98.713 L 113.263,100.66 L 114.839,102.422 L 116.322,104.276 L 117.99,106.223 L 119.381,107.891 L 121.05,109.746 L 122.625,111.599 L 123.923,113.175 L 125.778,115.401 L 127.54,117.532 L 129.578,119.664 L 131.433,121.889 L 133.286,124.114 L 135.141,126.246 L 137.088,128.471 L 139.034,130.603 L 140.888,132.829 L 142.742,134.961 L 144.689,137.186 L 146.636,139.318 L 148.49,141.542 L 150.437,143.768 L 152.383,145.9 L 154.237,148.032 L 156.277,150.164 L 158.131,152.389 L 159.984,154.521 L 161.839,156.746 L 163.879,158.786 L 165.733,161.01 L 167.773,163.05 L 169.627,165.275 L 171.574,167.406 L 173.612,169.447 L 175.467,171.672 L 177.506,173.897 L 179.454,176.029 L 181.307,178.161 L 183.255,180.293 L 185.2,182.425 L 187.24,184.557 L 189.096,186.689 L 191.134,188.729 L 193.173,190.954 L 195.027,193.087 L 197.066,195.218 L 199.014,197.257 L 200.96,199.39 L 203,201.429 L 204.947,203.561 L 209.312,207.957 L 216.072,208.29 L 218.946,208.29 L 221.819,208.474 L 224.786,208.474 L 227.566,208.661 L 230.533,208.661 L 233.313,208.753 L 236.189,208.845 L 239.154,208.938 L 241.935,209.031 L 244.903,209.031 L 247.869,209.124 L 250.649,209.124 L 253.524,209.217 L 256.398,209.217 L 259.365,209.31 L 262.331,209.217 L 265.205,209.401 L 268.079,209.494 L 270.952,209.401 L 273.825,209.588 L 276.7,209.494 L 279.573,209.679 L 282.54,209.588 L 285.321,209.588 L 288.195,209.588 L 291.162,209.588 L 294.036,209.679 L 296.817,209.679 L 299.877,209.679 L 302.749,209.588 L 305.531,209.588 L 308.59,209.588 L 311.371,209.588 L 314.244,209.494 L 317.119,209.588 L 320.084,209.588 L 322.96,209.588 L 325.833,209.494 L 328.707,209.401 L 331.674,209.494 L 334.454,209.401 L 337.329,209.31 L 339.368,209.31 L 341.871,209.31 L 344.374,209.31 L 346.506,209.217 L 349.102,209.217 L 351.418,209.031 L 353.829,209.124 L 356.24,208.938 L 358.557,208.845 L 361.06,208.845 L 363.472,208.753 L 365.881,208.753 L 368.198,208.661 L 370.61,208.568 L 373.019,208.382 L 375.337,208.474 L 377.839,208.29 L 380.158,208.196 L 382.568,208.104 L 385.071,208.012 L 387.295,207.826 L 389.799,207.734 L 392.209,207.64 L 394.618,207.547 L 396.937,207.455 L 399.44,207.27 L 401.757,207.177 L 404.169,206.992 L 406.578,206.992 L 408.895,206.806 L 411.213,206.714 C 418.538,205.231 440.832,204.964 451.771,189.76 L 452.411,190.025 C 443.419,205.136 422.06,208.012 407.506,209.217 L 405.188,209.31 L 402.591,209.401 L 400.274,209.588 L 397.956,209.679 L 395.454,209.773 L 393.043,209.866 L 390.726,209.958 L 388.315,210.143 L 385.905,210.329 L 383.589,210.329 L 380.993,210.422 L 378.767,210.515 L 376.265,210.515 L 373.855,210.699 L 371.443,210.793 L 369.219,210.793 L 366.808,210.793 L 364.305,210.977 L 361.896,210.885 L 359.485,210.977 L 357.075,211.071 L 354.756,211.071 L 352.254,211.256 L 349.936,211.349 L 347.525,211.256 L 345.116,211.349 L 342.705,211.349 L 340.387,211.349 L 338.07,211.441 L 335.844,211.441 L 333.065,211.441 L 330.097,211.441 L 327.223,211.533 L 324.35,211.533 L 321.476,211.627 L 318.509,211.533 L 315.636,211.533 L 312.855,211.533 L 309.795,211.533 L 307.014,211.533 L 304.141,211.627 L 301.174,211.533 L 298.3,211.533 L 295.426,211.533 L 292.46,211.441 L 289.585,211.533 L 286.712,211.533 L 283.837,211.349 L 280.965,211.441 L 277.997,211.349 L 275.217,211.349 L 272.343,211.256 L 269.377,211.163 L 266.595,211.163 L 263.536,211.163 L 260.662,211.163 L 257.788,210.977 L 255.008,210.977 L 252.04,210.885 L 249.167,210.699 L 246.292,210.793 L 243.419,210.699 L 240.546,210.607 L 237.578,210.515 L 234.611,210.422 L 231.831,210.422 L 229.05,210.422 L 226.084,210.051 L 223.117,209.958 L 220.335,209.958 L 217.37,209.866 L 214.588,209.773 L 211.622,209.588 L 208.748,209.494 L 206.615,207.363 L 204.576,205.231 L 202.63,203.283 L 200.683,201.058 L 198.735,198.927 L 196.789,196.795 L 194.564,194.755 L 192.71,192.622 L 190.763,190.582 L 188.816,188.357 L 186.776,186.225 L 184.83,184.093 L 182.883,182.055 L 181.029,179.829 L 178.99,177.79 L 176.95,175.565 L 175.097,173.525 L 173.149,171.486 L 171.11,169.26 L 169.162,167.036 L 167.309,164.903 L 165.269,162.771 L 163.415,160.64 L 161.468,158.507 L 159.521,156.375 L 157.668,154.151 L 155.628,152.111 L 153.681,149.978 L 151.827,147.754 L 149.88,145.621 L 148.027,143.396 L 146.08,141.264 L 144.133,139.132 L 142.279,136.907 L 140.332,134.775 L 138.385,132.55 L 136.531,130.418 L 134.677,128.193 L 132.638,126.061 L 130.783,123.835 L 128.928,121.703 L 127.075,119.479 L 125.221,117.254 L 123.274,115.122 L 121.976,113.545 L 120.401,111.691 L 118.825,109.93 L 117.248,108.076 L 115.766,106.223 L 114.189,104.461 L 112.614,102.606 L 111.037,100.66 L 109.554,98.991 L 108.071,97.045 L 106.495,95.191 L 104.827,93.428 L 103.436,91.482 L 101.767,89.628 L 100.284,87.959 L 98.708,86.106 L 97.317,84.159 L 95.742,82.305 L 94.258,80.544 L 92.774,78.596 L 91.107,76.835 L 89.715,74.888 L 88.139,72.942 L 86.749,71.18 L 85.173,69.233 L 83.596,67.38 L 82.208,65.525 L 80.724,63.67 L 79.148,61.631 L 77.535,59.691 C 69.006,47.731 56.957,30.185 62.611,13.499 L 63.202,13.795 Z"
    />
    <path
      id="top_surface"
      cursor="pointer"
      fill="#dddddd"
      stroke="#000000"
      stroke-width="0.1"
      onmouseover="parent.PanelMouseOver(this.id)"
      onmouseout="parent.PanelMouseOut(this.id)"
      d="M 16.639,105.498 L 185.78,246.391 L 404.103,280.683 L 405.126,279.526 C 398.73,287.498 386.445,293.261 360.301,292.798 L 166.466,289.265 L 33.259,142.377 C 19.447,127.174 15.103,116.766 16.864,103.417 L 16.639,105.498 Z"
    />
    <path
      id="trailing_edge"
      cursor="pointer"
      fill="#dddddd"
      stroke="#000000"
      stroke-width="0.1"
      onmouseover="parent.PanelMouseOver(this.id)"
      onmouseout="parent.PanelMouseOut(this.id)"
      d="M 405.131,279.545 L 404.125,280.676 L 185.786,246.39 L 16.636,105.507 L 16.887,103.218 L 15.65,102.747 L 15.724,102.56 C 23.06,99.48 28.182,100.565 35.506,102.79 L 44.127,108.908 L 53.028,114.471 L 57.384,118.458 L 61.834,122.259 L 66.748,125.596 L 71.753,128.655 L 75.925,133.104 L 80.468,137.091 L 85.102,140.799 L 90.016,144.137 L 94.187,148.308 L 98.73,152.294 L 103.458,155.817 L 108.371,159.061 L 126.82,174.265 L 143.785,188.355 L 160.378,201.335 L 173.82,211.995 L 185.965,220.895 L 195.235,225.809 L 204.876,229.516 L 219.616,232.761 L 236.489,235.821 L 257.162,239.622 L 278.947,243.237 L 302.494,247.038 L 308.241,248.613 L 313.989,249.818 L 319.922,250.561 L 325.856,250.931 L 331.696,252.415 L 337.537,253.527 L 343.469,254.175 L 349.495,254.454 L 355.15,256.215 L 360.897,257.699 L 366.645,258.532 L 372.578,259.182 C 379.253,261.5 386.021,263.353 392.973,264.651 C 400.76,268.638 406.39,273.33 406.483,279.911 L 406.346,280.138 L 405.131,279.545 Z
         M 241.75,136.351 L 232.573,131.531 L 220.521,122.63 L 207.079,111.969 L 190.577,98.991 L 173.52,84.992 L 155.164,69.79 L 150.252,66.546 L 145.523,63.022 L 140.982,59.035 L 136.901,54.864 L 131.897,51.433 L 127.261,47.726 L 122.81,43.833 L 118.639,39.383 L 113.541,36.324 L 108.721,32.987 L 104.178,29.184 L 99.82,25.199 L 95.093,22.788 L 90.643,20.1 L 86.285,16.948 L 82.299,13.518 C 74.234,10.181 67.705,9.062 62.698,13.234 L 62.61,13.503 L 63.204,13.788 C 70.47,17.357 72.615,18.444 78.779,21.566 L 235.214,150.548 L 435.556,183.269 C 441.802,185.713 446.445,187.586 451.763,189.75 L 452.41,190.036 L 452.553,189.794 C 452.46,183.212 446.997,179.273 439.21,175.286 L 434.019,174.452 L 428.828,173.247 L 423.821,171.672 L 418.908,169.725 L 412.974,169.077 L 407.228,168.149 L 401.48,166.758 L 395.916,164.997 L 389.799,164.719 L 383.958,164.069 L 378.026,162.958 L 372.185,161.474 L 366.344,161.103 L 360.318,160.361 L 354.664,159.156 L 348.916,157.58 L 325.369,153.78 L 303.677,150.258 L 283.004,146.363 L 266.225,143.303 L 251.391,140.059 L 241.75,136.351 Z"
    />
    <path
      fill="none"
      stroke="#000000"
      stroke-width="0.1"
      d="M 15.354,102.629 L 17.098,103.294 L 31.798,110.765 L 185.408,237.305
         M 406.614,280.274 L 404.947,279.441 L 389.358,272.719 L 192.917,240.643"
    />
    <path
      id="bottom_surface"
      cursor="pointer"
      fill="#ffff00"
      stroke="#000000"
      stroke-width="0.1"
      onmouseover="parent.PanelMouseOver(this.id)"
      onmouseout="parent.PanelMouseOut(this.id)"
      d="M 63.158,27.374 C 65.533,39.858 74.426,51.36 77.108,55.99 L 78.593,57.751 L 79.983,59.698 L 81.559,61.552 L 83.042,63.406 L 84.525,65.259 L 86.009,67.206 L 87.492,68.968 L 88.975,70.916 L 90.459,72.769 L 92.033,74.716 L 93.425,76.478 L 95.001,78.423 L 96.485,80.277 L 97.968,82.132 L 99.544,84.078 L 101.119,85.84 L 102.51,87.695 L 104.087,89.549 L 105.57,91.403 L 107.146,93.256 L 108.722,95.11 L 110.296,96.873 L 111.781,98.726 L 113.264,100.673 L 114.839,102.434 L 116.323,104.288 L 117.991,106.235 L 119.382,107.904 L 121.051,109.757 L 122.627,111.612 L 123.925,113.188 L 125.779,115.414 L 127.541,117.546 L 129.579,119.677 L 131.434,121.902 L 133.289,124.128 L 135.142,126.259 L 137.088,128.485 L 139.035,130.617 L 140.889,132.841 L 142.744,134.973 L 144.689,137.198 L 146.637,139.331 L 148.491,141.556 L 150.438,143.78 L 152.385,145.912 L 154.239,148.045 L 156.278,150.176 L 158.132,152.402 L 159.986,154.534 L 161.841,156.759 L 163.88,158.798 L 165.734,161.024 L 167.775,163.062 L 169.628,165.288 L 171.575,167.42 L 173.614,169.46 L 175.468,171.685 L 177.508,173.909 L 179.455,176.041 L 181.308,178.173 L 183.256,180.306 L 185.203,182.438 L 187.243,184.569 L 189.096,186.702 L 191.136,188.742 L 193.174,190.966 L 195.029,193.098 L 197.067,195.231 L 199.015,197.271 L 200.961,199.403 L 203.001,201.442 L 204.947,203.574 L 209.313,207.97 L 216.073,208.303 L 218.946,208.303 L 221.82,208.487 L 224.787,208.487 L 227.567,208.673 L 230.535,208.673 L 233.315,208.766 L 236.19,208.859 L 239.156,208.951 L 241.937,209.044 L 244.904,209.044 L 247.87,209.137 L 250.652,209.137 L 253.525,209.228 L 256.398,209.228 L 259.366,209.322 L 262.333,209.228 L 265.205,209.415 L 268.08,209.508 L 270.953,209.415 L 273.827,209.601 L 276.702,209.508 L 279.574,209.693 L 282.54,209.601 L 285.322,209.601 L 288.196,209.601 L 291.163,209.601 L 294.037,209.693 L 296.818,209.693 L 299.877,209.693 L 302.75,209.601 L 305.532,209.601 L 308.591,209.601 L 311.372,209.601 L 314.247,209.508 L 317.12,209.601 L 320.087,209.601 L 322.961,209.601 L 325.834,209.508 L 328.708,209.415 L 331.675,209.508 L 334.455,209.415 L 337.329,209.322 L 339.369,209.322 L 341.872,209.322 L 344.375,209.322 L 346.507,209.228 L 349.104,209.228 L 351.421,209.044 L 353.83,209.137 L 356.242,208.951 L 358.559,208.859 L 361.062,208.859 L 363.473,208.766 L 365.882,208.766 L 368.2,208.673 L 370.611,208.581 L 373.021,208.395 L 375.338,208.487 L 377.84,208.303 L 380.16,208.21 L 382.569,208.117 L 385.072,208.023 L 387.297,207.839 L 389.8,207.746 L 392.21,207.654 L 394.621,207.561 L 396.939,207.468 L 399.441,207.283 L 401.759,207.189 L 404.17,207.005 L 406.579,207.005 L 408.897,206.819 L 411.216,206.726 C 416.701,205.615 432.299,205.041 443.405,197.657 L 228.587,164.347 L 63.158,27.374 Z"
    />
    <path
      id="middle_line"
      cursor="pointer"
      fill="#add8e6"
      stroke="#000000"
      stroke-width="0.1"
      onmouseover="parent.PanelMouseOver(this.id)"
      onmouseout="parent.PanelMouseOut(this.id)"
      d="M 63.208,13.793 L 78.684,21.491 L 235.166,150.508 L 435.595,183.259 L 451.764,189.757 C 449.517,192.82 446.846,195.475 443.353,197.669 L 228.587,164.352 L 63.107,27.317 C 62.237,22.72 62.219,18.009 63.208,13.793 Z"
    />
    <path
      id="letters"
      cursor="pointer"
      fill="none"
      stroke="#0000cd"
      stroke-width="0.5"
      opacity="1"
      onmouseover="parent.PanelMouseOver(this.id)"
      onmouseout="parent.PanelMouseOut(this.id)"
      d="M 114.375,56.049 C 118.176,59.386 120.308,62.908 120.493,66.061 C 120.678,69.306 118.732,69.306 115.024,66.432 L 114.375,56.049 Z M 113.17,55.029 L 113.819,65.413 L 108.442,60.962 L 107.885,50.581 L 113.17,55.029 Z M 127.167,66.802 L 127.631,74.127 L 123.553,70.697 L 123.089,63.281 L 127.167,66.802 Z M 127.91,76.073 C 128.003,76.816 127.075,76.629 125.778,75.518 C 124.48,74.498 123.46,73.014 123.46,72.365 C 123.46,71.623 124.295,71.809 125.592,72.921 C 126.89,73.94 127.91,75.424 127.91,76.073 Z M 134.677,73.014 L 130.599,72.642 L 130.412,69.399 L 134.677,73.014 Z M 138.106,79.875 L 138.293,83.025 L 134.029,79.503 L 138.106,79.875 Z M 133.658,79.132 L 133.38,78.948 C 131.803,77.65 130.599,75.796 130.505,74.682 C 130.505,74.034 130.599,73.848 131.154,73.94 L 134.955,74.219 C 135.234,74.219 135.511,74.312 135.511,74.034 C 135.511,73.94 135.326,73.663 135.141,73.384 C 135.326,73.478 135.419,73.663 135.603,73.757 C 137.643,75.424 138.756,76.907 138.756,78.02 C 138.849,78.576 138.479,78.855 137.829,78.761 L 133.75,78.299 C 133.471,78.299 133.286,78.205 133.286,78.483 C 133.286,78.576 133.38,78.855 133.658,79.132 Z M 146.359,83.49 L 146.729,90.072 C 143.67,87.477 141.722,84.509 141.63,82.285 C 141.444,79.875 143.299,80.153 146.542,82.748 C 148.397,84.323 149.695,85.714 150.993,87.754 L 151.086,89.144 C 149.973,87.012 148.675,85.344 146.914,83.953 C 146.729,83.768 146.542,83.583 146.359,83.49 Z M 151.271,90.998 L 151.457,93.964 L 147.192,90.442 L 151.271,90.998 Z M 159.058,93.317 L 159.151,93.317 C 162.303,96.005 163.231,97.488 163.415,99.527 L 163.694,104.256 L 159.521,100.825 L 159.058,93.317 Z M 157.946,92.297 L 158.409,99.806 L 154.33,96.376 L 154.053,91.74 C 153.866,89.7 154.701,89.608 157.853,92.297 L 157.946,92.297 Z M 170.739,103.142 L 166.567,102.772 L 166.382,99.527 L 170.739,103.142 Z M 174.077,110.003 L 174.261,113.062 L 170.09,109.538 L 174.077,110.003 Z M 169.627,109.168 L 169.441,108.983 C 167.864,107.685 166.659,105.831 166.567,104.812 C 166.567,104.163 166.659,103.977 167.124,103.977 L 171.018,104.347 C 171.295,104.347 171.481,104.44 171.481,104.163 C 171.481,103.977 171.388,103.792 171.11,103.42 C 171.295,103.607 171.481,103.698 171.574,103.884 C 173.612,105.554 174.726,107.035 174.818,108.056 C 174.818,108.705 174.539,108.89 173.798,108.798 L 169.812,108.334 C 169.534,108.334 169.256,108.241 169.256,108.52 C 169.256,108.705 169.441,108.89 169.627,109.168 Z
         M 190.602,124.748 L 190.746,127.34 L 187.074,124.316 L 190.602,124.748 Z M 186.426,117.26 L 186.786,124.172 C 183.906,121.364 182.178,118.34 182.034,115.964 C 181.89,113.588 183.618,113.804 186.57,116.54 C 188.298,118.124 189.522,119.636 190.818,121.724 L 190.89,123.164 C 189.81,120.932 188.586,119.204 187.002,117.764 C 186.786,117.62 186.642,117.404 186.426,117.26 Z"
    />
    <g
      fill="#000000"
      stroke="none"
      stroke-width="0.0"
      font-size="10.0"
      font-family="Arial"
    >
    <text transform="translate(265.436 221.725) scale(1 -1)">Leading Edge (LE)</text>
    <text transform="translate(13.17 237.069) scale(1 -1)">Top Surface (TS)</text>
    <text transform="translate(218.73 96.489) scale(1 -1)">Trailing Edge (TE)</text>
    <text transform="translate(357.57 144.032) scale(1 -1)">Bottom Surface (BS)</text>
    <text transform="translate(274.014 121.323) scale(1 -1)">Middle Line (ML)</text>
    <text transform="translate(33.837 279.674) scale(1 -1)">Leading Edge (LE)</text>
    <text transform="translate(369.585 233.249) scale(1 -1)">Trailing Edge (TE)</text>
    <text id="legend_letters" transform="translate(188.88 61.389) scale(1 -1)">Letters (L)</text>
    </g>
    <g
      fill="none"
      stroke="#000000"
      marker-start="url(#DefaultArrowScaled)"
      stroke-width="0.4"
    >
    <path d="M 138.286,268.159 L 118.036,274.646 L 32.632,274.646"/>
    <path d="M 119.067,219.878 L 91.263,231.459 L 12.247,231.459"/>
    <path d="M 193.19,109.298 L 215.381,90.969 L 300.785,90.969"/>
    <path d="M 225.091,210.168 L 263.235,216.22 L 348.639,216.22"/>
    <path d="M 330.436,259.005 L 369.555,228.167 L 452.822,228.167"/>
    <path d="M 313.469,190.749 L 351.969,137.069 L 444.725,137.069"/>
    <path d="M 235.55,158.188 L 269.913,116.699 L 348.793,116.699"/>
    <path
      id="legend_line"
      style="fill:none; stroke-width:0.4;"
      marker-start="url(#DefaultArrowScaled)"
      d="M 144.403,82.889 L 181.779,56.015 L 237.785,56.015"
    />
    </g>
  </g>
</svg>
